%TF.GenerationSoftware,KiCad,Pcbnew,(6.0.1)*%
%TF.CreationDate,2023-03-14T12:55:58-06:00*%
%TF.ProjectId,SPARC,53504152-432e-46b6-9963-61645f706362,01*%
%TF.SameCoordinates,Original*%
%TF.FileFunction,Copper,L3,Inr*%
%TF.FilePolarity,Positive*%
%FSLAX46Y46*%
G04 Gerber Fmt 4.6, Leading zero omitted, Abs format (unit mm)*
G04 Created by KiCad (PCBNEW (6.0.1)) date 2023-03-14 12:55:58*
%MOMM*%
%LPD*%
G01*
G04 APERTURE LIST*
%TA.AperFunction,ComponentPad*%
%ADD10C,0.970000*%
%TD*%
%TA.AperFunction,ComponentPad*%
%ADD11C,0.500000*%
%TD*%
%TA.AperFunction,ComponentPad*%
%ADD12O,1.700000X1.700000*%
%TD*%
%TA.AperFunction,ComponentPad*%
%ADD13R,1.700000X1.700000*%
%TD*%
%TA.AperFunction,ViaPad*%
%ADD14C,0.600000*%
%TD*%
%TA.AperFunction,ViaPad*%
%ADD15C,0.550000*%
%TD*%
%TA.AperFunction,ViaPad*%
%ADD16C,0.800000*%
%TD*%
%TA.AperFunction,Conductor*%
%ADD17C,0.400000*%
%TD*%
%TA.AperFunction,Conductor*%
%ADD18C,1.000000*%
%TD*%
%TA.AperFunction,Conductor*%
%ADD19C,0.800000*%
%TD*%
%TA.AperFunction,Conductor*%
%ADD20C,0.250000*%
%TD*%
G04 APERTURE END LIST*
D10*
%TO.N,GND*%
%TO.C,J2*%
X126595000Y-50810000D03*
X135355000Y-50810000D03*
%TD*%
D11*
%TO.N,/VNN*%
%TO.C,U2*%
X136495000Y-77325000D03*
X138711667Y-72891667D03*
X140928333Y-77325000D03*
X143145000Y-77325000D03*
X140928333Y-75108333D03*
X138711667Y-70675000D03*
X138711667Y-77325000D03*
X143145000Y-70675000D03*
X136495000Y-72891667D03*
X138711667Y-75108333D03*
X143145000Y-72891667D03*
X140928333Y-70675000D03*
X136495000Y-70675000D03*
X143145000Y-75108333D03*
X136495000Y-75108333D03*
X140928333Y-72891667D03*
%TD*%
D10*
%TO.N,GND*%
%TO.C,J1*%
X111445000Y-50810000D03*
X120205000Y-50810000D03*
%TD*%
D12*
%TO.N,/DIN_1*%
%TO.C,JP3 JP2*%
X121725000Y-81725000D03*
%TO.N,/CLK_1*%
X119235000Y-81725000D03*
%TO.N,/SRdin_1*%
X121775000Y-79185000D03*
%TO.N,/SRclk_1*%
X119235000Y-79185000D03*
%TO.N,/DOUT_0*%
X121775000Y-76645000D03*
%TO.N,/CLK_0*%
X119235000Y-76645000D03*
%TD*%
%TO.N,/CLR_1*%
%TO.C,JP4 JP5*%
X128025000Y-81725000D03*
%TO.N,/~{LE_1}*%
X125535000Y-81725000D03*
%TO.N,/SRclr_1*%
X128075000Y-79185000D03*
%TO.N,/~{SRle_1}*%
X125535000Y-79185000D03*
%TO.N,/CLR_0*%
X128075000Y-76645000D03*
%TO.N,/~{LE_0}*%
X125535000Y-76645000D03*
%TD*%
D11*
%TO.N,/VNN*%
%TO.C,U1*%
X101470349Y-72780267D03*
X99253682Y-77213600D03*
X103687015Y-77213600D03*
X99253682Y-70563600D03*
X101470349Y-74996933D03*
X105903682Y-74996933D03*
X105903682Y-77213600D03*
X105903682Y-72780267D03*
X103687015Y-72780267D03*
X103687015Y-70563600D03*
X101470349Y-70563600D03*
X99253682Y-74996933D03*
X105903682Y-70563600D03*
X103687015Y-74996933D03*
X99253682Y-72780267D03*
X101470349Y-77213600D03*
%TD*%
D13*
%TO.N,/VB7_0*%
%TO.C,J4*%
X115532682Y-76682600D03*
D12*
%TO.N,GND*%
X115532682Y-79222600D03*
X115532682Y-81762600D03*
%TD*%
D13*
%TO.N,GND*%
%TO.C,JP1*%
X120930000Y-64670000D03*
D12*
%TO.N,/VL*%
X123470000Y-64670000D03*
%TO.N,/VNN*%
X126010000Y-64670000D03*
%TD*%
D13*
%TO.N,/DOUT_0*%
%TO.C,J3*%
X110302682Y-85256769D03*
D12*
%TO.N,/CLK_0*%
X107762682Y-85256769D03*
%TO.N,/DIN_0*%
X105222682Y-85256769D03*
%TO.N,/CLR_0*%
X102682682Y-85256769D03*
%TO.N,/~{LE_0}*%
X100142682Y-85256769D03*
%TO.N,/VDD*%
X97602682Y-85256769D03*
%TD*%
D13*
%TO.N,/VB7_1*%
%TO.C,J5*%
X152774000Y-76794000D03*
D12*
%TO.N,GND*%
X152774000Y-79334000D03*
X152774000Y-81874000D03*
%TD*%
D13*
%TO.N,/DOUT_1*%
%TO.C,J6*%
X147544000Y-85368169D03*
D12*
%TO.N,/CLK_1*%
X145004000Y-85368169D03*
%TO.N,/DIN_1*%
X142464000Y-85368169D03*
%TO.N,/CLR_1*%
X139924000Y-85368169D03*
%TO.N,/~{LE_1}*%
X137384000Y-85368169D03*
%TO.N,/VDD*%
X134844000Y-85368169D03*
%TD*%
D14*
%TO.N,/DOUT_0*%
X105358682Y-80713369D03*
D15*
%TO.N,Net-(R2-Pad2)*%
X97280682Y-75638600D03*
D14*
%TO.N,/CLK_0*%
X104483682Y-80733369D03*
%TO.N,GND*%
X86502682Y-71735369D03*
X156513682Y-71735369D03*
X86502682Y-67163369D03*
X156513682Y-62337369D03*
X101958682Y-79463369D03*
X156513682Y-66909369D03*
X86502682Y-62591369D03*
X139202682Y-79574769D03*
%TO.N,/DIN_0*%
X103608682Y-80713369D03*
%TO.N,/CLR_0*%
X100358682Y-80113369D03*
%TO.N,/~{LE_0}*%
X101158682Y-80163369D03*
D15*
%TO.N,/VB7_0*%
X108865682Y-75666600D03*
%TO.N,/VB7_1*%
X146109682Y-75778000D03*
D14*
%TO.N,/DOUT_1*%
X142602682Y-80824769D03*
D15*
%TO.N,Net-(R23-Pad2)*%
X101828682Y-68614600D03*
%TO.N,Net-(R25-Pad2)*%
X104828682Y-68614600D03*
%TO.N,Net-(R27-Pad2)*%
X107908682Y-70638600D03*
%TO.N,Net-(R29-Pad2)*%
X107908682Y-73638600D03*
%TO.N,Net-(R31-Pad2)*%
X107908682Y-76638600D03*
D16*
%TO.N,/VPP*%
X144352682Y-81096000D03*
X107108682Y-80984600D03*
%TO.N,/VNN*%
X97752682Y-81000600D03*
X121311800Y-57988200D03*
X134996682Y-81112000D03*
D14*
%TO.N,/VDD*%
X139852682Y-80124769D03*
X102608682Y-80013369D03*
D15*
%TO.N,Net-(R11-Pad2)*%
X97280682Y-72638600D03*
%TO.N,Net-(R21-Pad2)*%
X98828682Y-68554600D03*
%TO.N,/VL*%
X131827682Y-76796000D03*
X94583682Y-76684600D03*
%TO.N,/VB0_0*%
X94578682Y-73634600D03*
%TO.N,/VB1_0*%
X94578682Y-70586600D03*
X96228682Y-73634600D03*
%TO.N,/VB2_0*%
X100800682Y-65828600D03*
X96228682Y-70586600D03*
%TO.N,/VB3_0*%
X103848682Y-65828600D03*
X100800682Y-67478600D03*
%TO.N,/VB4_0*%
X103848682Y-67478600D03*
X110515682Y-69570600D03*
%TO.N,/VB5_0*%
X110515682Y-72618600D03*
X108865682Y-69570600D03*
%TO.N,/VB6_0*%
X110515682Y-75666600D03*
X108865682Y-72618600D03*
%TO.N,/VB2_1*%
X138044682Y-65940000D03*
X133472682Y-70698000D03*
%TO.N,Net-(R50-Pad2)*%
X134524682Y-72750000D03*
%TO.N,/VB1_1*%
X133472682Y-73746000D03*
X131822682Y-70698000D03*
%TO.N,Net-(R48-Pad2)*%
X134524682Y-75750000D03*
%TO.N,/VB0_1*%
X131822682Y-73746000D03*
%TO.N,Net-(R62-Pad2)*%
X145152682Y-76750000D03*
%TO.N,Net-(R60-Pad2)*%
X145152682Y-73750000D03*
%TO.N,/VB6_1*%
X147759682Y-75778000D03*
X146109682Y-72730000D03*
%TO.N,Net-(R58-Pad2)*%
X145152682Y-70750000D03*
%TO.N,/VB5_1*%
X146109682Y-69682000D03*
X147759682Y-72730000D03*
%TO.N,Net-(R56-Pad2)*%
X142072682Y-68726000D03*
%TO.N,/VB4_1*%
X147759682Y-69682000D03*
X141092682Y-67590000D03*
%TO.N,Net-(R54-Pad2)*%
X139072682Y-68726000D03*
%TO.N,/VB3_1*%
X138044682Y-67590000D03*
X141092682Y-65940000D03*
%TO.N,Net-(R52-Pad2)*%
X136072682Y-68666000D03*
D14*
%TO.N,/SRclr_1*%
X137602682Y-80224769D03*
%TO.N,/~{SRle_1}*%
X138402682Y-80274769D03*
%TO.N,/SRclk_1*%
X141727682Y-80844769D03*
%TO.N,/SRdin_1*%
X140852682Y-80824769D03*
%TD*%
D17*
%TO.N,/DOUT_0*%
X120500000Y-77920000D02*
X121775000Y-76645000D01*
X118243231Y-85256769D02*
X120500000Y-83000000D01*
X110302682Y-85256769D02*
X109902082Y-85256769D01*
X110302682Y-85256769D02*
X118243231Y-85256769D01*
X109902082Y-85256769D02*
X105358682Y-80713369D01*
X120500000Y-83000000D02*
X120500000Y-77920000D01*
%TO.N,/CLK_0*%
X123100000Y-75500000D02*
X122700000Y-75100000D01*
X104500000Y-82000000D02*
X104483682Y-81983682D01*
X120780000Y-75100000D02*
X119235000Y-76645000D01*
X123100000Y-82700000D02*
X123100000Y-75500000D01*
X122700000Y-75100000D02*
X120780000Y-75100000D01*
X107762682Y-85256769D02*
X109205913Y-86700000D01*
X107762682Y-85256769D02*
X104505913Y-82000000D01*
X119100000Y-86700000D02*
X123100000Y-82700000D01*
X109205913Y-86700000D02*
X119100000Y-86700000D01*
X104505913Y-82000000D02*
X104500000Y-82000000D01*
X104483682Y-81983682D02*
X104483682Y-80733369D01*
%TO.N,/DIN_0*%
X103608682Y-83642769D02*
X103608682Y-80713369D01*
X105222682Y-85256769D02*
X103608682Y-83642769D01*
%TO.N,/CLR_0*%
X102682682Y-85256769D02*
X100358682Y-82932769D01*
X100358682Y-82932769D02*
X100358682Y-80113369D01*
%TO.N,/~{LE_0}*%
X99500000Y-79500000D02*
X99500000Y-84614087D01*
X100000000Y-79000000D02*
X99500000Y-79500000D01*
X101158682Y-79658682D02*
X100500000Y-79000000D01*
X100500000Y-79000000D02*
X100000000Y-79000000D01*
X99500000Y-84614087D02*
X100142682Y-85256769D01*
X101158682Y-80163369D02*
X101158682Y-79658682D01*
D18*
%TO.N,/VB7_1*%
X147125682Y-76794000D02*
X146109682Y-75778000D01*
X152774000Y-76794000D02*
X147125682Y-76794000D01*
D17*
%TO.N,/DOUT_1*%
X147146082Y-85368169D02*
X142602682Y-80824769D01*
X147544000Y-85368169D02*
X147146082Y-85368169D01*
D18*
%TO.N,/VDD*%
X145270000Y-78370000D02*
X140730000Y-78370000D01*
D19*
X103000000Y-78500000D02*
X103000000Y-79622051D01*
X103000000Y-79622051D02*
X102608682Y-80013369D01*
D18*
X112600000Y-75700000D02*
X112600000Y-74200000D01*
X102590111Y-78090111D02*
X103000000Y-78500000D01*
D19*
X140730000Y-78370000D02*
X140730000Y-79357737D01*
D18*
X130500000Y-77430000D02*
X131440000Y-78370000D01*
X109800000Y-78500000D02*
X112600000Y-75700000D01*
D20*
X139852682Y-80124769D02*
X139975231Y-80124769D01*
D18*
X136100000Y-87900000D02*
X134844000Y-86644000D01*
X103000000Y-78500000D02*
X109800000Y-78500000D01*
X140730000Y-78370000D02*
X131440000Y-78370000D01*
X145270000Y-78370000D02*
X150100000Y-83200000D01*
D19*
X140730000Y-79357737D02*
X139907825Y-80179912D01*
D18*
X134844000Y-86644000D02*
X134844000Y-85368169D01*
X129800000Y-73800000D02*
X130500000Y-74500000D01*
X96724658Y-84380258D02*
X96139000Y-83794600D01*
X97602682Y-85256769D02*
X96726171Y-84380258D01*
X149900000Y-87900000D02*
X136100000Y-87900000D01*
X98909889Y-78090111D02*
X102590111Y-78090111D01*
X130500000Y-74500000D02*
X130500000Y-77430000D01*
X112600000Y-74200000D02*
X113000000Y-73800000D01*
X150100000Y-83200000D02*
X150100000Y-87700000D01*
X96139000Y-80861000D02*
X97500000Y-79500000D01*
X113000000Y-73800000D02*
X129800000Y-73800000D01*
X97500000Y-79500000D02*
X98909889Y-78090111D01*
X96726171Y-84380258D02*
X96724658Y-84380258D01*
X96139000Y-83794600D02*
X96139000Y-80861000D01*
X150100000Y-87700000D02*
X149900000Y-87900000D01*
D17*
%TO.N,/CLR_1*%
X139924000Y-85368169D02*
X137475831Y-82920000D01*
X137475831Y-82920000D02*
X129220000Y-82920000D01*
X129220000Y-82920000D02*
X128025000Y-81725000D01*
%TO.N,/~{LE_1}*%
X135735831Y-83720000D02*
X125870000Y-83720000D01*
X125870000Y-83720000D02*
X125535000Y-83385000D01*
X137384000Y-85368169D02*
X135735831Y-83720000D01*
X125535000Y-83385000D02*
X125535000Y-81725000D01*
%TD*%
M02*
