%TF.GenerationSoftware,KiCad,Pcbnew,(6.0.1)*%
%TF.CreationDate,2023-02-14T20:32:36-07:00*%
%TF.ProjectId,SPARC,53504152-432e-46b6-9963-61645f706362,01*%
%TF.SameCoordinates,Original*%
%TF.FileFunction,Legend,Top*%
%TF.FilePolarity,Positive*%
%FSLAX46Y46*%
G04 Gerber Fmt 4.6, Leading zero omitted, Abs format (unit mm)*
G04 Created by KiCad (PCBNEW (6.0.1)) date 2023-02-14 20:32:36*
%MOMM*%
%LPD*%
G01*
G04 APERTURE LIST*
%ADD10C,0.150000*%
%ADD11C,0.200000*%
%ADD12C,0.062500*%
%ADD13C,0.120000*%
G04 APERTURE END LIST*
D10*
X112014095Y-74938000D02*
X111918857Y-74890380D01*
X111776000Y-74890380D01*
X111633142Y-74938000D01*
X111537904Y-75033238D01*
X111490285Y-75128476D01*
X111442666Y-75318952D01*
X111442666Y-75461809D01*
X111490285Y-75652285D01*
X111537904Y-75747523D01*
X111633142Y-75842761D01*
X111776000Y-75890380D01*
X111871238Y-75890380D01*
X112014095Y-75842761D01*
X112061714Y-75795142D01*
X112061714Y-75461809D01*
X111871238Y-75461809D01*
X112490285Y-75890380D02*
X112490285Y-74890380D01*
X113061714Y-75890380D01*
X113061714Y-74890380D01*
X113537904Y-75890380D02*
X113537904Y-74890380D01*
X113776000Y-74890380D01*
X113918857Y-74938000D01*
X114014095Y-75033238D01*
X114061714Y-75128476D01*
X114109333Y-75318952D01*
X114109333Y-75461809D01*
X114061714Y-75652285D01*
X114014095Y-75747523D01*
X113918857Y-75842761D01*
X113776000Y-75890380D01*
X113537904Y-75890380D01*
X111990285Y-72350380D02*
X112323619Y-73350380D01*
X112656952Y-72350380D01*
X113133142Y-73350380D02*
X113037904Y-73302761D01*
X112990285Y-73255142D01*
X112942666Y-73159904D01*
X112942666Y-72874190D01*
X112990285Y-72778952D01*
X113037904Y-72731333D01*
X113133142Y-72683714D01*
X113276000Y-72683714D01*
X113371238Y-72731333D01*
X113418857Y-72778952D01*
X113466476Y-72874190D01*
X113466476Y-73159904D01*
X113418857Y-73255142D01*
X113371238Y-73302761D01*
X113276000Y-73350380D01*
X113133142Y-73350380D01*
X108157142Y-79624007D02*
X108204761Y-79671626D01*
X108252380Y-79814483D01*
X108252380Y-79909721D01*
X108204761Y-80052578D01*
X108109523Y-80147816D01*
X108014285Y-80195435D01*
X107823809Y-80243054D01*
X107680952Y-80243054D01*
X107490476Y-80195435D01*
X107395238Y-80147816D01*
X107300000Y-80052578D01*
X107252380Y-79909721D01*
X107252380Y-79814483D01*
X107300000Y-79671626D01*
X107347619Y-79624007D01*
X108252380Y-78719245D02*
X108252380Y-79195435D01*
X107252380Y-79195435D01*
X108252380Y-78385911D02*
X107252380Y-78385911D01*
X108252380Y-77814483D02*
X107680952Y-78243054D01*
X107252380Y-77814483D02*
X107823809Y-78385911D01*
X105590476Y-51152619D02*
X105257142Y-52152619D01*
X104923809Y-51152619D01*
X105590476Y-51152619D01*
X104685714Y-52152619D02*
X104066666Y-52152619D01*
X104400000Y-51771666D01*
X104257142Y-51771666D01*
X104161904Y-51724047D01*
X104114285Y-51676428D01*
X104066666Y-51581190D01*
X104066666Y-51343095D01*
X104114285Y-51247857D01*
X104161904Y-51200238D01*
X104257142Y-51152619D01*
X104542857Y-51152619D01*
X104638095Y-51200238D01*
X104685714Y-51247857D01*
X103447619Y-52152619D02*
X103352380Y-52152619D01*
X103257142Y-52105000D01*
X103209523Y-52057380D01*
X103161904Y-51962142D01*
X103114285Y-51771666D01*
X103114285Y-51533571D01*
X103161904Y-51343095D01*
X103209523Y-51247857D01*
X103257142Y-51200238D01*
X103352380Y-51152619D01*
X103447619Y-51152619D01*
X103542857Y-51200238D01*
X103590476Y-51247857D01*
X103638095Y-51343095D01*
X103685714Y-51533571D01*
X103685714Y-51771666D01*
X103638095Y-51962142D01*
X103590476Y-52057380D01*
X103542857Y-52105000D01*
X103447619Y-52152619D01*
X102495238Y-52152619D02*
X102400000Y-52152619D01*
X102304761Y-52105000D01*
X102257142Y-52057380D01*
X102209523Y-51962142D01*
X102161904Y-51771666D01*
X102161904Y-51533571D01*
X102209523Y-51343095D01*
X102257142Y-51247857D01*
X102304761Y-51200238D01*
X102400000Y-51152619D01*
X102495238Y-51152619D01*
X102590476Y-51200238D01*
X102638095Y-51247857D01*
X102685714Y-51343095D01*
X102733333Y-51533571D01*
X102733333Y-51771666D01*
X102685714Y-51962142D01*
X102638095Y-52057380D01*
X102590476Y-52105000D01*
X102495238Y-52152619D01*
X101876190Y-52152619D02*
X101542857Y-51152619D01*
X101209523Y-52152619D01*
X104638095Y-49542619D02*
X104638095Y-50542619D01*
X104304761Y-49828333D01*
X103971428Y-50542619D01*
X103971428Y-49542619D01*
X103542857Y-49828333D02*
X103066666Y-49828333D01*
X103638095Y-49542619D02*
X103304761Y-50542619D01*
X102971428Y-49542619D01*
X102733333Y-50542619D02*
X102066666Y-49542619D01*
X102066666Y-50542619D02*
X102733333Y-49542619D01*
D11*
X97519047Y-58452380D02*
X97852380Y-59452380D01*
X98185714Y-58452380D01*
X98519047Y-59452380D02*
X98519047Y-58452380D01*
X99090476Y-59452380D01*
X99090476Y-58452380D01*
X99566666Y-59452380D02*
X99566666Y-58452380D01*
X100138095Y-59452380D01*
X100138095Y-58452380D01*
D10*
X105752380Y-80152578D02*
X104752380Y-80152578D01*
X104752380Y-79914483D01*
X104800000Y-79771626D01*
X104895238Y-79676388D01*
X104990476Y-79628769D01*
X105180952Y-79581149D01*
X105323809Y-79581149D01*
X105514285Y-79628769D01*
X105609523Y-79676388D01*
X105704761Y-79771626D01*
X105752380Y-79914483D01*
X105752380Y-80152578D01*
X105752380Y-79152578D02*
X104752380Y-79152578D01*
X105752380Y-78676388D02*
X104752380Y-78676388D01*
X105752380Y-78104959D01*
X104752380Y-78104959D01*
D11*
X105266666Y-58452380D02*
X105600000Y-59452380D01*
X105933333Y-58452380D01*
X106266666Y-59452380D02*
X106266666Y-58452380D01*
X106647619Y-58452380D01*
X106742857Y-58500000D01*
X106790476Y-58547619D01*
X106838095Y-58642857D01*
X106838095Y-58785714D01*
X106790476Y-58880952D01*
X106742857Y-58928571D01*
X106647619Y-58976190D01*
X106266666Y-58976190D01*
X107266666Y-59452380D02*
X107266666Y-58452380D01*
X107647619Y-58452380D01*
X107742857Y-58500000D01*
X107790476Y-58547619D01*
X107838095Y-58642857D01*
X107838095Y-58785714D01*
X107790476Y-58880952D01*
X107742857Y-58928571D01*
X107647619Y-58976190D01*
X107266666Y-58976190D01*
D10*
X112014095Y-77478000D02*
X111918857Y-77430380D01*
X111776000Y-77430380D01*
X111633142Y-77478000D01*
X111537904Y-77573238D01*
X111490285Y-77668476D01*
X111442666Y-77858952D01*
X111442666Y-78001809D01*
X111490285Y-78192285D01*
X111537904Y-78287523D01*
X111633142Y-78382761D01*
X111776000Y-78430380D01*
X111871238Y-78430380D01*
X112014095Y-78382761D01*
X112061714Y-78335142D01*
X112061714Y-78001809D01*
X111871238Y-78001809D01*
X112490285Y-78430380D02*
X112490285Y-77430380D01*
X113061714Y-78430380D01*
X113061714Y-77430380D01*
X113537904Y-78430380D02*
X113537904Y-77430380D01*
X113776000Y-77430380D01*
X113918857Y-77478000D01*
X114014095Y-77573238D01*
X114061714Y-77668476D01*
X114109333Y-77858952D01*
X114109333Y-78001809D01*
X114061714Y-78192285D01*
X114014095Y-78287523D01*
X113918857Y-78382761D01*
X113776000Y-78430380D01*
X113537904Y-78430380D01*
X99426000Y-79983911D02*
X99426000Y-79174388D01*
X100708380Y-79269626D02*
X100708380Y-79745816D01*
X99708380Y-79745816D01*
X99426000Y-79174388D02*
X99426000Y-78269626D01*
X100184571Y-78936292D02*
X100184571Y-78602959D01*
X100708380Y-78460102D02*
X100708380Y-78936292D01*
X99708380Y-78936292D01*
X99708380Y-78460102D01*
X103057142Y-79624007D02*
X103104761Y-79671626D01*
X103152380Y-79814483D01*
X103152380Y-79909721D01*
X103104761Y-80052578D01*
X103009523Y-80147816D01*
X102914285Y-80195435D01*
X102723809Y-80243054D01*
X102580952Y-80243054D01*
X102390476Y-80195435D01*
X102295238Y-80147816D01*
X102200000Y-80052578D01*
X102152380Y-79909721D01*
X102152380Y-79814483D01*
X102200000Y-79671626D01*
X102247619Y-79624007D01*
X103152380Y-78719245D02*
X103152380Y-79195435D01*
X102152380Y-79195435D01*
X103152380Y-77814483D02*
X102676190Y-78147816D01*
X103152380Y-78385911D02*
X102152380Y-78385911D01*
X102152380Y-78004959D01*
X102200000Y-77909721D01*
X102247619Y-77862102D01*
X102342857Y-77814483D01*
X102485714Y-77814483D01*
X102580952Y-77862102D01*
X102628571Y-77909721D01*
X102676190Y-78004959D01*
X102676190Y-78385911D01*
X110752380Y-80219245D02*
X109752380Y-80219245D01*
X109752380Y-79981149D01*
X109800000Y-79838292D01*
X109895238Y-79743054D01*
X109990476Y-79695435D01*
X110180952Y-79647816D01*
X110323809Y-79647816D01*
X110514285Y-79695435D01*
X110609523Y-79743054D01*
X110704761Y-79838292D01*
X110752380Y-79981149D01*
X110752380Y-80219245D01*
X109752380Y-79028769D02*
X109752380Y-78838292D01*
X109800000Y-78743054D01*
X109895238Y-78647816D01*
X110085714Y-78600197D01*
X110419047Y-78600197D01*
X110609523Y-78647816D01*
X110704761Y-78743054D01*
X110752380Y-78838292D01*
X110752380Y-79028769D01*
X110704761Y-79124007D01*
X110609523Y-79219245D01*
X110419047Y-79266864D01*
X110085714Y-79266864D01*
X109895238Y-79219245D01*
X109800000Y-79124007D01*
X109752380Y-79028769D01*
X109752380Y-78171626D02*
X110561904Y-78171626D01*
X110657142Y-78124007D01*
X110704761Y-78076388D01*
X110752380Y-77981149D01*
X110752380Y-77790673D01*
X110704761Y-77695435D01*
X110657142Y-77647816D01*
X110561904Y-77600197D01*
X109752380Y-77600197D01*
X109752380Y-77266864D02*
X109752380Y-76695435D01*
X110752380Y-76981149D02*
X109752380Y-76981149D01*
X97168380Y-80206102D02*
X98168380Y-79872769D01*
X97168380Y-79539435D01*
X98168380Y-79206102D02*
X97168380Y-79206102D01*
X97168380Y-78968007D01*
X97216000Y-78825149D01*
X97311238Y-78729911D01*
X97406476Y-78682292D01*
X97596952Y-78634673D01*
X97739809Y-78634673D01*
X97930285Y-78682292D01*
X98025523Y-78729911D01*
X98120761Y-78825149D01*
X98168380Y-78968007D01*
X98168380Y-79206102D01*
X98168380Y-78206102D02*
X97168380Y-78206102D01*
X97168380Y-77968007D01*
X97216000Y-77825149D01*
X97311238Y-77729911D01*
X97406476Y-77682292D01*
X97596952Y-77634673D01*
X97739809Y-77634673D01*
X97930285Y-77682292D01*
X98025523Y-77729911D01*
X98120761Y-77825149D01*
X98168380Y-77968007D01*
X98168380Y-78206102D01*
D12*
%TO.C,R3*%
X95758095Y-71415666D02*
X95639047Y-71499000D01*
X95758095Y-71558523D02*
X95508095Y-71558523D01*
X95508095Y-71463285D01*
X95520000Y-71439476D01*
X95531904Y-71427571D01*
X95555714Y-71415666D01*
X95591428Y-71415666D01*
X95615238Y-71427571D01*
X95627142Y-71439476D01*
X95639047Y-71463285D01*
X95639047Y-71558523D01*
X95508095Y-71332333D02*
X95508095Y-71177571D01*
X95603333Y-71260904D01*
X95603333Y-71225190D01*
X95615238Y-71201380D01*
X95627142Y-71189476D01*
X95650952Y-71177571D01*
X95710476Y-71177571D01*
X95734285Y-71189476D01*
X95746190Y-71201380D01*
X95758095Y-71225190D01*
X95758095Y-71296619D01*
X95746190Y-71320428D01*
X95734285Y-71332333D01*
D10*
%TO.C,D1*%
X103347619Y-54161904D02*
X104347619Y-54161904D01*
X104347619Y-54400000D01*
X104300000Y-54542857D01*
X104204761Y-54638095D01*
X104109523Y-54685714D01*
X103919047Y-54733333D01*
X103776190Y-54733333D01*
X103585714Y-54685714D01*
X103490476Y-54638095D01*
X103395238Y-54542857D01*
X103347619Y-54400000D01*
X103347619Y-54161904D01*
X103347619Y-55685714D02*
X103347619Y-55114285D01*
X103347619Y-55400000D02*
X104347619Y-55400000D01*
X104204761Y-55304761D01*
X104109523Y-55209523D01*
X104061904Y-55114285D01*
%TO.C,C6*%
X90033333Y-70635911D02*
X89985714Y-70683530D01*
X89842857Y-70731149D01*
X89747619Y-70731149D01*
X89604761Y-70683530D01*
X89509523Y-70588292D01*
X89461904Y-70493054D01*
X89414285Y-70302578D01*
X89414285Y-70159721D01*
X89461904Y-69969245D01*
X89509523Y-69874007D01*
X89604761Y-69778769D01*
X89747619Y-69731149D01*
X89842857Y-69731149D01*
X89985714Y-69778769D01*
X90033333Y-69826388D01*
X90890476Y-69731149D02*
X90700000Y-69731149D01*
X90604761Y-69778769D01*
X90557142Y-69826388D01*
X90461904Y-69969245D01*
X90414285Y-70159721D01*
X90414285Y-70540673D01*
X90461904Y-70635911D01*
X90509523Y-70683530D01*
X90604761Y-70731149D01*
X90795238Y-70731149D01*
X90890476Y-70683530D01*
X90938095Y-70635911D01*
X90985714Y-70540673D01*
X90985714Y-70302578D01*
X90938095Y-70207340D01*
X90890476Y-70159721D01*
X90795238Y-70112102D01*
X90604761Y-70112102D01*
X90509523Y-70159721D01*
X90461904Y-70207340D01*
X90414285Y-70302578D01*
D12*
%TO.C,R1*%
X95763095Y-74465666D02*
X95644047Y-74549000D01*
X95763095Y-74608523D02*
X95513095Y-74608523D01*
X95513095Y-74513285D01*
X95525000Y-74489476D01*
X95536904Y-74477571D01*
X95560714Y-74465666D01*
X95596428Y-74465666D01*
X95620238Y-74477571D01*
X95632142Y-74489476D01*
X95644047Y-74513285D01*
X95644047Y-74608523D01*
X95763095Y-74227571D02*
X95763095Y-74370428D01*
X95763095Y-74299000D02*
X95513095Y-74299000D01*
X95548809Y-74322809D01*
X95572619Y-74346619D01*
X95584523Y-74370428D01*
D10*
%TO.C,C4*%
X90033333Y-61445911D02*
X89985714Y-61493530D01*
X89842857Y-61541149D01*
X89747619Y-61541149D01*
X89604761Y-61493530D01*
X89509523Y-61398292D01*
X89461904Y-61303054D01*
X89414285Y-61112578D01*
X89414285Y-60969721D01*
X89461904Y-60779245D01*
X89509523Y-60684007D01*
X89604761Y-60588769D01*
X89747619Y-60541149D01*
X89842857Y-60541149D01*
X89985714Y-60588769D01*
X90033333Y-60636388D01*
X90890476Y-60874483D02*
X90890476Y-61541149D01*
X90652380Y-60493530D02*
X90414285Y-61207816D01*
X91033333Y-61207816D01*
D12*
%TO.C,R6*%
X101050333Y-63032095D02*
X100967000Y-62913047D01*
X100907476Y-63032095D02*
X100907476Y-62782095D01*
X101002714Y-62782095D01*
X101026523Y-62794000D01*
X101038428Y-62805904D01*
X101050333Y-62829714D01*
X101050333Y-62865428D01*
X101038428Y-62889238D01*
X101026523Y-62901142D01*
X101002714Y-62913047D01*
X100907476Y-62913047D01*
X101264619Y-62782095D02*
X101217000Y-62782095D01*
X101193190Y-62794000D01*
X101181285Y-62805904D01*
X101157476Y-62841619D01*
X101145571Y-62889238D01*
X101145571Y-62984476D01*
X101157476Y-63008285D01*
X101169380Y-63020190D01*
X101193190Y-63032095D01*
X101240809Y-63032095D01*
X101264619Y-63020190D01*
X101276523Y-63008285D01*
X101288428Y-62984476D01*
X101288428Y-62924952D01*
X101276523Y-62901142D01*
X101264619Y-62889238D01*
X101240809Y-62877333D01*
X101193190Y-62877333D01*
X101169380Y-62889238D01*
X101157476Y-62901142D01*
X101145571Y-62924952D01*
%TO.C,R26*%
X105503285Y-62932095D02*
X105419952Y-62813047D01*
X105360428Y-62932095D02*
X105360428Y-62682095D01*
X105455666Y-62682095D01*
X105479476Y-62694000D01*
X105491380Y-62705904D01*
X105503285Y-62729714D01*
X105503285Y-62765428D01*
X105491380Y-62789238D01*
X105479476Y-62801142D01*
X105455666Y-62813047D01*
X105360428Y-62813047D01*
X105598523Y-62705904D02*
X105610428Y-62694000D01*
X105634238Y-62682095D01*
X105693761Y-62682095D01*
X105717571Y-62694000D01*
X105729476Y-62705904D01*
X105741380Y-62729714D01*
X105741380Y-62753523D01*
X105729476Y-62789238D01*
X105586619Y-62932095D01*
X105741380Y-62932095D01*
X105955666Y-62682095D02*
X105908047Y-62682095D01*
X105884238Y-62694000D01*
X105872333Y-62705904D01*
X105848523Y-62741619D01*
X105836619Y-62789238D01*
X105836619Y-62884476D01*
X105848523Y-62908285D01*
X105860428Y-62920190D01*
X105884238Y-62932095D01*
X105931857Y-62932095D01*
X105955666Y-62920190D01*
X105967571Y-62908285D01*
X105979476Y-62884476D01*
X105979476Y-62824952D01*
X105967571Y-62801142D01*
X105955666Y-62789238D01*
X105931857Y-62777333D01*
X105884238Y-62777333D01*
X105860428Y-62789238D01*
X105848523Y-62801142D01*
X105836619Y-62824952D01*
%TO.C,R8*%
X110045095Y-65827666D02*
X109926047Y-65911000D01*
X110045095Y-65970523D02*
X109795095Y-65970523D01*
X109795095Y-65875285D01*
X109807000Y-65851476D01*
X109818904Y-65839571D01*
X109842714Y-65827666D01*
X109878428Y-65827666D01*
X109902238Y-65839571D01*
X109914142Y-65851476D01*
X109926047Y-65875285D01*
X109926047Y-65970523D01*
X109902238Y-65684809D02*
X109890333Y-65708619D01*
X109878428Y-65720523D01*
X109854619Y-65732428D01*
X109842714Y-65732428D01*
X109818904Y-65720523D01*
X109807000Y-65708619D01*
X109795095Y-65684809D01*
X109795095Y-65637190D01*
X109807000Y-65613380D01*
X109818904Y-65601476D01*
X109842714Y-65589571D01*
X109854619Y-65589571D01*
X109878428Y-65601476D01*
X109890333Y-65613380D01*
X109902238Y-65637190D01*
X109902238Y-65684809D01*
X109914142Y-65708619D01*
X109926047Y-65720523D01*
X109949857Y-65732428D01*
X109997476Y-65732428D01*
X110021285Y-65720523D01*
X110033190Y-65708619D01*
X110045095Y-65684809D01*
X110045095Y-65637190D01*
X110033190Y-65613380D01*
X110021285Y-65601476D01*
X109997476Y-65589571D01*
X109949857Y-65589571D01*
X109926047Y-65601476D01*
X109914142Y-65613380D01*
X109902238Y-65637190D01*
%TO.C,R28*%
X110145095Y-67470714D02*
X110026047Y-67554047D01*
X110145095Y-67613571D02*
X109895095Y-67613571D01*
X109895095Y-67518333D01*
X109907000Y-67494523D01*
X109918904Y-67482619D01*
X109942714Y-67470714D01*
X109978428Y-67470714D01*
X110002238Y-67482619D01*
X110014142Y-67494523D01*
X110026047Y-67518333D01*
X110026047Y-67613571D01*
X109918904Y-67375476D02*
X109907000Y-67363571D01*
X109895095Y-67339761D01*
X109895095Y-67280238D01*
X109907000Y-67256428D01*
X109918904Y-67244523D01*
X109942714Y-67232619D01*
X109966523Y-67232619D01*
X110002238Y-67244523D01*
X110145095Y-67387380D01*
X110145095Y-67232619D01*
X110002238Y-67089761D02*
X109990333Y-67113571D01*
X109978428Y-67125476D01*
X109954619Y-67137380D01*
X109942714Y-67137380D01*
X109918904Y-67125476D01*
X109907000Y-67113571D01*
X109895095Y-67089761D01*
X109895095Y-67042142D01*
X109907000Y-67018333D01*
X109918904Y-67006428D01*
X109942714Y-66994523D01*
X109954619Y-66994523D01*
X109978428Y-67006428D01*
X109990333Y-67018333D01*
X110002238Y-67042142D01*
X110002238Y-67089761D01*
X110014142Y-67113571D01*
X110026047Y-67125476D01*
X110049857Y-67137380D01*
X110097476Y-67137380D01*
X110121285Y-67125476D01*
X110133190Y-67113571D01*
X110145095Y-67089761D01*
X110145095Y-67042142D01*
X110133190Y-67018333D01*
X110121285Y-67006428D01*
X110097476Y-66994523D01*
X110049857Y-66994523D01*
X110026047Y-67006428D01*
X110014142Y-67018333D01*
X110002238Y-67042142D01*
%TO.C,R7*%
X104098333Y-63032095D02*
X104015000Y-62913047D01*
X103955476Y-63032095D02*
X103955476Y-62782095D01*
X104050714Y-62782095D01*
X104074523Y-62794000D01*
X104086428Y-62805904D01*
X104098333Y-62829714D01*
X104098333Y-62865428D01*
X104086428Y-62889238D01*
X104074523Y-62901142D01*
X104050714Y-62913047D01*
X103955476Y-62913047D01*
X104181666Y-62782095D02*
X104348333Y-62782095D01*
X104241190Y-63032095D01*
D10*
%TO.C,C1*%
X116433333Y-61185911D02*
X116385714Y-61233530D01*
X116242857Y-61281149D01*
X116147619Y-61281149D01*
X116004761Y-61233530D01*
X115909523Y-61138292D01*
X115861904Y-61043054D01*
X115814285Y-60852578D01*
X115814285Y-60709721D01*
X115861904Y-60519245D01*
X115909523Y-60424007D01*
X116004761Y-60328769D01*
X116147619Y-60281149D01*
X116242857Y-60281149D01*
X116385714Y-60328769D01*
X116433333Y-60376388D01*
X117385714Y-61281149D02*
X116814285Y-61281149D01*
X117100000Y-61281149D02*
X117100000Y-60281149D01*
X117004761Y-60424007D01*
X116909523Y-60519245D01*
X116814285Y-60566864D01*
%TO.C,C5*%
X90033333Y-66035911D02*
X89985714Y-66083530D01*
X89842857Y-66131149D01*
X89747619Y-66131149D01*
X89604761Y-66083530D01*
X89509523Y-65988292D01*
X89461904Y-65893054D01*
X89414285Y-65702578D01*
X89414285Y-65559721D01*
X89461904Y-65369245D01*
X89509523Y-65274007D01*
X89604761Y-65178769D01*
X89747619Y-65131149D01*
X89842857Y-65131149D01*
X89985714Y-65178769D01*
X90033333Y-65226388D01*
X90938095Y-65131149D02*
X90461904Y-65131149D01*
X90414285Y-65607340D01*
X90461904Y-65559721D01*
X90557142Y-65512102D01*
X90795238Y-65512102D01*
X90890476Y-65559721D01*
X90938095Y-65607340D01*
X90985714Y-65702578D01*
X90985714Y-65940673D01*
X90938095Y-66035911D01*
X90890476Y-66083530D01*
X90795238Y-66131149D01*
X90557142Y-66131149D01*
X90461904Y-66083530D01*
X90414285Y-66035911D01*
%TO.C,C3*%
X116433333Y-70635911D02*
X116385714Y-70683530D01*
X116242857Y-70731149D01*
X116147619Y-70731149D01*
X116004761Y-70683530D01*
X115909523Y-70588292D01*
X115861904Y-70493054D01*
X115814285Y-70302578D01*
X115814285Y-70159721D01*
X115861904Y-69969245D01*
X115909523Y-69874007D01*
X116004761Y-69778769D01*
X116147619Y-69731149D01*
X116242857Y-69731149D01*
X116385714Y-69778769D01*
X116433333Y-69826388D01*
X116766666Y-69731149D02*
X117385714Y-69731149D01*
X117052380Y-70112102D01*
X117195238Y-70112102D01*
X117290476Y-70159721D01*
X117338095Y-70207340D01*
X117385714Y-70302578D01*
X117385714Y-70540673D01*
X117338095Y-70635911D01*
X117290476Y-70683530D01*
X117195238Y-70731149D01*
X116909523Y-70731149D01*
X116814285Y-70683530D01*
X116766666Y-70635911D01*
D12*
%TO.C,R22*%
X99407285Y-62932095D02*
X99323952Y-62813047D01*
X99264428Y-62932095D02*
X99264428Y-62682095D01*
X99359666Y-62682095D01*
X99383476Y-62694000D01*
X99395380Y-62705904D01*
X99407285Y-62729714D01*
X99407285Y-62765428D01*
X99395380Y-62789238D01*
X99383476Y-62801142D01*
X99359666Y-62813047D01*
X99264428Y-62813047D01*
X99502523Y-62705904D02*
X99514428Y-62694000D01*
X99538238Y-62682095D01*
X99597761Y-62682095D01*
X99621571Y-62694000D01*
X99633476Y-62705904D01*
X99645380Y-62729714D01*
X99645380Y-62753523D01*
X99633476Y-62789238D01*
X99490619Y-62932095D01*
X99645380Y-62932095D01*
X99740619Y-62705904D02*
X99752523Y-62694000D01*
X99776333Y-62682095D01*
X99835857Y-62682095D01*
X99859666Y-62694000D01*
X99871571Y-62705904D01*
X99883476Y-62729714D01*
X99883476Y-62753523D01*
X99871571Y-62789238D01*
X99728714Y-62932095D01*
X99883476Y-62932095D01*
%TO.C,R24*%
X102455285Y-62932095D02*
X102371952Y-62813047D01*
X102312428Y-62932095D02*
X102312428Y-62682095D01*
X102407666Y-62682095D01*
X102431476Y-62694000D01*
X102443380Y-62705904D01*
X102455285Y-62729714D01*
X102455285Y-62765428D01*
X102443380Y-62789238D01*
X102431476Y-62801142D01*
X102407666Y-62813047D01*
X102312428Y-62813047D01*
X102550523Y-62705904D02*
X102562428Y-62694000D01*
X102586238Y-62682095D01*
X102645761Y-62682095D01*
X102669571Y-62694000D01*
X102681476Y-62705904D01*
X102693380Y-62729714D01*
X102693380Y-62753523D01*
X102681476Y-62789238D01*
X102538619Y-62932095D01*
X102693380Y-62932095D01*
X102907666Y-62765428D02*
X102907666Y-62932095D01*
X102848142Y-62670190D02*
X102788619Y-62848761D01*
X102943380Y-62848761D01*
%TO.C,R20*%
X95763095Y-73060714D02*
X95644047Y-73144047D01*
X95763095Y-73203571D02*
X95513095Y-73203571D01*
X95513095Y-73108333D01*
X95525000Y-73084523D01*
X95536904Y-73072619D01*
X95560714Y-73060714D01*
X95596428Y-73060714D01*
X95620238Y-73072619D01*
X95632142Y-73084523D01*
X95644047Y-73108333D01*
X95644047Y-73203571D01*
X95536904Y-72965476D02*
X95525000Y-72953571D01*
X95513095Y-72929761D01*
X95513095Y-72870238D01*
X95525000Y-72846428D01*
X95536904Y-72834523D01*
X95560714Y-72822619D01*
X95584523Y-72822619D01*
X95620238Y-72834523D01*
X95763095Y-72977380D01*
X95763095Y-72822619D01*
X95513095Y-72667857D02*
X95513095Y-72644047D01*
X95525000Y-72620238D01*
X95536904Y-72608333D01*
X95560714Y-72596428D01*
X95608333Y-72584523D01*
X95667857Y-72584523D01*
X95715476Y-72596428D01*
X95739285Y-72608333D01*
X95751190Y-72620238D01*
X95763095Y-72644047D01*
X95763095Y-72667857D01*
X95751190Y-72691666D01*
X95739285Y-72703571D01*
X95715476Y-72715476D01*
X95667857Y-72727380D01*
X95608333Y-72727380D01*
X95560714Y-72715476D01*
X95536904Y-72703571D01*
X95525000Y-72691666D01*
X95513095Y-72667857D01*
%TO.C,R4*%
X95858095Y-69891666D02*
X95739047Y-69975000D01*
X95858095Y-70034523D02*
X95608095Y-70034523D01*
X95608095Y-69939285D01*
X95620000Y-69915476D01*
X95631904Y-69903571D01*
X95655714Y-69891666D01*
X95691428Y-69891666D01*
X95715238Y-69903571D01*
X95727142Y-69915476D01*
X95739047Y-69939285D01*
X95739047Y-70034523D01*
X95691428Y-69677380D02*
X95858095Y-69677380D01*
X95596190Y-69736904D02*
X95774761Y-69796428D01*
X95774761Y-69641666D01*
%TO.C,R30*%
X110145095Y-70518714D02*
X110026047Y-70602047D01*
X110145095Y-70661571D02*
X109895095Y-70661571D01*
X109895095Y-70566333D01*
X109907000Y-70542523D01*
X109918904Y-70530619D01*
X109942714Y-70518714D01*
X109978428Y-70518714D01*
X110002238Y-70530619D01*
X110014142Y-70542523D01*
X110026047Y-70566333D01*
X110026047Y-70661571D01*
X109895095Y-70435380D02*
X109895095Y-70280619D01*
X109990333Y-70363952D01*
X109990333Y-70328238D01*
X110002238Y-70304428D01*
X110014142Y-70292523D01*
X110037952Y-70280619D01*
X110097476Y-70280619D01*
X110121285Y-70292523D01*
X110133190Y-70304428D01*
X110145095Y-70328238D01*
X110145095Y-70399666D01*
X110133190Y-70423476D01*
X110121285Y-70435380D01*
X109895095Y-70125857D02*
X109895095Y-70102047D01*
X109907000Y-70078238D01*
X109918904Y-70066333D01*
X109942714Y-70054428D01*
X109990333Y-70042523D01*
X110049857Y-70042523D01*
X110097476Y-70054428D01*
X110121285Y-70066333D01*
X110133190Y-70078238D01*
X110145095Y-70102047D01*
X110145095Y-70125857D01*
X110133190Y-70149666D01*
X110121285Y-70161571D01*
X110097476Y-70173476D01*
X110049857Y-70185380D01*
X109990333Y-70185380D01*
X109942714Y-70173476D01*
X109918904Y-70161571D01*
X109907000Y-70149666D01*
X109895095Y-70125857D01*
%TO.C,R19*%
X95758095Y-68486714D02*
X95639047Y-68570047D01*
X95758095Y-68629571D02*
X95508095Y-68629571D01*
X95508095Y-68534333D01*
X95520000Y-68510523D01*
X95531904Y-68498619D01*
X95555714Y-68486714D01*
X95591428Y-68486714D01*
X95615238Y-68498619D01*
X95627142Y-68510523D01*
X95639047Y-68534333D01*
X95639047Y-68629571D01*
X95758095Y-68248619D02*
X95758095Y-68391476D01*
X95758095Y-68320047D02*
X95508095Y-68320047D01*
X95543809Y-68343857D01*
X95567619Y-68367666D01*
X95579523Y-68391476D01*
X95758095Y-68129571D02*
X95758095Y-68081952D01*
X95746190Y-68058142D01*
X95734285Y-68046238D01*
X95698571Y-68022428D01*
X95650952Y-68010523D01*
X95555714Y-68010523D01*
X95531904Y-68022428D01*
X95520000Y-68034333D01*
X95508095Y-68058142D01*
X95508095Y-68105761D01*
X95520000Y-68129571D01*
X95531904Y-68141476D01*
X95555714Y-68153380D01*
X95615238Y-68153380D01*
X95639047Y-68141476D01*
X95650952Y-68129571D01*
X95662857Y-68105761D01*
X95662857Y-68058142D01*
X95650952Y-68034333D01*
X95639047Y-68022428D01*
X95615238Y-68010523D01*
D10*
%TO.C,U1*%
X102108095Y-63756380D02*
X102108095Y-64565904D01*
X102155714Y-64661142D01*
X102203333Y-64708761D01*
X102298571Y-64756380D01*
X102489047Y-64756380D01*
X102584285Y-64708761D01*
X102631904Y-64661142D01*
X102679523Y-64565904D01*
X102679523Y-63756380D01*
X103679523Y-64756380D02*
X103108095Y-64756380D01*
X103393809Y-64756380D02*
X103393809Y-63756380D01*
X103298571Y-63899238D01*
X103203333Y-63994476D01*
X103108095Y-64042095D01*
D12*
%TO.C,R5*%
X95858095Y-66843666D02*
X95739047Y-66927000D01*
X95858095Y-66986523D02*
X95608095Y-66986523D01*
X95608095Y-66891285D01*
X95620000Y-66867476D01*
X95631904Y-66855571D01*
X95655714Y-66843666D01*
X95691428Y-66843666D01*
X95715238Y-66855571D01*
X95727142Y-66867476D01*
X95739047Y-66891285D01*
X95739047Y-66986523D01*
X95608095Y-66617476D02*
X95608095Y-66736523D01*
X95727142Y-66748428D01*
X95715238Y-66736523D01*
X95703333Y-66712714D01*
X95703333Y-66653190D01*
X95715238Y-66629380D01*
X95727142Y-66617476D01*
X95750952Y-66605571D01*
X95810476Y-66605571D01*
X95834285Y-66617476D01*
X95846190Y-66629380D01*
X95858095Y-66653190D01*
X95858095Y-66712714D01*
X95846190Y-66736523D01*
X95834285Y-66748428D01*
D10*
%TO.C,C2*%
X116433333Y-65885911D02*
X116385714Y-65933530D01*
X116242857Y-65981149D01*
X116147619Y-65981149D01*
X116004761Y-65933530D01*
X115909523Y-65838292D01*
X115861904Y-65743054D01*
X115814285Y-65552578D01*
X115814285Y-65409721D01*
X115861904Y-65219245D01*
X115909523Y-65124007D01*
X116004761Y-65028769D01*
X116147619Y-64981149D01*
X116242857Y-64981149D01*
X116385714Y-65028769D01*
X116433333Y-65076388D01*
X116814285Y-65076388D02*
X116861904Y-65028769D01*
X116957142Y-64981149D01*
X117195238Y-64981149D01*
X117290476Y-65028769D01*
X117338095Y-65076388D01*
X117385714Y-65171626D01*
X117385714Y-65266864D01*
X117338095Y-65409721D01*
X116766666Y-65981149D01*
X117385714Y-65981149D01*
D12*
%TO.C,R9*%
X110045095Y-68875666D02*
X109926047Y-68959000D01*
X110045095Y-69018523D02*
X109795095Y-69018523D01*
X109795095Y-68923285D01*
X109807000Y-68899476D01*
X109818904Y-68887571D01*
X109842714Y-68875666D01*
X109878428Y-68875666D01*
X109902238Y-68887571D01*
X109914142Y-68899476D01*
X109926047Y-68923285D01*
X109926047Y-69018523D01*
X110045095Y-68756619D02*
X110045095Y-68709000D01*
X110033190Y-68685190D01*
X110021285Y-68673285D01*
X109985571Y-68649476D01*
X109937952Y-68637571D01*
X109842714Y-68637571D01*
X109818904Y-68649476D01*
X109807000Y-68661380D01*
X109795095Y-68685190D01*
X109795095Y-68732809D01*
X109807000Y-68756619D01*
X109818904Y-68768523D01*
X109842714Y-68780428D01*
X109902238Y-68780428D01*
X109926047Y-68768523D01*
X109937952Y-68756619D01*
X109949857Y-68732809D01*
X109949857Y-68685190D01*
X109937952Y-68661380D01*
X109926047Y-68649476D01*
X109902238Y-68637571D01*
%TO.C,R10*%
X110045095Y-72042714D02*
X109926047Y-72126047D01*
X110045095Y-72185571D02*
X109795095Y-72185571D01*
X109795095Y-72090333D01*
X109807000Y-72066523D01*
X109818904Y-72054619D01*
X109842714Y-72042714D01*
X109878428Y-72042714D01*
X109902238Y-72054619D01*
X109914142Y-72066523D01*
X109926047Y-72090333D01*
X109926047Y-72185571D01*
X110045095Y-71804619D02*
X110045095Y-71947476D01*
X110045095Y-71876047D02*
X109795095Y-71876047D01*
X109830809Y-71899857D01*
X109854619Y-71923666D01*
X109866523Y-71947476D01*
X109795095Y-71649857D02*
X109795095Y-71626047D01*
X109807000Y-71602238D01*
X109818904Y-71590333D01*
X109842714Y-71578428D01*
X109890333Y-71566523D01*
X109949857Y-71566523D01*
X109997476Y-71578428D01*
X110021285Y-71590333D01*
X110033190Y-71602238D01*
X110045095Y-71626047D01*
X110045095Y-71649857D01*
X110033190Y-71673666D01*
X110021285Y-71685571D01*
X109997476Y-71697476D01*
X109949857Y-71709380D01*
X109890333Y-71709380D01*
X109842714Y-71697476D01*
X109818904Y-71685571D01*
X109807000Y-71673666D01*
X109795095Y-71649857D01*
D13*
%TO.C,D1*%
X105700000Y-56650000D02*
X105700000Y-57600000D01*
X105700000Y-57600000D02*
X104700000Y-57600000D01*
%TO.C,C6*%
X90911252Y-66618769D02*
X89488748Y-66618769D01*
X90911252Y-69338769D02*
X89488748Y-69338769D01*
%TO.C,C4*%
X90911252Y-60148769D02*
X89488748Y-60148769D01*
X90911252Y-57428769D02*
X89488748Y-57428769D01*
%TO.C,C1*%
X117311252Y-57168769D02*
X115888748Y-57168769D01*
X117311252Y-59888769D02*
X115888748Y-59888769D01*
%TO.C,C5*%
X90911252Y-64738769D02*
X89488748Y-64738769D01*
X90911252Y-62018769D02*
X89488748Y-62018769D01*
%TO.C,C3*%
X117311252Y-69338769D02*
X115888748Y-69338769D01*
X117311252Y-66618769D02*
X115888748Y-66618769D01*
%TO.C,U1*%
X107005000Y-65494000D02*
X107480000Y-65494000D01*
X98260000Y-74714000D02*
X98260000Y-74239000D01*
X107480000Y-65494000D02*
X107480000Y-65969000D01*
X98735000Y-74714000D02*
X98260000Y-74714000D01*
X107480000Y-74714000D02*
X107480000Y-74239000D01*
X98735000Y-65494000D02*
X98260000Y-65494000D01*
X107005000Y-74714000D02*
X107480000Y-74714000D01*
%TO.C,J4*%
X114494000Y-71568000D02*
X115824000Y-71568000D01*
X114494000Y-74168000D02*
X117154000Y-74168000D01*
X114494000Y-72898000D02*
X114494000Y-71568000D01*
X117154000Y-74168000D02*
X117154000Y-79308000D01*
X114494000Y-79308000D02*
X117154000Y-79308000D01*
X114494000Y-74168000D02*
X114494000Y-79308000D01*
%TO.C,J3*%
X109070000Y-80878769D02*
X96310000Y-80878769D01*
X111670000Y-80878769D02*
X111670000Y-82208769D01*
X96310000Y-80878769D02*
X96310000Y-83538769D01*
X109070000Y-83538769D02*
X96310000Y-83538769D01*
X109070000Y-80878769D02*
X109070000Y-83538769D01*
X110340000Y-80878769D02*
X111670000Y-80878769D01*
%TO.C,C2*%
X117311252Y-61868769D02*
X115888748Y-61868769D01*
X117311252Y-64588769D02*
X115888748Y-64588769D01*
%TD*%
M02*
