%TF.GenerationSoftware,KiCad,Pcbnew,(6.0.1)*%
%TF.CreationDate,2023-03-16T18:29:38-06:00*%
%TF.ProjectId,SPARC,53504152-432e-46b6-9963-61645f706362,01*%
%TF.SameCoordinates,Original*%
%TF.FileFunction,Paste,Bot*%
%TF.FilePolarity,Positive*%
%FSLAX46Y46*%
G04 Gerber Fmt 4.6, Leading zero omitted, Abs format (unit mm)*
G04 Created by KiCad (PCBNEW (6.0.1)) date 2023-03-16 18:29:38*
%MOMM*%
%LPD*%
G01*
G04 APERTURE LIST*
G04 Aperture macros list*
%AMRoundRect*
0 Rectangle with rounded corners*
0 $1 Rounding radius*
0 $2 $3 $4 $5 $6 $7 $8 $9 X,Y pos of 4 corners*
0 Add a 4 corners polygon primitive as box body*
4,1,4,$2,$3,$4,$5,$6,$7,$8,$9,$2,$3,0*
0 Add four circle primitives for the rounded corners*
1,1,$1+$1,$2,$3*
1,1,$1+$1,$4,$5*
1,1,$1+$1,$6,$7*
1,1,$1+$1,$8,$9*
0 Add four rect primitives between the rounded corners*
20,1,$1+$1,$2,$3,$4,$5,0*
20,1,$1+$1,$4,$5,$6,$7,0*
20,1,$1+$1,$6,$7,$8,$9,0*
20,1,$1+$1,$8,$9,$2,$3,0*%
G04 Aperture macros list end*
%ADD10R,2.420000X5.080000*%
%ADD11RoundRect,0.200000X-0.200000X-0.275000X0.200000X-0.275000X0.200000X0.275000X-0.200000X0.275000X0*%
%ADD12RoundRect,0.250000X-0.412500X-1.100000X0.412500X-1.100000X0.412500X1.100000X-0.412500X1.100000X0*%
%ADD13RoundRect,0.250000X0.412500X1.100000X-0.412500X1.100000X-0.412500X-1.100000X0.412500X-1.100000X0*%
%ADD14RoundRect,0.200000X0.200000X0.275000X-0.200000X0.275000X-0.200000X-0.275000X0.200000X-0.275000X0*%
%ADD15RoundRect,0.200000X0.275000X-0.200000X0.275000X0.200000X-0.275000X0.200000X-0.275000X-0.200000X0*%
%ADD16RoundRect,0.200000X-0.275000X0.200000X-0.275000X-0.200000X0.275000X-0.200000X0.275000X0.200000X0*%
%ADD17RoundRect,0.225000X0.225000X0.250000X-0.225000X0.250000X-0.225000X-0.250000X0.225000X-0.250000X0*%
G04 APERTURE END LIST*
D10*
%TO.C,J2*%
X126595000Y-47480000D03*
X135355000Y-47480000D03*
%TD*%
%TO.C,J1*%
X120205000Y-47480000D03*
X111445000Y-47480000D03*
%TD*%
D11*
%TO.C,R44*%
X146109682Y-72730000D03*
X147759682Y-72730000D03*
%TD*%
D12*
%TO.C,C9*%
X94627682Y-81000600D03*
X97752682Y-81000600D03*
%TD*%
D13*
%TO.C,C7*%
X110271182Y-81000600D03*
X107146182Y-81000600D03*
%TD*%
D14*
%TO.C,R31*%
X110515682Y-77190600D03*
X108865682Y-77190600D03*
%TD*%
%TO.C,R58*%
X147759682Y-71206000D03*
X146109682Y-71206000D03*
%TD*%
%TO.C,R60*%
X147759682Y-74254000D03*
X146109682Y-74254000D03*
%TD*%
D15*
%TO.C,R38*%
X138044682Y-67590000D03*
X138044682Y-65940000D03*
%TD*%
D16*
%TO.C,R52*%
X136520682Y-65940000D03*
X136520682Y-67590000D03*
%TD*%
D15*
%TO.C,R14*%
X100800682Y-67478600D03*
X100800682Y-65828600D03*
%TD*%
D11*
%TO.C,R50*%
X131822682Y-72222000D03*
X133472682Y-72222000D03*
%TD*%
D16*
%TO.C,R54*%
X139568682Y-65940000D03*
X139568682Y-67590000D03*
%TD*%
D14*
%TO.C,R13*%
X96228682Y-70586600D03*
X94578682Y-70586600D03*
%TD*%
D17*
%TO.C,C8*%
X102591682Y-81762600D03*
X101041682Y-81762600D03*
%TD*%
D11*
%TO.C,R48*%
X131822682Y-75270000D03*
X133472682Y-75270000D03*
%TD*%
D12*
%TO.C,C11*%
X131871682Y-81112000D03*
X134996682Y-81112000D03*
%TD*%
D16*
%TO.C,R23*%
X102324682Y-65828600D03*
X102324682Y-67478600D03*
%TD*%
D14*
%TO.C,R29*%
X110515682Y-74142600D03*
X108865682Y-74142600D03*
%TD*%
D13*
%TO.C,C12*%
X147515182Y-81112000D03*
X144390182Y-81112000D03*
%TD*%
D16*
%TO.C,R56*%
X142616682Y-65940000D03*
X142616682Y-67590000D03*
%TD*%
%TO.C,R21*%
X99276682Y-65828600D03*
X99276682Y-67478600D03*
%TD*%
D11*
%TO.C,R2*%
X94578682Y-75158600D03*
X96228682Y-75158600D03*
%TD*%
D14*
%TO.C,R34*%
X133472682Y-73746000D03*
X131822682Y-73746000D03*
%TD*%
D11*
%TO.C,R11*%
X94578682Y-72110600D03*
X96228682Y-72110600D03*
%TD*%
D15*
%TO.C,R40*%
X141092682Y-67590000D03*
X141092682Y-65940000D03*
%TD*%
D11*
%TO.C,R16*%
X108865682Y-69570600D03*
X110515682Y-69570600D03*
%TD*%
D16*
%TO.C,R25*%
X105372682Y-65828600D03*
X105372682Y-67478600D03*
%TD*%
D11*
%TO.C,R17*%
X108865682Y-72618600D03*
X110515682Y-72618600D03*
%TD*%
D15*
%TO.C,R15*%
X103848682Y-67478600D03*
X103848682Y-65828600D03*
%TD*%
D11*
%TO.C,R42*%
X146109682Y-69682000D03*
X147759682Y-69682000D03*
%TD*%
D14*
%TO.C,R12*%
X96228682Y-73634600D03*
X94578682Y-73634600D03*
%TD*%
%TO.C,R27*%
X110515682Y-71094600D03*
X108865682Y-71094600D03*
%TD*%
D11*
%TO.C,R46*%
X146109682Y-75778000D03*
X147759682Y-75778000D03*
%TD*%
%TO.C,R18*%
X108865682Y-75666600D03*
X110515682Y-75666600D03*
%TD*%
D17*
%TO.C,C10*%
X139835682Y-81874000D03*
X138285682Y-81874000D03*
%TD*%
D14*
%TO.C,R62*%
X147759682Y-77302000D03*
X146109682Y-77302000D03*
%TD*%
%TO.C,R36*%
X133472682Y-70698000D03*
X131822682Y-70698000D03*
%TD*%
M02*
