%TF.GenerationSoftware,KiCad,Pcbnew,(6.0.1)*%
%TF.CreationDate,2023-02-14T20:32:36-07:00*%
%TF.ProjectId,SPARC,53504152-432e-46b6-9963-61645f706362,01*%
%TF.SameCoordinates,Original*%
%TF.FileFunction,Legend,Bot*%
%TF.FilePolarity,Positive*%
%FSLAX46Y46*%
G04 Gerber Fmt 4.6, Leading zero omitted, Abs format (unit mm)*
G04 Created by KiCad (PCBNEW (6.0.1)) date 2023-02-14 20:32:36*
%MOMM*%
%LPD*%
G01*
G04 APERTURE LIST*
%ADD10C,0.200000*%
%ADD11C,0.150000*%
%ADD12C,0.062500*%
%ADD13C,0.100000*%
%ADD14C,0.120000*%
G04 APERTURE END LIST*
D10*
X88541595Y-59981149D02*
X87922547Y-59547816D01*
X88541595Y-59238292D02*
X87241595Y-59238292D01*
X87241595Y-59733530D01*
X87303500Y-59857340D01*
X87365404Y-59919245D01*
X87489214Y-59981149D01*
X87674928Y-59981149D01*
X87798738Y-59919245D01*
X87860642Y-59857340D01*
X87922547Y-59733530D01*
X87922547Y-59238292D01*
X88541595Y-61095435D02*
X87860642Y-61095435D01*
X87736833Y-61033530D01*
X87674928Y-60909721D01*
X87674928Y-60662102D01*
X87736833Y-60538292D01*
X88479690Y-61095435D02*
X88541595Y-60971626D01*
X88541595Y-60662102D01*
X88479690Y-60538292D01*
X88355880Y-60476388D01*
X88232071Y-60476388D01*
X88108261Y-60538292D01*
X88046357Y-60662102D01*
X88046357Y-60971626D01*
X87984452Y-61095435D01*
X87674928Y-61714483D02*
X88541595Y-61714483D01*
X87798738Y-61714483D02*
X87736833Y-61776388D01*
X87674928Y-61900197D01*
X87674928Y-62085911D01*
X87736833Y-62209721D01*
X87860642Y-62271626D01*
X88541595Y-62271626D01*
X88541595Y-63447816D02*
X87241595Y-63447816D01*
X88479690Y-63447816D02*
X88541595Y-63324007D01*
X88541595Y-63076388D01*
X88479690Y-62952578D01*
X88417785Y-62890673D01*
X88293976Y-62828769D01*
X87922547Y-62828769D01*
X87798738Y-62890673D01*
X87736833Y-62952578D01*
X87674928Y-63076388D01*
X87674928Y-63324007D01*
X87736833Y-63447816D01*
X87674928Y-63943054D02*
X88541595Y-64252578D01*
X87674928Y-64562102D02*
X88541595Y-64252578D01*
X88851119Y-64128769D01*
X88913023Y-64066864D01*
X88974928Y-63943054D01*
X88541595Y-66047816D02*
X87241595Y-66047816D01*
X87241595Y-66543054D01*
X87303500Y-66666864D01*
X87365404Y-66728769D01*
X87489214Y-66790673D01*
X87674928Y-66790673D01*
X87798738Y-66728769D01*
X87860642Y-66666864D01*
X87922547Y-66543054D01*
X87922547Y-66047816D01*
X88541595Y-67904959D02*
X87860642Y-67904959D01*
X87736833Y-67843054D01*
X87674928Y-67719245D01*
X87674928Y-67471626D01*
X87736833Y-67347816D01*
X88479690Y-67904959D02*
X88541595Y-67781149D01*
X88541595Y-67471626D01*
X88479690Y-67347816D01*
X88355880Y-67285911D01*
X88232071Y-67285911D01*
X88108261Y-67347816D01*
X88046357Y-67471626D01*
X88046357Y-67781149D01*
X87984452Y-67904959D01*
X88541595Y-68709721D02*
X88479690Y-68585911D01*
X88355880Y-68524007D01*
X87241595Y-68524007D01*
X88541595Y-69762102D02*
X87860642Y-69762102D01*
X87736833Y-69700197D01*
X87674928Y-69576388D01*
X87674928Y-69328769D01*
X87736833Y-69204959D01*
X88479690Y-69762102D02*
X88541595Y-69638292D01*
X88541595Y-69328769D01*
X88479690Y-69204959D01*
X88355880Y-69143054D01*
X88232071Y-69143054D01*
X88108261Y-69204959D01*
X88046357Y-69328769D01*
X88046357Y-69638292D01*
X87984452Y-69762102D01*
X88541595Y-70381149D02*
X87674928Y-70381149D01*
X87798738Y-70381149D02*
X87736833Y-70443054D01*
X87674928Y-70566864D01*
X87674928Y-70752578D01*
X87736833Y-70876388D01*
X87860642Y-70938292D01*
X88541595Y-70938292D01*
X87860642Y-70938292D02*
X87736833Y-71000197D01*
X87674928Y-71124007D01*
X87674928Y-71309721D01*
X87736833Y-71433530D01*
X87860642Y-71495435D01*
X88541595Y-71495435D01*
X88541595Y-72671626D02*
X87860642Y-72671626D01*
X87736833Y-72609721D01*
X87674928Y-72485911D01*
X87674928Y-72238292D01*
X87736833Y-72114483D01*
X88479690Y-72671626D02*
X88541595Y-72547816D01*
X88541595Y-72238292D01*
X88479690Y-72114483D01*
X88355880Y-72052578D01*
X88232071Y-72052578D01*
X88108261Y-72114483D01*
X88046357Y-72238292D01*
X88046357Y-72547816D01*
X87984452Y-72671626D01*
X88541595Y-73290673D02*
X87674928Y-73290673D01*
X87922547Y-73290673D02*
X87798738Y-73352578D01*
X87736833Y-73414483D01*
X87674928Y-73538292D01*
X87674928Y-73662102D01*
X87365404Y-75024007D02*
X87303500Y-75085911D01*
X87241595Y-75209721D01*
X87241595Y-75519245D01*
X87303500Y-75643054D01*
X87365404Y-75704959D01*
X87489214Y-75766864D01*
X87613023Y-75766864D01*
X87798738Y-75704959D01*
X88541595Y-74962102D01*
X88541595Y-75766864D01*
X87241595Y-76571626D02*
X87241595Y-76695435D01*
X87303500Y-76819245D01*
X87365404Y-76881149D01*
X87489214Y-76943054D01*
X87736833Y-77004959D01*
X88046357Y-77004959D01*
X88293976Y-76943054D01*
X88417785Y-76881149D01*
X88479690Y-76819245D01*
X88541595Y-76695435D01*
X88541595Y-76571626D01*
X88479690Y-76447816D01*
X88417785Y-76385911D01*
X88293976Y-76324007D01*
X88046357Y-76262102D01*
X87736833Y-76262102D01*
X87489214Y-76324007D01*
X87365404Y-76385911D01*
X87303500Y-76447816D01*
X87241595Y-76571626D01*
X87365404Y-77500197D02*
X87303500Y-77562102D01*
X87241595Y-77685911D01*
X87241595Y-77995435D01*
X87303500Y-78119245D01*
X87365404Y-78181149D01*
X87489214Y-78243054D01*
X87613023Y-78243054D01*
X87798738Y-78181149D01*
X88541595Y-77438292D01*
X88541595Y-78243054D01*
X87241595Y-78676388D02*
X87241595Y-79481149D01*
X87736833Y-79047816D01*
X87736833Y-79233530D01*
X87798738Y-79357340D01*
X87860642Y-79419245D01*
X87984452Y-79481149D01*
X88293976Y-79481149D01*
X88417785Y-79419245D01*
X88479690Y-79357340D01*
X88541595Y-79233530D01*
X88541595Y-78862102D01*
X88479690Y-78738292D01*
X88417785Y-78676388D01*
X89767928Y-58743054D02*
X90139357Y-57752578D01*
X90510785Y-58743054D01*
X89767928Y-59362102D02*
X91067928Y-59362102D01*
X89829833Y-59362102D02*
X89767928Y-59485911D01*
X89767928Y-59733530D01*
X89829833Y-59857340D01*
X89891738Y-59919245D01*
X90015547Y-59981149D01*
X90386976Y-59981149D01*
X90510785Y-59919245D01*
X90572690Y-59857340D01*
X90634595Y-59733530D01*
X90634595Y-59485911D01*
X90572690Y-59362102D01*
X90634595Y-61095435D02*
X89953642Y-61095435D01*
X89829833Y-61033530D01*
X89767928Y-60909721D01*
X89767928Y-60662102D01*
X89829833Y-60538292D01*
X90572690Y-61095435D02*
X90634595Y-60971626D01*
X90634595Y-60662102D01*
X90572690Y-60538292D01*
X90448880Y-60476388D01*
X90325071Y-60476388D01*
X90201261Y-60538292D01*
X90139357Y-60662102D01*
X90139357Y-60971626D01*
X90077452Y-61095435D01*
X90634595Y-61900197D02*
X90572690Y-61776388D01*
X90448880Y-61714483D01*
X89334595Y-61714483D01*
X90634595Y-62952578D02*
X89953642Y-62952578D01*
X89829833Y-62890673D01*
X89767928Y-62766864D01*
X89767928Y-62519245D01*
X89829833Y-62395435D01*
X90572690Y-62952578D02*
X90634595Y-62828769D01*
X90634595Y-62519245D01*
X90572690Y-62395435D01*
X90448880Y-62333530D01*
X90325071Y-62333530D01*
X90201261Y-62395435D01*
X90139357Y-62519245D01*
X90139357Y-62828769D01*
X90077452Y-62952578D01*
X90634595Y-63571626D02*
X89767928Y-63571626D01*
X89891738Y-63571626D02*
X89829833Y-63633530D01*
X89767928Y-63757340D01*
X89767928Y-63943054D01*
X89829833Y-64066864D01*
X89953642Y-64128769D01*
X90634595Y-64128769D01*
X89953642Y-64128769D02*
X89829833Y-64190673D01*
X89767928Y-64314483D01*
X89767928Y-64500197D01*
X89829833Y-64624007D01*
X89953642Y-64685911D01*
X90634595Y-64685911D01*
X90634595Y-65862102D02*
X89953642Y-65862102D01*
X89829833Y-65800197D01*
X89767928Y-65676388D01*
X89767928Y-65428769D01*
X89829833Y-65304959D01*
X90572690Y-65862102D02*
X90634595Y-65738292D01*
X90634595Y-65428769D01*
X90572690Y-65304959D01*
X90448880Y-65243054D01*
X90325071Y-65243054D01*
X90201261Y-65304959D01*
X90139357Y-65428769D01*
X90139357Y-65738292D01*
X90077452Y-65862102D01*
X90634595Y-66481149D02*
X89767928Y-66481149D01*
X90015547Y-66481149D02*
X89891738Y-66543054D01*
X89829833Y-66604959D01*
X89767928Y-66728769D01*
X89767928Y-66852578D01*
X90015547Y-68090673D02*
X89953642Y-68028769D01*
X89891738Y-67904959D01*
X89891738Y-67781149D01*
X89953642Y-67657340D01*
X90015547Y-67595435D01*
X90139357Y-67533530D01*
X90263166Y-67533530D01*
X90386976Y-67595435D01*
X90448880Y-67657340D01*
X90510785Y-67781149D01*
X90510785Y-67904959D01*
X90448880Y-68028769D01*
X90386976Y-68090673D01*
X89891738Y-68090673D02*
X90386976Y-68090673D01*
X90448880Y-68152578D01*
X90448880Y-68214483D01*
X90386976Y-68338292D01*
X90263166Y-68400197D01*
X89953642Y-68400197D01*
X89767928Y-68276388D01*
X89644119Y-68090673D01*
X89582214Y-67843054D01*
X89644119Y-67595435D01*
X89767928Y-67409721D01*
X89953642Y-67285911D01*
X90201261Y-67224007D01*
X90448880Y-67285911D01*
X90634595Y-67409721D01*
X90758404Y-67595435D01*
X90820309Y-67843054D01*
X90758404Y-68090673D01*
X90634595Y-68276388D01*
X89767928Y-69514483D02*
X90634595Y-69514483D01*
X89767928Y-68957340D02*
X90448880Y-68957340D01*
X90572690Y-69019245D01*
X90634595Y-69143054D01*
X90634595Y-69328769D01*
X90572690Y-69452578D01*
X90510785Y-69514483D01*
X90634595Y-70690673D02*
X89953642Y-70690673D01*
X89829833Y-70628769D01*
X89767928Y-70504959D01*
X89767928Y-70257340D01*
X89829833Y-70133530D01*
X90572690Y-70690673D02*
X90634595Y-70566864D01*
X90634595Y-70257340D01*
X90572690Y-70133530D01*
X90448880Y-70071626D01*
X90325071Y-70071626D01*
X90201261Y-70133530D01*
X90139357Y-70257340D01*
X90139357Y-70566864D01*
X90077452Y-70690673D01*
X90634595Y-71495435D02*
X90572690Y-71371626D01*
X90448880Y-71309721D01*
X89334595Y-71309721D01*
X90634595Y-71990673D02*
X89334595Y-71990673D01*
X89829833Y-71990673D02*
X89767928Y-72114483D01*
X89767928Y-72362102D01*
X89829833Y-72485911D01*
X89891738Y-72547816D01*
X90015547Y-72609721D01*
X90386976Y-72609721D01*
X90510785Y-72547816D01*
X90572690Y-72485911D01*
X90634595Y-72362102D01*
X90634595Y-72114483D01*
X90572690Y-71990673D01*
X90572690Y-73662102D02*
X90634595Y-73538292D01*
X90634595Y-73290673D01*
X90572690Y-73166864D01*
X90448880Y-73104959D01*
X89953642Y-73104959D01*
X89829833Y-73166864D01*
X89767928Y-73290673D01*
X89767928Y-73538292D01*
X89829833Y-73662102D01*
X89953642Y-73724007D01*
X90077452Y-73724007D01*
X90201261Y-73104959D01*
X90634595Y-74281149D02*
X89767928Y-74281149D01*
X90015547Y-74281149D02*
X89891738Y-74343054D01*
X89829833Y-74404959D01*
X89767928Y-74528769D01*
X89767928Y-74652578D01*
X89767928Y-74900197D02*
X89767928Y-75395435D01*
X89334595Y-75085911D02*
X90448880Y-75085911D01*
X90572690Y-75147816D01*
X90634595Y-75271626D01*
X90634595Y-75395435D01*
X90634595Y-76385911D02*
X89953642Y-76385911D01*
X89829833Y-76324007D01*
X89767928Y-76200197D01*
X89767928Y-75952578D01*
X89829833Y-75828769D01*
X90572690Y-76385911D02*
X90634595Y-76262102D01*
X90634595Y-75952578D01*
X90572690Y-75828769D01*
X90448880Y-75766864D01*
X90325071Y-75766864D01*
X90201261Y-75828769D01*
X90139357Y-75952578D01*
X90139357Y-76262102D01*
X90077452Y-76385911D01*
X90510785Y-77004959D02*
X90572690Y-77066864D01*
X90634595Y-77004959D01*
X90572690Y-76943054D01*
X90510785Y-77004959D01*
X90634595Y-77004959D01*
X90572690Y-78181149D02*
X90634595Y-78057340D01*
X90634595Y-77809721D01*
X90572690Y-77685911D01*
X90510785Y-77624007D01*
X90386976Y-77562102D01*
X90015547Y-77562102D01*
X89891738Y-77624007D01*
X89829833Y-77685911D01*
X89767928Y-77809721D01*
X89767928Y-78057340D01*
X89829833Y-78181149D01*
X90634595Y-79295435D02*
X89953642Y-79295435D01*
X89829833Y-79233530D01*
X89767928Y-79109721D01*
X89767928Y-78862102D01*
X89829833Y-78738292D01*
X90572690Y-79295435D02*
X90634595Y-79171626D01*
X90634595Y-78862102D01*
X90572690Y-78738292D01*
X90448880Y-78676388D01*
X90325071Y-78676388D01*
X90201261Y-78738292D01*
X90139357Y-78862102D01*
X90139357Y-79171626D01*
X90077452Y-79295435D01*
X89767928Y-79914483D02*
X90139357Y-80904959D01*
X90510785Y-79914483D01*
D11*
%TO.C,C9*%
X96838642Y-77049333D02*
X96886261Y-77001714D01*
X96933880Y-76858857D01*
X96933880Y-76763619D01*
X96886261Y-76620761D01*
X96791023Y-76525523D01*
X96695785Y-76477904D01*
X96505309Y-76430285D01*
X96362452Y-76430285D01*
X96171976Y-76477904D01*
X96076738Y-76525523D01*
X95981500Y-76620761D01*
X95933880Y-76763619D01*
X95933880Y-76858857D01*
X95981500Y-77001714D01*
X96029119Y-77049333D01*
X96933880Y-77525523D02*
X96933880Y-77716000D01*
X96886261Y-77811238D01*
X96838642Y-77858857D01*
X96695785Y-77954095D01*
X96505309Y-78001714D01*
X96124357Y-78001714D01*
X96029119Y-77954095D01*
X95981500Y-77906476D01*
X95933880Y-77811238D01*
X95933880Y-77620761D01*
X95981500Y-77525523D01*
X96029119Y-77477904D01*
X96124357Y-77430285D01*
X96362452Y-77430285D01*
X96457690Y-77477904D01*
X96505309Y-77525523D01*
X96552928Y-77620761D01*
X96552928Y-77811238D01*
X96505309Y-77906476D01*
X96457690Y-77954095D01*
X96362452Y-78001714D01*
%TO.C,C7*%
X109357142Y-77049333D02*
X109404761Y-77001714D01*
X109452380Y-76858857D01*
X109452380Y-76763619D01*
X109404761Y-76620761D01*
X109309523Y-76525523D01*
X109214285Y-76477904D01*
X109023809Y-76430285D01*
X108880952Y-76430285D01*
X108690476Y-76477904D01*
X108595238Y-76525523D01*
X108500000Y-76620761D01*
X108452380Y-76763619D01*
X108452380Y-76858857D01*
X108500000Y-77001714D01*
X108547619Y-77049333D01*
X108452380Y-77382666D02*
X108452380Y-78049333D01*
X109452380Y-77620761D01*
D12*
%TO.C,R31*%
X110045095Y-73245285D02*
X109926047Y-73161952D01*
X110045095Y-73102428D02*
X109795095Y-73102428D01*
X109795095Y-73197666D01*
X109807000Y-73221476D01*
X109818904Y-73233380D01*
X109842714Y-73245285D01*
X109878428Y-73245285D01*
X109902238Y-73233380D01*
X109914142Y-73221476D01*
X109926047Y-73197666D01*
X109926047Y-73102428D01*
X109795095Y-73328619D02*
X109795095Y-73483380D01*
X109890333Y-73400047D01*
X109890333Y-73435761D01*
X109902238Y-73459571D01*
X109914142Y-73471476D01*
X109937952Y-73483380D01*
X109997476Y-73483380D01*
X110021285Y-73471476D01*
X110033190Y-73459571D01*
X110045095Y-73435761D01*
X110045095Y-73364333D01*
X110033190Y-73340523D01*
X110021285Y-73328619D01*
X110045095Y-73721476D02*
X110045095Y-73578619D01*
X110045095Y-73650047D02*
X109795095Y-73650047D01*
X109830809Y-73626238D01*
X109854619Y-73602428D01*
X109866523Y-73578619D01*
%TO.C,R14*%
X101252714Y-62932095D02*
X101336047Y-62813047D01*
X101395571Y-62932095D02*
X101395571Y-62682095D01*
X101300333Y-62682095D01*
X101276523Y-62694000D01*
X101264619Y-62705904D01*
X101252714Y-62729714D01*
X101252714Y-62765428D01*
X101264619Y-62789238D01*
X101276523Y-62801142D01*
X101300333Y-62813047D01*
X101395571Y-62813047D01*
X101014619Y-62932095D02*
X101157476Y-62932095D01*
X101086047Y-62932095D02*
X101086047Y-62682095D01*
X101109857Y-62717809D01*
X101133666Y-62741619D01*
X101157476Y-62753523D01*
X100800333Y-62765428D02*
X100800333Y-62932095D01*
X100859857Y-62670190D02*
X100919380Y-62848761D01*
X100764619Y-62848761D01*
%TO.C,R13*%
X95758095Y-66641285D02*
X95639047Y-66557952D01*
X95758095Y-66498428D02*
X95508095Y-66498428D01*
X95508095Y-66593666D01*
X95520000Y-66617476D01*
X95531904Y-66629380D01*
X95555714Y-66641285D01*
X95591428Y-66641285D01*
X95615238Y-66629380D01*
X95627142Y-66617476D01*
X95639047Y-66593666D01*
X95639047Y-66498428D01*
X95758095Y-66879380D02*
X95758095Y-66736523D01*
X95758095Y-66807952D02*
X95508095Y-66807952D01*
X95543809Y-66784142D01*
X95567619Y-66760333D01*
X95579523Y-66736523D01*
X95508095Y-66962714D02*
X95508095Y-67117476D01*
X95603333Y-67034142D01*
X95603333Y-67069857D01*
X95615238Y-67093666D01*
X95627142Y-67105571D01*
X95650952Y-67117476D01*
X95710476Y-67117476D01*
X95734285Y-67105571D01*
X95746190Y-67093666D01*
X95758095Y-67069857D01*
X95758095Y-66998428D01*
X95746190Y-66974619D01*
X95734285Y-66962714D01*
D13*
%TO.C,C8*%
X102250857Y-77911333D02*
X102269904Y-77892285D01*
X102288952Y-77835142D01*
X102288952Y-77797047D01*
X102269904Y-77739904D01*
X102231809Y-77701809D01*
X102193714Y-77682761D01*
X102117523Y-77663714D01*
X102060380Y-77663714D01*
X101984190Y-77682761D01*
X101946095Y-77701809D01*
X101908000Y-77739904D01*
X101888952Y-77797047D01*
X101888952Y-77835142D01*
X101908000Y-77892285D01*
X101927047Y-77911333D01*
X102060380Y-78139904D02*
X102041333Y-78101809D01*
X102022285Y-78082761D01*
X101984190Y-78063714D01*
X101965142Y-78063714D01*
X101927047Y-78082761D01*
X101908000Y-78101809D01*
X101888952Y-78139904D01*
X101888952Y-78216095D01*
X101908000Y-78254190D01*
X101927047Y-78273238D01*
X101965142Y-78292285D01*
X101984190Y-78292285D01*
X102022285Y-78273238D01*
X102041333Y-78254190D01*
X102060380Y-78216095D01*
X102060380Y-78139904D01*
X102079428Y-78101809D01*
X102098476Y-78082761D01*
X102136571Y-78063714D01*
X102212761Y-78063714D01*
X102250857Y-78082761D01*
X102269904Y-78101809D01*
X102288952Y-78139904D01*
X102288952Y-78216095D01*
X102269904Y-78254190D01*
X102250857Y-78273238D01*
X102212761Y-78292285D01*
X102136571Y-78292285D01*
X102098476Y-78273238D01*
X102079428Y-78254190D01*
X102060380Y-78216095D01*
D12*
%TO.C,R23*%
X102776714Y-63032095D02*
X102860047Y-62913047D01*
X102919571Y-63032095D02*
X102919571Y-62782095D01*
X102824333Y-62782095D01*
X102800523Y-62794000D01*
X102788619Y-62805904D01*
X102776714Y-62829714D01*
X102776714Y-62865428D01*
X102788619Y-62889238D01*
X102800523Y-62901142D01*
X102824333Y-62913047D01*
X102919571Y-62913047D01*
X102681476Y-62805904D02*
X102669571Y-62794000D01*
X102645761Y-62782095D01*
X102586238Y-62782095D01*
X102562428Y-62794000D01*
X102550523Y-62805904D01*
X102538619Y-62829714D01*
X102538619Y-62853523D01*
X102550523Y-62889238D01*
X102693380Y-63032095D01*
X102538619Y-63032095D01*
X102455285Y-62782095D02*
X102300523Y-62782095D01*
X102383857Y-62877333D01*
X102348142Y-62877333D01*
X102324333Y-62889238D01*
X102312428Y-62901142D01*
X102300523Y-62924952D01*
X102300523Y-62984476D01*
X102312428Y-63008285D01*
X102324333Y-63020190D01*
X102348142Y-63032095D01*
X102419571Y-63032095D01*
X102443380Y-63020190D01*
X102455285Y-63008285D01*
%TO.C,R29*%
X110045095Y-70197285D02*
X109926047Y-70113952D01*
X110045095Y-70054428D02*
X109795095Y-70054428D01*
X109795095Y-70149666D01*
X109807000Y-70173476D01*
X109818904Y-70185380D01*
X109842714Y-70197285D01*
X109878428Y-70197285D01*
X109902238Y-70185380D01*
X109914142Y-70173476D01*
X109926047Y-70149666D01*
X109926047Y-70054428D01*
X109818904Y-70292523D02*
X109807000Y-70304428D01*
X109795095Y-70328238D01*
X109795095Y-70387761D01*
X109807000Y-70411571D01*
X109818904Y-70423476D01*
X109842714Y-70435380D01*
X109866523Y-70435380D01*
X109902238Y-70423476D01*
X110045095Y-70280619D01*
X110045095Y-70435380D01*
X110045095Y-70554428D02*
X110045095Y-70602047D01*
X110033190Y-70625857D01*
X110021285Y-70637761D01*
X109985571Y-70661571D01*
X109937952Y-70673476D01*
X109842714Y-70673476D01*
X109818904Y-70661571D01*
X109807000Y-70649666D01*
X109795095Y-70625857D01*
X109795095Y-70578238D01*
X109807000Y-70554428D01*
X109818904Y-70542523D01*
X109842714Y-70530619D01*
X109902238Y-70530619D01*
X109926047Y-70542523D01*
X109937952Y-70554428D01*
X109949857Y-70578238D01*
X109949857Y-70625857D01*
X109937952Y-70649666D01*
X109926047Y-70661571D01*
X109902238Y-70673476D01*
%TO.C,R21*%
X99728714Y-63032095D02*
X99812047Y-62913047D01*
X99871571Y-63032095D02*
X99871571Y-62782095D01*
X99776333Y-62782095D01*
X99752523Y-62794000D01*
X99740619Y-62805904D01*
X99728714Y-62829714D01*
X99728714Y-62865428D01*
X99740619Y-62889238D01*
X99752523Y-62901142D01*
X99776333Y-62913047D01*
X99871571Y-62913047D01*
X99633476Y-62805904D02*
X99621571Y-62794000D01*
X99597761Y-62782095D01*
X99538238Y-62782095D01*
X99514428Y-62794000D01*
X99502523Y-62805904D01*
X99490619Y-62829714D01*
X99490619Y-62853523D01*
X99502523Y-62889238D01*
X99645380Y-63032095D01*
X99490619Y-63032095D01*
X99252523Y-63032095D02*
X99395380Y-63032095D01*
X99323952Y-63032095D02*
X99323952Y-62782095D01*
X99347761Y-62817809D01*
X99371571Y-62841619D01*
X99395380Y-62853523D01*
%TO.C,R2*%
X95858095Y-71332333D02*
X95739047Y-71249000D01*
X95858095Y-71189476D02*
X95608095Y-71189476D01*
X95608095Y-71284714D01*
X95620000Y-71308523D01*
X95631904Y-71320428D01*
X95655714Y-71332333D01*
X95691428Y-71332333D01*
X95715238Y-71320428D01*
X95727142Y-71308523D01*
X95739047Y-71284714D01*
X95739047Y-71189476D01*
X95631904Y-71427571D02*
X95620000Y-71439476D01*
X95608095Y-71463285D01*
X95608095Y-71522809D01*
X95620000Y-71546619D01*
X95631904Y-71558523D01*
X95655714Y-71570428D01*
X95679523Y-71570428D01*
X95715238Y-71558523D01*
X95858095Y-71415666D01*
X95858095Y-71570428D01*
%TO.C,R11*%
X95858095Y-68165285D02*
X95739047Y-68081952D01*
X95858095Y-68022428D02*
X95608095Y-68022428D01*
X95608095Y-68117666D01*
X95620000Y-68141476D01*
X95631904Y-68153380D01*
X95655714Y-68165285D01*
X95691428Y-68165285D01*
X95715238Y-68153380D01*
X95727142Y-68141476D01*
X95739047Y-68117666D01*
X95739047Y-68022428D01*
X95858095Y-68403380D02*
X95858095Y-68260523D01*
X95858095Y-68331952D02*
X95608095Y-68331952D01*
X95643809Y-68308142D01*
X95667619Y-68284333D01*
X95679523Y-68260523D01*
X95858095Y-68641476D02*
X95858095Y-68498619D01*
X95858095Y-68570047D02*
X95608095Y-68570047D01*
X95643809Y-68546238D01*
X95667619Y-68522428D01*
X95679523Y-68498619D01*
%TO.C,R16*%
X110145095Y-65625285D02*
X110026047Y-65541952D01*
X110145095Y-65482428D02*
X109895095Y-65482428D01*
X109895095Y-65577666D01*
X109907000Y-65601476D01*
X109918904Y-65613380D01*
X109942714Y-65625285D01*
X109978428Y-65625285D01*
X110002238Y-65613380D01*
X110014142Y-65601476D01*
X110026047Y-65577666D01*
X110026047Y-65482428D01*
X110145095Y-65863380D02*
X110145095Y-65720523D01*
X110145095Y-65791952D02*
X109895095Y-65791952D01*
X109930809Y-65768142D01*
X109954619Y-65744333D01*
X109966523Y-65720523D01*
X109895095Y-66077666D02*
X109895095Y-66030047D01*
X109907000Y-66006238D01*
X109918904Y-65994333D01*
X109954619Y-65970523D01*
X110002238Y-65958619D01*
X110097476Y-65958619D01*
X110121285Y-65970523D01*
X110133190Y-65982428D01*
X110145095Y-66006238D01*
X110145095Y-66053857D01*
X110133190Y-66077666D01*
X110121285Y-66089571D01*
X110097476Y-66101476D01*
X110037952Y-66101476D01*
X110014142Y-66089571D01*
X110002238Y-66077666D01*
X109990333Y-66053857D01*
X109990333Y-66006238D01*
X110002238Y-65982428D01*
X110014142Y-65970523D01*
X110037952Y-65958619D01*
%TO.C,R25*%
X105824714Y-63032095D02*
X105908047Y-62913047D01*
X105967571Y-63032095D02*
X105967571Y-62782095D01*
X105872333Y-62782095D01*
X105848523Y-62794000D01*
X105836619Y-62805904D01*
X105824714Y-62829714D01*
X105824714Y-62865428D01*
X105836619Y-62889238D01*
X105848523Y-62901142D01*
X105872333Y-62913047D01*
X105967571Y-62913047D01*
X105729476Y-62805904D02*
X105717571Y-62794000D01*
X105693761Y-62782095D01*
X105634238Y-62782095D01*
X105610428Y-62794000D01*
X105598523Y-62805904D01*
X105586619Y-62829714D01*
X105586619Y-62853523D01*
X105598523Y-62889238D01*
X105741380Y-63032095D01*
X105586619Y-63032095D01*
X105360428Y-62782095D02*
X105479476Y-62782095D01*
X105491380Y-62901142D01*
X105479476Y-62889238D01*
X105455666Y-62877333D01*
X105396142Y-62877333D01*
X105372333Y-62889238D01*
X105360428Y-62901142D01*
X105348523Y-62924952D01*
X105348523Y-62984476D01*
X105360428Y-63008285D01*
X105372333Y-63020190D01*
X105396142Y-63032095D01*
X105455666Y-63032095D01*
X105479476Y-63020190D01*
X105491380Y-63008285D01*
%TO.C,R17*%
X110145095Y-68673285D02*
X110026047Y-68589952D01*
X110145095Y-68530428D02*
X109895095Y-68530428D01*
X109895095Y-68625666D01*
X109907000Y-68649476D01*
X109918904Y-68661380D01*
X109942714Y-68673285D01*
X109978428Y-68673285D01*
X110002238Y-68661380D01*
X110014142Y-68649476D01*
X110026047Y-68625666D01*
X110026047Y-68530428D01*
X110145095Y-68911380D02*
X110145095Y-68768523D01*
X110145095Y-68839952D02*
X109895095Y-68839952D01*
X109930809Y-68816142D01*
X109954619Y-68792333D01*
X109966523Y-68768523D01*
X109895095Y-68994714D02*
X109895095Y-69161380D01*
X110145095Y-69054238D01*
%TO.C,R15*%
X104300714Y-62932095D02*
X104384047Y-62813047D01*
X104443571Y-62932095D02*
X104443571Y-62682095D01*
X104348333Y-62682095D01*
X104324523Y-62694000D01*
X104312619Y-62705904D01*
X104300714Y-62729714D01*
X104300714Y-62765428D01*
X104312619Y-62789238D01*
X104324523Y-62801142D01*
X104348333Y-62813047D01*
X104443571Y-62813047D01*
X104062619Y-62932095D02*
X104205476Y-62932095D01*
X104134047Y-62932095D02*
X104134047Y-62682095D01*
X104157857Y-62717809D01*
X104181666Y-62741619D01*
X104205476Y-62753523D01*
X103836428Y-62682095D02*
X103955476Y-62682095D01*
X103967380Y-62801142D01*
X103955476Y-62789238D01*
X103931666Y-62777333D01*
X103872142Y-62777333D01*
X103848333Y-62789238D01*
X103836428Y-62801142D01*
X103824523Y-62824952D01*
X103824523Y-62884476D01*
X103836428Y-62908285D01*
X103848333Y-62920190D01*
X103872142Y-62932095D01*
X103931666Y-62932095D01*
X103955476Y-62920190D01*
X103967380Y-62908285D01*
%TO.C,R12*%
X95758095Y-69689285D02*
X95639047Y-69605952D01*
X95758095Y-69546428D02*
X95508095Y-69546428D01*
X95508095Y-69641666D01*
X95520000Y-69665476D01*
X95531904Y-69677380D01*
X95555714Y-69689285D01*
X95591428Y-69689285D01*
X95615238Y-69677380D01*
X95627142Y-69665476D01*
X95639047Y-69641666D01*
X95639047Y-69546428D01*
X95758095Y-69927380D02*
X95758095Y-69784523D01*
X95758095Y-69855952D02*
X95508095Y-69855952D01*
X95543809Y-69832142D01*
X95567619Y-69808333D01*
X95579523Y-69784523D01*
X95531904Y-70022619D02*
X95520000Y-70034523D01*
X95508095Y-70058333D01*
X95508095Y-70117857D01*
X95520000Y-70141666D01*
X95531904Y-70153571D01*
X95555714Y-70165476D01*
X95579523Y-70165476D01*
X95615238Y-70153571D01*
X95758095Y-70010714D01*
X95758095Y-70165476D01*
%TO.C,R27*%
X110045095Y-67149285D02*
X109926047Y-67065952D01*
X110045095Y-67006428D02*
X109795095Y-67006428D01*
X109795095Y-67101666D01*
X109807000Y-67125476D01*
X109818904Y-67137380D01*
X109842714Y-67149285D01*
X109878428Y-67149285D01*
X109902238Y-67137380D01*
X109914142Y-67125476D01*
X109926047Y-67101666D01*
X109926047Y-67006428D01*
X109818904Y-67244523D02*
X109807000Y-67256428D01*
X109795095Y-67280238D01*
X109795095Y-67339761D01*
X109807000Y-67363571D01*
X109818904Y-67375476D01*
X109842714Y-67387380D01*
X109866523Y-67387380D01*
X109902238Y-67375476D01*
X110045095Y-67232619D01*
X110045095Y-67387380D01*
X109795095Y-67470714D02*
X109795095Y-67637380D01*
X110045095Y-67530238D01*
%TO.C,R18*%
X110145095Y-71721285D02*
X110026047Y-71637952D01*
X110145095Y-71578428D02*
X109895095Y-71578428D01*
X109895095Y-71673666D01*
X109907000Y-71697476D01*
X109918904Y-71709380D01*
X109942714Y-71721285D01*
X109978428Y-71721285D01*
X110002238Y-71709380D01*
X110014142Y-71697476D01*
X110026047Y-71673666D01*
X110026047Y-71578428D01*
X110145095Y-71959380D02*
X110145095Y-71816523D01*
X110145095Y-71887952D02*
X109895095Y-71887952D01*
X109930809Y-71864142D01*
X109954619Y-71840333D01*
X109966523Y-71816523D01*
X110002238Y-72102238D02*
X109990333Y-72078428D01*
X109978428Y-72066523D01*
X109954619Y-72054619D01*
X109942714Y-72054619D01*
X109918904Y-72066523D01*
X109907000Y-72078428D01*
X109895095Y-72102238D01*
X109895095Y-72149857D01*
X109907000Y-72173666D01*
X109918904Y-72185571D01*
X109942714Y-72197476D01*
X109954619Y-72197476D01*
X109978428Y-72185571D01*
X109990333Y-72173666D01*
X110002238Y-72149857D01*
X110002238Y-72102238D01*
X110014142Y-72078428D01*
X110026047Y-72066523D01*
X110049857Y-72054619D01*
X110097476Y-72054619D01*
X110121285Y-72066523D01*
X110133190Y-72078428D01*
X110145095Y-72102238D01*
X110145095Y-72149857D01*
X110133190Y-72173666D01*
X110121285Y-72185571D01*
X110097476Y-72197476D01*
X110049857Y-72197476D01*
X110026047Y-72185571D01*
X110014142Y-72173666D01*
X110002238Y-72149857D01*
D14*
%TO.C,C9*%
X95770248Y-78576000D02*
X97192752Y-78576000D01*
X95770248Y-75856000D02*
X97192752Y-75856000D01*
%TO.C,C7*%
X109711252Y-75856000D02*
X108288748Y-75856000D01*
X109711252Y-78576000D02*
X108288748Y-78576000D01*
%TO.C,kibuzzard-63A22B4E*%
G36*
X112958016Y-53272160D02*
G01*
X113125351Y-53473601D01*
X113526102Y-54027831D01*
X113526102Y-54138677D01*
X113496259Y-54228206D01*
X113436572Y-54228206D01*
X112950555Y-53686766D01*
X112912186Y-53729399D01*
X112916449Y-54074727D01*
X112912186Y-54240996D01*
X112946292Y-55170397D01*
X112933502Y-55916475D01*
X112831183Y-56014531D01*
X112673441Y-55890895D01*
X112699020Y-55255663D01*
X112699020Y-54918861D01*
X112588174Y-53213539D01*
X112626544Y-53089903D01*
X112805603Y-53043007D01*
X112958016Y-53272160D01*
G37*
G36*
X106476811Y-54143110D02*
G01*
X106782916Y-54166132D01*
X106975447Y-54205866D01*
X107054404Y-54262312D01*
X106892398Y-54391277D01*
X106670706Y-54428581D01*
X105575037Y-54390212D01*
X105523877Y-54147203D01*
X106057131Y-54136801D01*
X106476811Y-54143110D01*
G37*
G36*
X93426747Y-53236987D02*
G01*
X93701730Y-53452284D01*
X93883454Y-53680904D01*
X93993767Y-53957486D01*
X94050788Y-54260714D01*
X94072638Y-54569270D01*
X94061980Y-54865037D01*
X94030005Y-55155475D01*
X93960726Y-55427794D01*
X93838156Y-55669203D01*
X93644176Y-55848262D01*
X93428879Y-55954845D01*
X93205588Y-55958042D01*
X93004680Y-55916475D01*
X92818693Y-55826946D01*
X92640167Y-55686256D01*
X92584744Y-55562621D01*
X92542111Y-55545567D01*
X92471767Y-55402747D01*
X92444055Y-55242873D01*
X92465372Y-55076604D01*
X92529321Y-55033971D01*
X92640167Y-55059551D01*
X92699854Y-55242873D01*
X92682800Y-55276979D01*
X92695590Y-55389957D01*
X92746750Y-55485881D01*
X92927940Y-55641492D01*
X93134711Y-55711836D01*
X93339349Y-55686256D01*
X93352139Y-55711836D01*
X93497092Y-55652150D01*
X93642044Y-55507198D01*
X93667624Y-55507198D01*
X93759818Y-55328139D01*
X93814708Y-55132027D01*
X93848281Y-54928454D01*
X93876526Y-54727013D01*
X93871730Y-54518111D01*
X93857341Y-54317735D01*
X93828031Y-54124821D01*
X93778470Y-53938301D01*
X93688940Y-53784822D01*
X93667624Y-53754979D01*
X93454459Y-53524761D01*
X93194397Y-53413915D01*
X92849069Y-53469338D01*
X92849069Y-53507707D01*
X92814963Y-53507707D01*
X92729697Y-53712346D01*
X92746750Y-53733662D01*
X92721170Y-53823192D01*
X92640167Y-53823192D01*
X92529321Y-53635606D01*
X92612456Y-53471469D01*
X92721170Y-53303069D01*
X92902361Y-53198618D01*
X93104868Y-53145326D01*
X93426747Y-53236987D01*
G37*
G36*
X97719896Y-55794971D02*
G01*
X97409208Y-55667605D01*
X97129428Y-55477355D01*
X97022845Y-55400615D01*
X96988739Y-55302559D01*
X96820338Y-55016917D01*
X96762784Y-54667326D01*
X96777959Y-54466951D01*
X96975949Y-54466951D01*
X96982344Y-54735539D01*
X97031372Y-54987074D01*
X97210431Y-55242873D01*
X97436386Y-55451775D01*
X97629834Y-55541837D01*
X97817952Y-55615912D01*
X98010334Y-55665473D01*
X98216571Y-55681993D01*
X98242151Y-55681993D01*
X98208577Y-55478420D01*
X98193123Y-55259926D01*
X98177668Y-55041432D01*
X98144095Y-54837859D01*
X98156885Y-54799489D01*
X98125976Y-54462688D01*
X98109988Y-54117360D01*
X98094001Y-53772032D01*
X98063092Y-53435231D01*
X97973563Y-53384071D01*
X97789175Y-53413382D01*
X97611182Y-53467206D01*
X97441715Y-53546610D01*
X97282907Y-53652660D01*
X97227484Y-53716609D01*
X97138488Y-53891938D01*
X97067610Y-54076859D01*
X97013786Y-54269240D01*
X96975949Y-54466951D01*
X96777959Y-54466951D01*
X96786232Y-54357704D01*
X96856577Y-54059805D01*
X96967422Y-53778960D01*
X97112375Y-53520497D01*
X97271183Y-53387269D01*
X97440649Y-53286015D01*
X97616511Y-53214605D01*
X97794504Y-53170906D01*
X98022591Y-53194354D01*
X98229361Y-53303069D01*
X98261336Y-53579517D01*
X98289047Y-53858897D01*
X98312495Y-54141208D01*
X98331680Y-54426450D01*
X98350865Y-54711691D01*
X98374313Y-54994002D01*
X98402025Y-55273382D01*
X98434000Y-55549831D01*
X98421210Y-55600990D01*
X98434000Y-55728890D01*
X98434000Y-55861052D01*
X98382840Y-55980425D01*
X98048703Y-55889296D01*
X97719896Y-55794971D01*
G37*
G36*
X103494543Y-53209276D02*
G01*
X103558493Y-53541814D01*
X103532913Y-53746452D01*
X103537177Y-54061937D01*
X103588336Y-54313472D01*
X103592599Y-54309209D01*
X104112723Y-54360368D01*
X104654163Y-54360368D01*
X104653097Y-54155197D01*
X104649899Y-53940433D01*
X104638175Y-53722471D01*
X104611530Y-53507707D01*
X104624319Y-53401125D01*
X104735165Y-53337175D01*
X104816168Y-53401125D01*
X104846677Y-53692761D01*
X104869992Y-53983599D01*
X104886113Y-54273637D01*
X104895039Y-54562875D01*
X104902100Y-54851315D01*
X104912626Y-55138955D01*
X104926614Y-55425795D01*
X104944067Y-55711836D01*
X104944067Y-55848262D01*
X104875854Y-55971898D01*
X104726639Y-55865315D01*
X104719178Y-55539705D01*
X104696796Y-55219425D01*
X104674413Y-54909802D01*
X104666953Y-54616167D01*
X104428207Y-54628957D01*
X104185199Y-54616167D01*
X103733289Y-54616167D01*
X103669339Y-54582060D01*
X103609653Y-54594850D01*
X103601126Y-54624693D01*
X103613916Y-54970021D01*
X103601126Y-55059551D01*
X103613916Y-55618044D01*
X103601126Y-55933528D01*
X103537177Y-56010268D01*
X103417804Y-55937792D01*
X103405014Y-55899422D01*
X103370908Y-55899422D01*
X103358118Y-55554094D01*
X103370908Y-55285506D01*
X103358118Y-55080867D01*
X103358118Y-54420055D01*
X103298431Y-54032094D01*
X103315485Y-53827455D01*
X103298431Y-53384071D01*
X103309090Y-53256172D01*
X103387961Y-53158116D01*
X103494543Y-53209276D01*
G37*
G36*
X95296207Y-55127763D02*
G01*
X95121411Y-55072340D01*
X94963669Y-55072340D01*
X94746240Y-55873842D01*
X94660974Y-55873842D01*
X94562918Y-55720363D01*
X94622604Y-55496006D01*
X94690817Y-55283374D01*
X94749438Y-55066478D01*
X94780347Y-54829332D01*
X94838362Y-54744242D01*
X95067085Y-54744242D01*
X95172571Y-54761119D01*
X95279153Y-54808016D01*
X95313260Y-54769646D01*
X95317523Y-54782436D01*
X95313260Y-54782436D01*
X95492319Y-54808016D01*
X95607428Y-54748329D01*
X95790750Y-54803752D01*
X95800084Y-54787750D01*
X95711879Y-54507452D01*
X95620218Y-54198363D01*
X95534952Y-53905261D01*
X95458212Y-53648396D01*
X95462476Y-53627080D01*
X95407053Y-53588710D01*
X95315924Y-53847706D01*
X95230125Y-54138677D01*
X95147524Y-54444569D01*
X95067085Y-54744242D01*
X94838362Y-54744242D01*
X94844296Y-54735539D01*
X95193887Y-53482127D01*
X95210941Y-53482127D01*
X95266364Y-53217803D01*
X95334576Y-53068587D01*
X95505109Y-53230592D01*
X95623149Y-53546743D01*
X95734261Y-53868490D01*
X95838446Y-54195831D01*
X95935703Y-54528769D01*
X96030028Y-54863838D01*
X96125420Y-55197575D01*
X96221877Y-55529980D01*
X96319400Y-55861052D01*
X96319400Y-56006004D01*
X96238397Y-56087007D01*
X96157394Y-56027321D01*
X96087050Y-55788576D01*
X96020969Y-55541304D01*
X95955953Y-55307888D01*
X95888806Y-55110710D01*
X95876016Y-55123500D01*
X95692694Y-55072340D01*
X95615955Y-55089394D01*
X95607428Y-55076604D01*
X95300470Y-55123500D01*
X95296207Y-55127763D01*
G37*
G36*
X107860168Y-53209276D02*
G01*
X107924118Y-53541814D01*
X107898538Y-53746452D01*
X107902802Y-54061937D01*
X107953961Y-54313472D01*
X107958224Y-54309209D01*
X108478348Y-54360368D01*
X109019788Y-54360368D01*
X109018722Y-54155197D01*
X109015524Y-53940433D01*
X109003800Y-53722471D01*
X108977155Y-53507707D01*
X108989944Y-53401125D01*
X109100790Y-53337175D01*
X109181793Y-53401125D01*
X109212302Y-53692761D01*
X109235617Y-53983599D01*
X109251738Y-54273637D01*
X109260664Y-54562875D01*
X109267725Y-54851315D01*
X109278251Y-55138955D01*
X109292239Y-55425795D01*
X109309692Y-55711836D01*
X109309692Y-55848262D01*
X109241479Y-55971898D01*
X109092264Y-55865315D01*
X109084803Y-55539705D01*
X109062421Y-55219425D01*
X109040038Y-54909802D01*
X109032578Y-54616167D01*
X108793832Y-54628957D01*
X108550824Y-54616167D01*
X108098914Y-54616167D01*
X108034964Y-54582060D01*
X107975278Y-54594850D01*
X107966751Y-54624693D01*
X107979541Y-54970021D01*
X107966751Y-55059551D01*
X107979541Y-55618044D01*
X107966751Y-55933528D01*
X107902802Y-56010268D01*
X107783429Y-55937792D01*
X107770639Y-55899422D01*
X107736533Y-55899422D01*
X107723743Y-55554094D01*
X107736533Y-55285506D01*
X107723743Y-55080867D01*
X107723743Y-54420055D01*
X107664056Y-54032094D01*
X107681110Y-53827455D01*
X107664056Y-53384071D01*
X107674715Y-53256172D01*
X107753586Y-53158116D01*
X107860168Y-53209276D01*
G37*
G36*
X110889247Y-53236987D02*
G01*
X111164230Y-53452284D01*
X111345954Y-53680904D01*
X111456267Y-53957486D01*
X111513288Y-54260714D01*
X111535138Y-54569270D01*
X111524480Y-54865037D01*
X111492505Y-55155475D01*
X111423226Y-55427794D01*
X111300656Y-55669203D01*
X111106676Y-55848262D01*
X110891379Y-55954845D01*
X110668088Y-55958042D01*
X110467180Y-55916475D01*
X110281193Y-55826946D01*
X110102667Y-55686256D01*
X110047244Y-55562621D01*
X110004611Y-55545567D01*
X109934267Y-55402747D01*
X109906555Y-55242873D01*
X109927872Y-55076604D01*
X109991821Y-55033971D01*
X110102667Y-55059551D01*
X110162354Y-55242873D01*
X110145300Y-55276979D01*
X110158090Y-55389957D01*
X110209250Y-55485881D01*
X110390440Y-55641492D01*
X110597211Y-55711836D01*
X110801849Y-55686256D01*
X110814639Y-55711836D01*
X110959592Y-55652150D01*
X111104544Y-55507198D01*
X111130124Y-55507198D01*
X111222318Y-55328139D01*
X111277208Y-55132027D01*
X111310781Y-54928454D01*
X111339026Y-54727013D01*
X111334230Y-54518111D01*
X111319841Y-54317735D01*
X111290531Y-54124821D01*
X111240970Y-53938301D01*
X111151440Y-53784822D01*
X111130124Y-53754979D01*
X110916959Y-53524761D01*
X110656897Y-53413915D01*
X110311569Y-53469338D01*
X110311569Y-53507707D01*
X110277463Y-53507707D01*
X110192197Y-53712346D01*
X110209250Y-53733662D01*
X110183670Y-53823192D01*
X110102667Y-53823192D01*
X109991821Y-53635606D01*
X110074956Y-53471469D01*
X110183670Y-53303069D01*
X110364861Y-53198618D01*
X110567368Y-53145326D01*
X110889247Y-53236987D01*
G37*
G36*
X101226465Y-53441626D02*
G01*
X101307468Y-53503444D01*
X101294678Y-53588710D01*
X101397234Y-53933327D01*
X101517317Y-54267997D01*
X101654927Y-54592719D01*
X101795379Y-54913651D01*
X101923989Y-55236951D01*
X102040756Y-55562621D01*
X102074863Y-55571147D01*
X102089412Y-55640984D01*
X102160928Y-55415137D01*
X102244329Y-55156008D01*
X102329329Y-54896079D01*
X102415927Y-54635352D01*
X102500127Y-54372492D01*
X102577933Y-54106169D01*
X102649343Y-53836382D01*
X102714359Y-53563130D01*
X102808151Y-53430968D01*
X102880627Y-53430968D01*
X102957367Y-53541814D01*
X102887156Y-53853435D01*
X102808684Y-54161592D01*
X102721953Y-54466285D01*
X102626961Y-54767514D01*
X102527706Y-55067145D01*
X102428184Y-55367041D01*
X102328396Y-55667205D01*
X102228342Y-55967635D01*
X102207025Y-55967635D01*
X102177182Y-56010268D01*
X102130286Y-56040111D01*
X102023703Y-56018794D01*
X101895004Y-55712502D01*
X101764707Y-55407543D01*
X101632811Y-55103916D01*
X101499316Y-54801621D01*
X101369552Y-54497194D01*
X101248847Y-54187172D01*
X101137202Y-53871554D01*
X101034616Y-53550340D01*
X101034616Y-53490654D01*
X101119882Y-53413915D01*
X101226465Y-53441626D01*
G37*
G36*
X99928374Y-54143110D02*
G01*
X100234479Y-54166132D01*
X100427010Y-54205866D01*
X100505966Y-54262312D01*
X100343961Y-54391277D01*
X100122269Y-54428581D01*
X99026599Y-54390212D01*
X98975439Y-54147203D01*
X99508694Y-54136801D01*
X99928374Y-54143110D01*
G37*
%TO.C,C8*%
X102248580Y-77468000D02*
X101967420Y-77468000D01*
X102248580Y-78488000D02*
X101967420Y-78488000D01*
%TD*%
M02*
