%TF.GenerationSoftware,KiCad,Pcbnew,(6.0.1)*%
%TF.CreationDate,2023-02-14T20:32:36-07:00*%
%TF.ProjectId,SPARC,53504152-432e-46b6-9963-61645f706362,01*%
%TF.SameCoordinates,Original*%
%TF.FileFunction,Soldermask,Top*%
%TF.FilePolarity,Negative*%
%FSLAX46Y46*%
G04 Gerber Fmt 4.6, Leading zero omitted, Abs format (unit mm)*
G04 Created by KiCad (PCBNEW (6.0.1)) date 2023-02-14 20:32:36*
%MOMM*%
%LPD*%
G01*
G04 APERTURE LIST*
G04 Aperture macros list*
%AMRoundRect*
0 Rectangle with rounded corners*
0 $1 Rounding radius*
0 $2 $3 $4 $5 $6 $7 $8 $9 X,Y pos of 4 corners*
0 Add a 4 corners polygon primitive as box body*
4,1,4,$2,$3,$4,$5,$6,$7,$8,$9,$2,$3,0*
0 Add four circle primitives for the rounded corners*
1,1,$1+$1,$2,$3*
1,1,$1+$1,$4,$5*
1,1,$1+$1,$6,$7*
1,1,$1+$1,$8,$9*
0 Add four rect primitives between the rounded corners*
20,1,$1+$1,$2,$3,$4,$5,0*
20,1,$1+$1,$4,$5,$6,$7,0*
20,1,$1+$1,$6,$7,$8,$9,0*
20,1,$1+$1,$8,$9,$2,$3,0*%
G04 Aperture macros list end*
%ADD10RoundRect,0.200000X0.200000X0.275000X-0.200000X0.275000X-0.200000X-0.275000X0.200000X-0.275000X0*%
%ADD11R,1.750000X0.750000*%
%ADD12RoundRect,0.250000X0.325000X1.100000X-0.325000X1.100000X-0.325000X-1.100000X0.325000X-1.100000X0*%
%ADD13R,2.290000X5.080000*%
%ADD14R,2.420000X5.080000*%
%ADD15RoundRect,0.200000X-0.275000X0.200000X-0.275000X-0.200000X0.275000X-0.200000X0.275000X0.200000X0*%
%ADD16RoundRect,0.200000X0.275000X-0.200000X0.275000X0.200000X-0.275000X0.200000X-0.275000X-0.200000X0*%
%ADD17C,2.000000*%
%ADD18RoundRect,0.200000X-0.200000X-0.275000X0.200000X-0.275000X0.200000X0.275000X-0.200000X0.275000X0*%
%ADD19RoundRect,0.062500X-0.350000X-0.062500X0.350000X-0.062500X0.350000X0.062500X-0.350000X0.062500X0*%
%ADD20RoundRect,0.062500X-0.062500X-0.350000X0.062500X-0.350000X0.062500X0.350000X-0.062500X0.350000X0*%
%ADD21R,7.150000X7.150000*%
%ADD22R,1.700000X1.700000*%
%ADD23O,1.700000X1.700000*%
G04 APERTURE END LIST*
D10*
%TO.C,R3*%
X96520000Y-71374000D03*
X94870000Y-71374000D03*
%TD*%
D11*
%TO.C,D1*%
X106550000Y-56170000D03*
X100050000Y-56170000D03*
X106550000Y-53630000D03*
X100050000Y-53630000D03*
%TD*%
D12*
%TO.C,C6*%
X91675000Y-67978769D03*
X88725000Y-67978769D03*
%TD*%
D13*
%TO.C,J2*%
X110900000Y-47370000D03*
D14*
X106520000Y-47370000D03*
X115280000Y-47370000D03*
%TD*%
D10*
%TO.C,R1*%
X96525000Y-74424000D03*
X94875000Y-74424000D03*
%TD*%
D12*
%TO.C,C4*%
X91675000Y-58788769D03*
X88725000Y-58788769D03*
%TD*%
D15*
%TO.C,R6*%
X101092000Y-62044000D03*
X101092000Y-63694000D03*
%TD*%
D16*
%TO.C,R26*%
X105664000Y-63694000D03*
X105664000Y-62044000D03*
%TD*%
D17*
%TO.C,REF\u002A\u002A*%
X86400000Y-81628769D03*
%TD*%
D10*
%TO.C,R8*%
X110807000Y-65786000D03*
X109157000Y-65786000D03*
%TD*%
D17*
%TO.C,REF\u002A\u002A*%
X120400000Y-81628769D03*
%TD*%
D18*
%TO.C,R28*%
X109157000Y-67310000D03*
X110807000Y-67310000D03*
%TD*%
D17*
%TO.C,REF\u002A\u002A*%
X86400000Y-47628769D03*
%TD*%
D15*
%TO.C,R7*%
X104140000Y-62044000D03*
X104140000Y-63694000D03*
%TD*%
D13*
%TO.C,J1*%
X95780000Y-47370000D03*
D14*
X100160000Y-47370000D03*
X91400000Y-47370000D03*
%TD*%
D12*
%TO.C,C1*%
X118075000Y-58528769D03*
X115125000Y-58528769D03*
%TD*%
%TO.C,C5*%
X91675000Y-63378769D03*
X88725000Y-63378769D03*
%TD*%
%TO.C,C3*%
X118075000Y-67978769D03*
X115125000Y-67978769D03*
%TD*%
D16*
%TO.C,R22*%
X99568000Y-63694000D03*
X99568000Y-62044000D03*
%TD*%
%TO.C,R24*%
X102616000Y-63694000D03*
X102616000Y-62044000D03*
%TD*%
D10*
%TO.C,R20*%
X96525000Y-72900000D03*
X94875000Y-72900000D03*
%TD*%
D18*
%TO.C,R4*%
X94870000Y-69850000D03*
X96520000Y-69850000D03*
%TD*%
%TO.C,R30*%
X109157000Y-70358000D03*
X110807000Y-70358000D03*
%TD*%
D10*
%TO.C,R19*%
X96520000Y-68326000D03*
X94870000Y-68326000D03*
%TD*%
D19*
%TO.C,U1*%
X98432500Y-66354000D03*
X98432500Y-66854000D03*
X98432500Y-67354000D03*
X98432500Y-67854000D03*
X98432500Y-68354000D03*
X98432500Y-68854000D03*
X98432500Y-69354000D03*
X98432500Y-69854000D03*
X98432500Y-70354000D03*
X98432500Y-70854000D03*
X98432500Y-71354000D03*
X98432500Y-71854000D03*
X98432500Y-72354000D03*
X98432500Y-72854000D03*
X98432500Y-73354000D03*
X98432500Y-73854000D03*
D20*
X99120000Y-74541500D03*
X99620000Y-74541500D03*
X100120000Y-74541500D03*
X100620000Y-74541500D03*
X101120000Y-74541500D03*
X101620000Y-74541500D03*
X102120000Y-74541500D03*
X102620000Y-74541500D03*
X103120000Y-74541500D03*
X103620000Y-74541500D03*
X104120000Y-74541500D03*
X104620000Y-74541500D03*
X105120000Y-74541500D03*
X105620000Y-74541500D03*
X106120000Y-74541500D03*
X106620000Y-74541500D03*
D19*
X107307500Y-73854000D03*
X107307500Y-73354000D03*
X107307500Y-72854000D03*
X107307500Y-72354000D03*
X107307500Y-71854000D03*
X107307500Y-71354000D03*
X107307500Y-70854000D03*
X107307500Y-70354000D03*
X107307500Y-69854000D03*
X107307500Y-69354000D03*
X107307500Y-68854000D03*
X107307500Y-68354000D03*
X107307500Y-67854000D03*
X107307500Y-67354000D03*
X107307500Y-66854000D03*
X107307500Y-66354000D03*
D20*
X106620000Y-65666500D03*
X106120000Y-65666500D03*
X105620000Y-65666500D03*
X105120000Y-65666500D03*
X104620000Y-65666500D03*
X104120000Y-65666500D03*
X103620000Y-65666500D03*
X103120000Y-65666500D03*
X102620000Y-65666500D03*
X102120000Y-65666500D03*
X101620000Y-65666500D03*
X101120000Y-65666500D03*
X100620000Y-65666500D03*
X100120000Y-65666500D03*
X99620000Y-65666500D03*
X99120000Y-65666500D03*
D21*
X102870000Y-70104000D03*
%TD*%
D22*
%TO.C,J4*%
X115824000Y-72898000D03*
D23*
X115824000Y-75438000D03*
X115824000Y-77978000D03*
%TD*%
D18*
%TO.C,R5*%
X94870000Y-66802000D03*
X96520000Y-66802000D03*
%TD*%
D22*
%TO.C,J3*%
X110340000Y-82208769D03*
D23*
X107800000Y-82208769D03*
X105260000Y-82208769D03*
X102720000Y-82208769D03*
X100180000Y-82208769D03*
X97640000Y-82208769D03*
%TD*%
D12*
%TO.C,C2*%
X118075000Y-63228769D03*
X115125000Y-63228769D03*
%TD*%
D10*
%TO.C,R9*%
X110807000Y-68834000D03*
X109157000Y-68834000D03*
%TD*%
D17*
%TO.C,REF\u002A\u002A*%
X120400000Y-47628769D03*
%TD*%
D10*
%TO.C,R10*%
X110807000Y-71882000D03*
X109157000Y-71882000D03*
%TD*%
M02*
