%TF.GenerationSoftware,KiCad,Pcbnew,(6.0.1)*%
%TF.CreationDate,2023-02-14T20:32:36-07:00*%
%TF.ProjectId,SPARC,53504152-432e-46b6-9963-61645f706362,01*%
%TF.SameCoordinates,Original*%
%TF.FileFunction,Copper,L4,Bot*%
%TF.FilePolarity,Positive*%
%FSLAX46Y46*%
G04 Gerber Fmt 4.6, Leading zero omitted, Abs format (unit mm)*
G04 Created by KiCad (PCBNEW (6.0.1)) date 2023-02-14 20:32:36*
%MOMM*%
%LPD*%
G01*
G04 APERTURE LIST*
G04 Aperture macros list*
%AMRoundRect*
0 Rectangle with rounded corners*
0 $1 Rounding radius*
0 $2 $3 $4 $5 $6 $7 $8 $9 X,Y pos of 4 corners*
0 Add a 4 corners polygon primitive as box body*
4,1,4,$2,$3,$4,$5,$6,$7,$8,$9,$2,$3,0*
0 Add four circle primitives for the rounded corners*
1,1,$1+$1,$2,$3*
1,1,$1+$1,$4,$5*
1,1,$1+$1,$6,$7*
1,1,$1+$1,$8,$9*
0 Add four rect primitives between the rounded corners*
20,1,$1+$1,$2,$3,$4,$5,0*
20,1,$1+$1,$4,$5,$6,$7,0*
20,1,$1+$1,$6,$7,$8,$9,0*
20,1,$1+$1,$8,$9,$2,$3,0*%
G04 Aperture macros list end*
%TA.AperFunction,ComponentPad*%
%ADD10C,0.970000*%
%TD*%
%TA.AperFunction,SMDPad,CuDef*%
%ADD11R,2.420000X5.080000*%
%TD*%
%TA.AperFunction,SMDPad,CuDef*%
%ADD12R,0.460000X0.950000*%
%TD*%
%TA.AperFunction,ComponentPad*%
%ADD13C,0.500000*%
%TD*%
%TA.AperFunction,SMDPad,CuDef*%
%ADD14R,7.150000X7.150000*%
%TD*%
%TA.AperFunction,ComponentPad*%
%ADD15R,1.700000X1.700000*%
%TD*%
%TA.AperFunction,ComponentPad*%
%ADD16O,1.700000X1.700000*%
%TD*%
%TA.AperFunction,SMDPad,CuDef*%
%ADD17RoundRect,0.250000X-0.412500X-1.100000X0.412500X-1.100000X0.412500X1.100000X-0.412500X1.100000X0*%
%TD*%
%TA.AperFunction,SMDPad,CuDef*%
%ADD18RoundRect,0.250000X0.412500X1.100000X-0.412500X1.100000X-0.412500X-1.100000X0.412500X-1.100000X0*%
%TD*%
%TA.AperFunction,SMDPad,CuDef*%
%ADD19RoundRect,0.200000X0.200000X0.275000X-0.200000X0.275000X-0.200000X-0.275000X0.200000X-0.275000X0*%
%TD*%
%TA.AperFunction,SMDPad,CuDef*%
%ADD20RoundRect,0.200000X0.275000X-0.200000X0.275000X0.200000X-0.275000X0.200000X-0.275000X-0.200000X0*%
%TD*%
%TA.AperFunction,SMDPad,CuDef*%
%ADD21RoundRect,0.225000X0.225000X0.250000X-0.225000X0.250000X-0.225000X-0.250000X0.225000X-0.250000X0*%
%TD*%
%TA.AperFunction,SMDPad,CuDef*%
%ADD22RoundRect,0.200000X-0.275000X0.200000X-0.275000X-0.200000X0.275000X-0.200000X0.275000X0.200000X0*%
%TD*%
%TA.AperFunction,SMDPad,CuDef*%
%ADD23RoundRect,0.200000X-0.200000X-0.275000X0.200000X-0.275000X0.200000X0.275000X-0.200000X0.275000X0*%
%TD*%
%TA.AperFunction,ViaPad*%
%ADD24C,0.550000*%
%TD*%
%TA.AperFunction,ViaPad*%
%ADD25C,0.600000*%
%TD*%
%TA.AperFunction,ViaPad*%
%ADD26C,0.800000*%
%TD*%
%TA.AperFunction,Conductor*%
%ADD27C,0.400000*%
%TD*%
%TA.AperFunction,Conductor*%
%ADD28C,0.250000*%
%TD*%
G04 APERTURE END LIST*
D10*
%TO.P,J2,2,Ext*%
%TO.N,GND*%
X106520000Y-50810000D03*
D11*
X106520000Y-47370000D03*
D12*
X115280000Y-50360000D03*
X106520000Y-50360000D03*
D10*
X115280000Y-50810000D03*
D11*
X115280000Y-47370000D03*
%TD*%
D12*
%TO.P,J1,2,Ext*%
%TO.N,GND*%
X91400000Y-50360000D03*
D11*
X100160000Y-47370000D03*
D12*
X100160000Y-50360000D03*
D10*
X91400000Y-50810000D03*
X100160000Y-50810000D03*
D11*
X91400000Y-47370000D03*
%TD*%
D13*
%TO.P,U1,65,VSUB(VNN)*%
%TO.N,/VNN*%
X106195000Y-68995667D03*
X106195000Y-73429000D03*
X99545000Y-71212333D03*
X101761667Y-71212333D03*
D14*
X102870000Y-70104000D03*
D13*
X103978333Y-68995667D03*
X103978333Y-73429000D03*
X101761667Y-73429000D03*
X106195000Y-71212333D03*
X101761667Y-66779000D03*
X103978333Y-66779000D03*
X99545000Y-73429000D03*
X103978333Y-71212333D03*
X106195000Y-66779000D03*
X99545000Y-66779000D03*
X101761667Y-68995667D03*
X99545000Y-68995667D03*
%TD*%
D15*
%TO.P,J4,1,Pin_1*%
%TO.N,/VB7*%
X115824000Y-72898000D03*
D16*
%TO.P,J4,2,Pin_2*%
%TO.N,GND*%
X115824000Y-75438000D03*
%TO.P,J4,3,Pin_3*%
X115824000Y-77978000D03*
%TD*%
D15*
%TO.P,J3,1,Pin_1*%
%TO.N,/DOUT*%
X110340000Y-82208769D03*
D16*
%TO.P,J3,2,Pin_2*%
%TO.N,/CLK*%
X107800000Y-82208769D03*
%TO.P,J3,3,Pin_3*%
%TO.N,/DIN*%
X105260000Y-82208769D03*
%TO.P,J3,4,Pin_4*%
%TO.N,/CLR*%
X102720000Y-82208769D03*
%TO.P,J3,5,Pin_5*%
%TO.N,/~{LE}*%
X100180000Y-82208769D03*
%TO.P,J3,6,Pin_6*%
%TO.N,/VDD*%
X97640000Y-82208769D03*
%TD*%
D17*
%TO.P,C9,1*%
%TO.N,GND*%
X94919000Y-77216000D03*
%TO.P,C9,2*%
%TO.N,/VNN*%
X98044000Y-77216000D03*
%TD*%
D18*
%TO.P,C7,1*%
%TO.N,GND*%
X110562500Y-77216000D03*
%TO.P,C7,2*%
%TO.N,/VPP*%
X107437500Y-77216000D03*
%TD*%
D19*
%TO.P,R31,1*%
%TO.N,GND*%
X110807000Y-73406000D03*
%TO.P,R31,2*%
%TO.N,Net-(R31-Pad2)*%
X109157000Y-73406000D03*
%TD*%
D20*
%TO.P,R14,1*%
%TO.N,/VB3*%
X101092000Y-63694000D03*
%TO.P,R14,2*%
%TO.N,/VB2*%
X101092000Y-62044000D03*
%TD*%
D19*
%TO.P,R13,1*%
%TO.N,/VB2*%
X96520000Y-66802000D03*
%TO.P,R13,2*%
%TO.N,/VB1*%
X94870000Y-66802000D03*
%TD*%
D21*
%TO.P,C8,1*%
%TO.N,/VDD*%
X102883000Y-77978000D03*
%TO.P,C8,2*%
%TO.N,GND*%
X101333000Y-77978000D03*
%TD*%
D22*
%TO.P,R23,1*%
%TO.N,GND*%
X102616000Y-62044000D03*
%TO.P,R23,2*%
%TO.N,Net-(R23-Pad2)*%
X102616000Y-63694000D03*
%TD*%
D19*
%TO.P,R29,1*%
%TO.N,GND*%
X110807000Y-70358000D03*
%TO.P,R29,2*%
%TO.N,Net-(R29-Pad2)*%
X109157000Y-70358000D03*
%TD*%
D22*
%TO.P,R21,1*%
%TO.N,GND*%
X99568000Y-62044000D03*
%TO.P,R21,2*%
%TO.N,Net-(R21-Pad2)*%
X99568000Y-63694000D03*
%TD*%
D23*
%TO.P,R2,1*%
%TO.N,GND*%
X94870000Y-71374000D03*
%TO.P,R2,2*%
%TO.N,Net-(R2-Pad2)*%
X96520000Y-71374000D03*
%TD*%
%TO.P,R11,1*%
%TO.N,GND*%
X94870000Y-68326000D03*
%TO.P,R11,2*%
%TO.N,Net-(R11-Pad2)*%
X96520000Y-68326000D03*
%TD*%
%TO.P,R16,1*%
%TO.N,/VB5*%
X109157000Y-65786000D03*
%TO.P,R16,2*%
%TO.N,/VB4*%
X110807000Y-65786000D03*
%TD*%
D22*
%TO.P,R25,1*%
%TO.N,GND*%
X105664000Y-62044000D03*
%TO.P,R25,2*%
%TO.N,Net-(R25-Pad2)*%
X105664000Y-63694000D03*
%TD*%
D23*
%TO.P,R17,1*%
%TO.N,/VB6*%
X109157000Y-68834000D03*
%TO.P,R17,2*%
%TO.N,/VB5*%
X110807000Y-68834000D03*
%TD*%
D20*
%TO.P,R15,1*%
%TO.N,/VB4*%
X104140000Y-63694000D03*
%TO.P,R15,2*%
%TO.N,/VB3*%
X104140000Y-62044000D03*
%TD*%
D19*
%TO.P,R12,1*%
%TO.N,/VB1*%
X96520000Y-69850000D03*
%TO.P,R12,2*%
%TO.N,/VB0*%
X94870000Y-69850000D03*
%TD*%
%TO.P,R27,1*%
%TO.N,GND*%
X110807000Y-67310000D03*
%TO.P,R27,2*%
%TO.N,Net-(R27-Pad2)*%
X109157000Y-67310000D03*
%TD*%
D23*
%TO.P,R18,1*%
%TO.N,/VB7*%
X109157000Y-71882000D03*
%TO.P,R18,2*%
%TO.N,/VB6*%
X110807000Y-71882000D03*
%TD*%
D24*
%TO.N,/VB7*%
X109157000Y-71882000D03*
%TO.N,Net-(R2-Pad2)*%
X97572000Y-71854000D03*
%TO.N,/VB0*%
X94870000Y-69850000D03*
D25*
%TO.N,GND*%
X86794000Y-67950769D03*
X119560000Y-67950769D03*
X86794000Y-63378769D03*
X119560000Y-58552769D03*
X102250000Y-75678769D03*
X119560000Y-63124769D03*
X86794000Y-58806769D03*
D24*
X94875000Y-72900000D03*
%TO.N,/VB1*%
X94870000Y-66802000D03*
X96520000Y-69850000D03*
%TO.N,/VB2*%
X101092000Y-62044000D03*
X96520000Y-66802000D03*
%TO.N,/VB3*%
X104140000Y-62044000D03*
X101092000Y-63694000D03*
%TO.N,/VB4*%
X104140000Y-63694000D03*
X110807000Y-65786000D03*
%TO.N,/VB5*%
X110807000Y-68834000D03*
X109157000Y-65786000D03*
%TO.N,/VB6*%
X110807000Y-71882000D03*
X109157000Y-68834000D03*
%TO.N,Net-(R23-Pad2)*%
X102120000Y-64830000D03*
%TO.N,Net-(R25-Pad2)*%
X105120000Y-64830000D03*
%TO.N,Net-(R27-Pad2)*%
X108200000Y-66854000D03*
%TO.N,Net-(R29-Pad2)*%
X108200000Y-69854000D03*
%TO.N,Net-(R31-Pad2)*%
X108200000Y-72854000D03*
D26*
%TO.N,/VPP*%
X107400000Y-77200000D03*
%TO.N,/VNN*%
X98044000Y-77216000D03*
D25*
%TO.N,/VDD*%
X102900000Y-76228769D03*
%TO.N,/CLR*%
X100650000Y-76328769D03*
%TO.N,/DIN*%
X103900000Y-76928769D03*
%TO.N,/CLK*%
X104775000Y-76948769D03*
%TO.N,/DOUT*%
X105650000Y-76928769D03*
D24*
%TO.N,Net-(R11-Pad2)*%
X97572000Y-68854000D03*
%TO.N,Net-(R21-Pad2)*%
X99120000Y-64770000D03*
D25*
%TO.N,/~{LE}*%
X101450000Y-76378769D03*
%TD*%
D27*
%TO.N,Net-(R2-Pad2)*%
X97092000Y-71374000D02*
X97572000Y-71854000D01*
X96837000Y-71374000D02*
X97092000Y-71374000D01*
%TO.N,Net-(R23-Pad2)*%
X102616000Y-63694000D02*
X102616000Y-64334000D01*
X102616000Y-64334000D02*
X102120000Y-64830000D01*
%TO.N,Net-(R25-Pad2)*%
X105664000Y-63694000D02*
X105664000Y-64286000D01*
X105664000Y-64286000D02*
X105120000Y-64830000D01*
%TO.N,Net-(R27-Pad2)*%
X109157000Y-67310000D02*
X108608000Y-67310000D01*
X108608000Y-67310000D02*
X108152000Y-66854000D01*
%TO.N,Net-(R29-Pad2)*%
X109157000Y-70358000D02*
X108704000Y-70358000D01*
X108704000Y-70358000D02*
X108200000Y-69854000D01*
%TO.N,Net-(R31-Pad2)*%
X109157000Y-73406000D02*
X108752000Y-73406000D01*
X108752000Y-73406000D02*
X108200000Y-72854000D01*
D28*
%TO.N,/VDD*%
X102883000Y-76245769D02*
X102900000Y-76228769D01*
D27*
X102883000Y-77978000D02*
X102883000Y-76245769D01*
%TO.N,Net-(R11-Pad2)*%
X96520000Y-68326000D02*
X97044000Y-68326000D01*
X97044000Y-68326000D02*
X97572000Y-68854000D01*
%TO.N,Net-(R21-Pad2)*%
X99568000Y-64322000D02*
X99120000Y-64770000D01*
X99568000Y-63694000D02*
X99568000Y-64322000D01*
%TD*%
%TA.AperFunction,Conductor*%
%TO.N,GND*%
G36*
X123088121Y-44902771D02*
G01*
X123134614Y-44956427D01*
X123146000Y-45008769D01*
X123146000Y-84248769D01*
X123125998Y-84316890D01*
X123072342Y-84363383D01*
X123020000Y-84374769D01*
X83780000Y-84374769D01*
X83711879Y-84354767D01*
X83665386Y-84301111D01*
X83654000Y-84248769D01*
X83654000Y-81668333D01*
X85141051Y-81668333D01*
X85167954Y-81890649D01*
X85233800Y-82104686D01*
X85236370Y-82109666D01*
X85236372Y-82109670D01*
X85285614Y-82205074D01*
X85336509Y-82303681D01*
X85472833Y-82481342D01*
X85476979Y-82485115D01*
X85476984Y-82485120D01*
X85574050Y-82573443D01*
X85638464Y-82632055D01*
X85828167Y-82751055D01*
X85833376Y-82753149D01*
X85833378Y-82753150D01*
X85870570Y-82768101D01*
X86035944Y-82834581D01*
X86041436Y-82835718D01*
X86041438Y-82835719D01*
X86069291Y-82841487D01*
X86255228Y-82879993D01*
X86259839Y-82880259D01*
X86259840Y-82880259D01*
X86310225Y-82883164D01*
X86310229Y-82883164D01*
X86312048Y-82883269D01*
X86456819Y-82883269D01*
X86459606Y-82883020D01*
X86459612Y-82883020D01*
X86528962Y-82876830D01*
X86623051Y-82868433D01*
X86839051Y-82809342D01*
X86844109Y-82806930D01*
X86844113Y-82806928D01*
X87036107Y-82715352D01*
X87036109Y-82715351D01*
X87041174Y-82712935D01*
X87149578Y-82635039D01*
X87218470Y-82585535D01*
X87218472Y-82585533D01*
X87223030Y-82582258D01*
X87325138Y-82476891D01*
X87374969Y-82425470D01*
X87374971Y-82425467D01*
X87378871Y-82421443D01*
X87458003Y-82303681D01*
X87500641Y-82240229D01*
X87500643Y-82240226D01*
X87503770Y-82235572D01*
X87528282Y-82179733D01*
X96531148Y-82179733D01*
X96544424Y-82382291D01*
X96545845Y-82387887D01*
X96545846Y-82387892D01*
X96592971Y-82573443D01*
X96594392Y-82579038D01*
X96596809Y-82584281D01*
X96672316Y-82748069D01*
X96679377Y-82763385D01*
X96682710Y-82768101D01*
X96761125Y-82879056D01*
X96796533Y-82929158D01*
X96941938Y-83070804D01*
X97110720Y-83183581D01*
X97116023Y-83185859D01*
X97116026Y-83185861D01*
X97247283Y-83242253D01*
X97297228Y-83263711D01*
X97370244Y-83280233D01*
X97489579Y-83307236D01*
X97489584Y-83307237D01*
X97495216Y-83308511D01*
X97500987Y-83308738D01*
X97500989Y-83308738D01*
X97560756Y-83311086D01*
X97698053Y-83316481D01*
X97805348Y-83300924D01*
X97893231Y-83288182D01*
X97893236Y-83288181D01*
X97898945Y-83287353D01*
X97904409Y-83285498D01*
X97904414Y-83285497D01*
X98085693Y-83223961D01*
X98085698Y-83223959D01*
X98091165Y-83222103D01*
X98268276Y-83122916D01*
X98307969Y-83089904D01*
X98419913Y-82996800D01*
X98424345Y-82993114D01*
X98518206Y-82880259D01*
X98550453Y-82841487D01*
X98550455Y-82841484D01*
X98554147Y-82837045D01*
X98653334Y-82659934D01*
X98655190Y-82654467D01*
X98655192Y-82654462D01*
X98716728Y-82473183D01*
X98716729Y-82473178D01*
X98718584Y-82467714D01*
X98719412Y-82462005D01*
X98719413Y-82462000D01*
X98747179Y-82270496D01*
X98747712Y-82266822D01*
X98749232Y-82208769D01*
X98746564Y-82179733D01*
X99071148Y-82179733D01*
X99084424Y-82382291D01*
X99085845Y-82387887D01*
X99085846Y-82387892D01*
X99132971Y-82573443D01*
X99134392Y-82579038D01*
X99136809Y-82584281D01*
X99212316Y-82748069D01*
X99219377Y-82763385D01*
X99222710Y-82768101D01*
X99301125Y-82879056D01*
X99336533Y-82929158D01*
X99481938Y-83070804D01*
X99650720Y-83183581D01*
X99656023Y-83185859D01*
X99656026Y-83185861D01*
X99787283Y-83242253D01*
X99837228Y-83263711D01*
X99910244Y-83280233D01*
X100029579Y-83307236D01*
X100029584Y-83307237D01*
X100035216Y-83308511D01*
X100040987Y-83308738D01*
X100040989Y-83308738D01*
X100100756Y-83311086D01*
X100238053Y-83316481D01*
X100345348Y-83300924D01*
X100433231Y-83288182D01*
X100433236Y-83288181D01*
X100438945Y-83287353D01*
X100444409Y-83285498D01*
X100444414Y-83285497D01*
X100625693Y-83223961D01*
X100625698Y-83223959D01*
X100631165Y-83222103D01*
X100808276Y-83122916D01*
X100847969Y-83089904D01*
X100959913Y-82996800D01*
X100964345Y-82993114D01*
X101058206Y-82880259D01*
X101090453Y-82841487D01*
X101090455Y-82841484D01*
X101094147Y-82837045D01*
X101193334Y-82659934D01*
X101195190Y-82654467D01*
X101195192Y-82654462D01*
X101256728Y-82473183D01*
X101256729Y-82473178D01*
X101258584Y-82467714D01*
X101259412Y-82462005D01*
X101259413Y-82462000D01*
X101287179Y-82270496D01*
X101287712Y-82266822D01*
X101289232Y-82208769D01*
X101286564Y-82179733D01*
X101611148Y-82179733D01*
X101624424Y-82382291D01*
X101625845Y-82387887D01*
X101625846Y-82387892D01*
X101672971Y-82573443D01*
X101674392Y-82579038D01*
X101676809Y-82584281D01*
X101752316Y-82748069D01*
X101759377Y-82763385D01*
X101762710Y-82768101D01*
X101841125Y-82879056D01*
X101876533Y-82929158D01*
X102021938Y-83070804D01*
X102190720Y-83183581D01*
X102196023Y-83185859D01*
X102196026Y-83185861D01*
X102327283Y-83242253D01*
X102377228Y-83263711D01*
X102450244Y-83280233D01*
X102569579Y-83307236D01*
X102569584Y-83307237D01*
X102575216Y-83308511D01*
X102580987Y-83308738D01*
X102580989Y-83308738D01*
X102640756Y-83311086D01*
X102778053Y-83316481D01*
X102885348Y-83300924D01*
X102973231Y-83288182D01*
X102973236Y-83288181D01*
X102978945Y-83287353D01*
X102984409Y-83285498D01*
X102984414Y-83285497D01*
X103165693Y-83223961D01*
X103165698Y-83223959D01*
X103171165Y-83222103D01*
X103348276Y-83122916D01*
X103387969Y-83089904D01*
X103499913Y-82996800D01*
X103504345Y-82993114D01*
X103598206Y-82880259D01*
X103630453Y-82841487D01*
X103630455Y-82841484D01*
X103634147Y-82837045D01*
X103733334Y-82659934D01*
X103735190Y-82654467D01*
X103735192Y-82654462D01*
X103796728Y-82473183D01*
X103796729Y-82473178D01*
X103798584Y-82467714D01*
X103799412Y-82462005D01*
X103799413Y-82462000D01*
X103827179Y-82270496D01*
X103827712Y-82266822D01*
X103829232Y-82208769D01*
X103826564Y-82179733D01*
X104151148Y-82179733D01*
X104164424Y-82382291D01*
X104165845Y-82387887D01*
X104165846Y-82387892D01*
X104212971Y-82573443D01*
X104214392Y-82579038D01*
X104216809Y-82584281D01*
X104292316Y-82748069D01*
X104299377Y-82763385D01*
X104302710Y-82768101D01*
X104381125Y-82879056D01*
X104416533Y-82929158D01*
X104561938Y-83070804D01*
X104730720Y-83183581D01*
X104736023Y-83185859D01*
X104736026Y-83185861D01*
X104867283Y-83242253D01*
X104917228Y-83263711D01*
X104990244Y-83280233D01*
X105109579Y-83307236D01*
X105109584Y-83307237D01*
X105115216Y-83308511D01*
X105120987Y-83308738D01*
X105120989Y-83308738D01*
X105180756Y-83311086D01*
X105318053Y-83316481D01*
X105425348Y-83300924D01*
X105513231Y-83288182D01*
X105513236Y-83288181D01*
X105518945Y-83287353D01*
X105524409Y-83285498D01*
X105524414Y-83285497D01*
X105705693Y-83223961D01*
X105705698Y-83223959D01*
X105711165Y-83222103D01*
X105888276Y-83122916D01*
X105927969Y-83089904D01*
X106039913Y-82996800D01*
X106044345Y-82993114D01*
X106138206Y-82880259D01*
X106170453Y-82841487D01*
X106170455Y-82841484D01*
X106174147Y-82837045D01*
X106273334Y-82659934D01*
X106275190Y-82654467D01*
X106275192Y-82654462D01*
X106336728Y-82473183D01*
X106336729Y-82473178D01*
X106338584Y-82467714D01*
X106339412Y-82462005D01*
X106339413Y-82462000D01*
X106367179Y-82270496D01*
X106367712Y-82266822D01*
X106369232Y-82208769D01*
X106366564Y-82179733D01*
X106691148Y-82179733D01*
X106704424Y-82382291D01*
X106705845Y-82387887D01*
X106705846Y-82387892D01*
X106752971Y-82573443D01*
X106754392Y-82579038D01*
X106756809Y-82584281D01*
X106832316Y-82748069D01*
X106839377Y-82763385D01*
X106842710Y-82768101D01*
X106921125Y-82879056D01*
X106956533Y-82929158D01*
X107101938Y-83070804D01*
X107270720Y-83183581D01*
X107276023Y-83185859D01*
X107276026Y-83185861D01*
X107407283Y-83242253D01*
X107457228Y-83263711D01*
X107530244Y-83280233D01*
X107649579Y-83307236D01*
X107649584Y-83307237D01*
X107655216Y-83308511D01*
X107660987Y-83308738D01*
X107660989Y-83308738D01*
X107720756Y-83311086D01*
X107858053Y-83316481D01*
X107965348Y-83300924D01*
X108053231Y-83288182D01*
X108053236Y-83288181D01*
X108058945Y-83287353D01*
X108064409Y-83285498D01*
X108064414Y-83285497D01*
X108245693Y-83223961D01*
X108245698Y-83223959D01*
X108251165Y-83222103D01*
X108428276Y-83122916D01*
X108467969Y-83089904D01*
X108579913Y-82996800D01*
X108584345Y-82993114D01*
X108678206Y-82880259D01*
X108710453Y-82841487D01*
X108710455Y-82841484D01*
X108714147Y-82837045D01*
X108813334Y-82659934D01*
X108815190Y-82654467D01*
X108815192Y-82654462D01*
X108876728Y-82473183D01*
X108876729Y-82473178D01*
X108878584Y-82467714D01*
X108879412Y-82462005D01*
X108879413Y-82462000D01*
X108907179Y-82270496D01*
X108907712Y-82266822D01*
X108909232Y-82208769D01*
X108893326Y-82035663D01*
X108891187Y-82012382D01*
X108891186Y-82012379D01*
X108890658Y-82006628D01*
X108889090Y-82001068D01*
X108837125Y-81816815D01*
X108837124Y-81816813D01*
X108835557Y-81811256D01*
X108824978Y-81789802D01*
X108748331Y-81634378D01*
X108745776Y-81629197D01*
X108624320Y-81466548D01*
X108480609Y-81333702D01*
X109235500Y-81333702D01*
X109235501Y-83083835D01*
X109250266Y-83158070D01*
X109257161Y-83168389D01*
X109257162Y-83168391D01*
X109297516Y-83228784D01*
X109306516Y-83242253D01*
X109390699Y-83298503D01*
X109464933Y-83313269D01*
X110339858Y-83313269D01*
X111215066Y-83313268D01*
X111250818Y-83306157D01*
X111277126Y-83300925D01*
X111277128Y-83300924D01*
X111289301Y-83298503D01*
X111299621Y-83291608D01*
X111299622Y-83291607D01*
X111363168Y-83249146D01*
X111373484Y-83242253D01*
X111429734Y-83158070D01*
X111444500Y-83083836D01*
X111444499Y-81668333D01*
X119141051Y-81668333D01*
X119167954Y-81890649D01*
X119233800Y-82104686D01*
X119236370Y-82109666D01*
X119236372Y-82109670D01*
X119285614Y-82205074D01*
X119336509Y-82303681D01*
X119472833Y-82481342D01*
X119476979Y-82485115D01*
X119476984Y-82485120D01*
X119574050Y-82573443D01*
X119638464Y-82632055D01*
X119828167Y-82751055D01*
X119833376Y-82753149D01*
X119833378Y-82753150D01*
X119870570Y-82768101D01*
X120035944Y-82834581D01*
X120041436Y-82835718D01*
X120041438Y-82835719D01*
X120069291Y-82841487D01*
X120255228Y-82879993D01*
X120259839Y-82880259D01*
X120259840Y-82880259D01*
X120310225Y-82883164D01*
X120310229Y-82883164D01*
X120312048Y-82883269D01*
X120456819Y-82883269D01*
X120459606Y-82883020D01*
X120459612Y-82883020D01*
X120528962Y-82876830D01*
X120623051Y-82868433D01*
X120839051Y-82809342D01*
X120844109Y-82806930D01*
X120844113Y-82806928D01*
X121036107Y-82715352D01*
X121036109Y-82715351D01*
X121041174Y-82712935D01*
X121149578Y-82635039D01*
X121218470Y-82585535D01*
X121218472Y-82585533D01*
X121223030Y-82582258D01*
X121325138Y-82476891D01*
X121374969Y-82425470D01*
X121374971Y-82425467D01*
X121378871Y-82421443D01*
X121458003Y-82303681D01*
X121500641Y-82240229D01*
X121500643Y-82240226D01*
X121503770Y-82235572D01*
X121593782Y-82030521D01*
X121646059Y-81812771D01*
X121654710Y-81662726D01*
X121658626Y-81594812D01*
X121658626Y-81594809D01*
X121658949Y-81589205D01*
X121632046Y-81366889D01*
X121566200Y-81152852D01*
X121562259Y-81145215D01*
X121466063Y-80958840D01*
X121466063Y-80958839D01*
X121463491Y-80953857D01*
X121327167Y-80776196D01*
X121323021Y-80772423D01*
X121323016Y-80772418D01*
X121165689Y-80629262D01*
X121161536Y-80625483D01*
X120971833Y-80506483D01*
X120764056Y-80422957D01*
X120758564Y-80421820D01*
X120758562Y-80421819D01*
X120607754Y-80390588D01*
X120544772Y-80377545D01*
X120540161Y-80377279D01*
X120540160Y-80377279D01*
X120489775Y-80374374D01*
X120489771Y-80374374D01*
X120487952Y-80374269D01*
X120343181Y-80374269D01*
X120340394Y-80374518D01*
X120340388Y-80374518D01*
X120271038Y-80380708D01*
X120176949Y-80389105D01*
X119960949Y-80448196D01*
X119955891Y-80450608D01*
X119955887Y-80450610D01*
X119763893Y-80542186D01*
X119758826Y-80544603D01*
X119754265Y-80547880D01*
X119754264Y-80547881D01*
X119641011Y-80629262D01*
X119576970Y-80675280D01*
X119421129Y-80836095D01*
X119418001Y-80840750D01*
X119338649Y-80958840D01*
X119296230Y-81021966D01*
X119236421Y-81158213D01*
X119214745Y-81207593D01*
X119206218Y-81227017D01*
X119153941Y-81444767D01*
X119152685Y-81466548D01*
X119144429Y-81609752D01*
X119141051Y-81668333D01*
X111444499Y-81668333D01*
X111444499Y-81333703D01*
X111429734Y-81259468D01*
X111403654Y-81220436D01*
X111380377Y-81185601D01*
X111373484Y-81175285D01*
X111289301Y-81119035D01*
X111215067Y-81104269D01*
X110340142Y-81104269D01*
X109464934Y-81104270D01*
X109429182Y-81111381D01*
X109402874Y-81116613D01*
X109402872Y-81116614D01*
X109390699Y-81119035D01*
X109380379Y-81125930D01*
X109380378Y-81125931D01*
X109347548Y-81147868D01*
X109306516Y-81175285D01*
X109250266Y-81259468D01*
X109235500Y-81333702D01*
X108480609Y-81333702D01*
X108475258Y-81328756D01*
X108470375Y-81325675D01*
X108470371Y-81325672D01*
X108308464Y-81223517D01*
X108303581Y-81220436D01*
X108115039Y-81145215D01*
X108109379Y-81144089D01*
X108109375Y-81144088D01*
X107921613Y-81106740D01*
X107921610Y-81106740D01*
X107915946Y-81105613D01*
X107910171Y-81105537D01*
X107910167Y-81105537D01*
X107808793Y-81104210D01*
X107712971Y-81102956D01*
X107707274Y-81103935D01*
X107707273Y-81103935D01*
X107619397Y-81119035D01*
X107512910Y-81137333D01*
X107322463Y-81207593D01*
X107148010Y-81311381D01*
X107143670Y-81315187D01*
X107143666Y-81315190D01*
X107078362Y-81372461D01*
X106995392Y-81445224D01*
X106869720Y-81604638D01*
X106867031Y-81609749D01*
X106867029Y-81609752D01*
X106854073Y-81634378D01*
X106775203Y-81784284D01*
X106715007Y-81978147D01*
X106691148Y-82179733D01*
X106366564Y-82179733D01*
X106353326Y-82035663D01*
X106351187Y-82012382D01*
X106351186Y-82012379D01*
X106350658Y-82006628D01*
X106349090Y-82001068D01*
X106297125Y-81816815D01*
X106297124Y-81816813D01*
X106295557Y-81811256D01*
X106284978Y-81789802D01*
X106208331Y-81634378D01*
X106205776Y-81629197D01*
X106084320Y-81466548D01*
X105935258Y-81328756D01*
X105930375Y-81325675D01*
X105930371Y-81325672D01*
X105768464Y-81223517D01*
X105763581Y-81220436D01*
X105575039Y-81145215D01*
X105569379Y-81144089D01*
X105569375Y-81144088D01*
X105381613Y-81106740D01*
X105381610Y-81106740D01*
X105375946Y-81105613D01*
X105370171Y-81105537D01*
X105370167Y-81105537D01*
X105268793Y-81104210D01*
X105172971Y-81102956D01*
X105167274Y-81103935D01*
X105167273Y-81103935D01*
X105079397Y-81119035D01*
X104972910Y-81137333D01*
X104782463Y-81207593D01*
X104608010Y-81311381D01*
X104603670Y-81315187D01*
X104603666Y-81315190D01*
X104538362Y-81372461D01*
X104455392Y-81445224D01*
X104329720Y-81604638D01*
X104327031Y-81609749D01*
X104327029Y-81609752D01*
X104314073Y-81634378D01*
X104235203Y-81784284D01*
X104175007Y-81978147D01*
X104151148Y-82179733D01*
X103826564Y-82179733D01*
X103813326Y-82035663D01*
X103811187Y-82012382D01*
X103811186Y-82012379D01*
X103810658Y-82006628D01*
X103809090Y-82001068D01*
X103757125Y-81816815D01*
X103757124Y-81816813D01*
X103755557Y-81811256D01*
X103744978Y-81789802D01*
X103668331Y-81634378D01*
X103665776Y-81629197D01*
X103544320Y-81466548D01*
X103395258Y-81328756D01*
X103390375Y-81325675D01*
X103390371Y-81325672D01*
X103228464Y-81223517D01*
X103223581Y-81220436D01*
X103035039Y-81145215D01*
X103029379Y-81144089D01*
X103029375Y-81144088D01*
X102841613Y-81106740D01*
X102841610Y-81106740D01*
X102835946Y-81105613D01*
X102830171Y-81105537D01*
X102830167Y-81105537D01*
X102728793Y-81104210D01*
X102632971Y-81102956D01*
X102627274Y-81103935D01*
X102627273Y-81103935D01*
X102539397Y-81119035D01*
X102432910Y-81137333D01*
X102242463Y-81207593D01*
X102068010Y-81311381D01*
X102063670Y-81315187D01*
X102063666Y-81315190D01*
X101998362Y-81372461D01*
X101915392Y-81445224D01*
X101789720Y-81604638D01*
X101787031Y-81609749D01*
X101787029Y-81609752D01*
X101774073Y-81634378D01*
X101695203Y-81784284D01*
X101635007Y-81978147D01*
X101611148Y-82179733D01*
X101286564Y-82179733D01*
X101273326Y-82035663D01*
X101271187Y-82012382D01*
X101271186Y-82012379D01*
X101270658Y-82006628D01*
X101269090Y-82001068D01*
X101217125Y-81816815D01*
X101217124Y-81816813D01*
X101215557Y-81811256D01*
X101204978Y-81789802D01*
X101128331Y-81634378D01*
X101125776Y-81629197D01*
X101004320Y-81466548D01*
X100855258Y-81328756D01*
X100850375Y-81325675D01*
X100850371Y-81325672D01*
X100688464Y-81223517D01*
X100683581Y-81220436D01*
X100495039Y-81145215D01*
X100489379Y-81144089D01*
X100489375Y-81144088D01*
X100301613Y-81106740D01*
X100301610Y-81106740D01*
X100295946Y-81105613D01*
X100290171Y-81105537D01*
X100290167Y-81105537D01*
X100188793Y-81104210D01*
X100092971Y-81102956D01*
X100087274Y-81103935D01*
X100087273Y-81103935D01*
X99999397Y-81119035D01*
X99892910Y-81137333D01*
X99702463Y-81207593D01*
X99528010Y-81311381D01*
X99523670Y-81315187D01*
X99523666Y-81315190D01*
X99458362Y-81372461D01*
X99375392Y-81445224D01*
X99249720Y-81604638D01*
X99247031Y-81609749D01*
X99247029Y-81609752D01*
X99234073Y-81634378D01*
X99155203Y-81784284D01*
X99095007Y-81978147D01*
X99071148Y-82179733D01*
X98746564Y-82179733D01*
X98733326Y-82035663D01*
X98731187Y-82012382D01*
X98731186Y-82012379D01*
X98730658Y-82006628D01*
X98729090Y-82001068D01*
X98677125Y-81816815D01*
X98677124Y-81816813D01*
X98675557Y-81811256D01*
X98664978Y-81789802D01*
X98588331Y-81634378D01*
X98585776Y-81629197D01*
X98464320Y-81466548D01*
X98315258Y-81328756D01*
X98310375Y-81325675D01*
X98310371Y-81325672D01*
X98148464Y-81223517D01*
X98143581Y-81220436D01*
X97955039Y-81145215D01*
X97949379Y-81144089D01*
X97949375Y-81144088D01*
X97761613Y-81106740D01*
X97761610Y-81106740D01*
X97755946Y-81105613D01*
X97750171Y-81105537D01*
X97750167Y-81105537D01*
X97648793Y-81104210D01*
X97552971Y-81102956D01*
X97547274Y-81103935D01*
X97547273Y-81103935D01*
X97459397Y-81119035D01*
X97352910Y-81137333D01*
X97162463Y-81207593D01*
X96988010Y-81311381D01*
X96983670Y-81315187D01*
X96983666Y-81315190D01*
X96918362Y-81372461D01*
X96835392Y-81445224D01*
X96709720Y-81604638D01*
X96707031Y-81609749D01*
X96707029Y-81609752D01*
X96694073Y-81634378D01*
X96615203Y-81784284D01*
X96555007Y-81978147D01*
X96531148Y-82179733D01*
X87528282Y-82179733D01*
X87593782Y-82030521D01*
X87646059Y-81812771D01*
X87654710Y-81662726D01*
X87658626Y-81594812D01*
X87658626Y-81594809D01*
X87658949Y-81589205D01*
X87632046Y-81366889D01*
X87566200Y-81152852D01*
X87562259Y-81145215D01*
X87466063Y-80958840D01*
X87466063Y-80958839D01*
X87463491Y-80953857D01*
X87327167Y-80776196D01*
X87323021Y-80772423D01*
X87323016Y-80772418D01*
X87165689Y-80629262D01*
X87161536Y-80625483D01*
X86971833Y-80506483D01*
X86764056Y-80422957D01*
X86758564Y-80421820D01*
X86758562Y-80421819D01*
X86607754Y-80390588D01*
X86544772Y-80377545D01*
X86540161Y-80377279D01*
X86540160Y-80377279D01*
X86489775Y-80374374D01*
X86489771Y-80374374D01*
X86487952Y-80374269D01*
X86343181Y-80374269D01*
X86340394Y-80374518D01*
X86340388Y-80374518D01*
X86271038Y-80380708D01*
X86176949Y-80389105D01*
X85960949Y-80448196D01*
X85955891Y-80450608D01*
X85955887Y-80450610D01*
X85763893Y-80542186D01*
X85758826Y-80544603D01*
X85754265Y-80547880D01*
X85754264Y-80547881D01*
X85641011Y-80629262D01*
X85576970Y-80675280D01*
X85421129Y-80836095D01*
X85418001Y-80840750D01*
X85338649Y-80958840D01*
X85296230Y-81021966D01*
X85236421Y-81158213D01*
X85214745Y-81207593D01*
X85206218Y-81227017D01*
X85153941Y-81444767D01*
X85152685Y-81466548D01*
X85144429Y-81609752D01*
X85141051Y-81668333D01*
X83654000Y-81668333D01*
X83654000Y-78363756D01*
X97127000Y-78363756D01*
X97133702Y-78425448D01*
X97184429Y-78560764D01*
X97189809Y-78567943D01*
X97189811Y-78567946D01*
X97249460Y-78647535D01*
X97271096Y-78676404D01*
X97278276Y-78681785D01*
X97379554Y-78757689D01*
X97379557Y-78757691D01*
X97386736Y-78763071D01*
X97476454Y-78796704D01*
X97514657Y-78811026D01*
X97514659Y-78811026D01*
X97522052Y-78813798D01*
X97529902Y-78814651D01*
X97529903Y-78814651D01*
X97580347Y-78820131D01*
X97583744Y-78820500D01*
X98504256Y-78820500D01*
X98507653Y-78820131D01*
X98558097Y-78814651D01*
X98558098Y-78814651D01*
X98565948Y-78813798D01*
X98573341Y-78811026D01*
X98573343Y-78811026D01*
X98611546Y-78796704D01*
X98701264Y-78763071D01*
X98708443Y-78757691D01*
X98708446Y-78757689D01*
X98809724Y-78681785D01*
X98816904Y-78676404D01*
X98838540Y-78647535D01*
X98898189Y-78567946D01*
X98898191Y-78567943D01*
X98903571Y-78560764D01*
X98954298Y-78425448D01*
X98961000Y-78363756D01*
X98961000Y-77682611D01*
X102178500Y-77682611D01*
X102178501Y-78273388D01*
X102184870Y-78332024D01*
X102233083Y-78460635D01*
X102238463Y-78467814D01*
X102238465Y-78467817D01*
X102301828Y-78552360D01*
X102315456Y-78570544D01*
X102322633Y-78575923D01*
X102418183Y-78647535D01*
X102418186Y-78647537D01*
X102425365Y-78652917D01*
X102433769Y-78656067D01*
X102433770Y-78656068D01*
X102546581Y-78698358D01*
X102546582Y-78698358D01*
X102553976Y-78701130D01*
X102561826Y-78701983D01*
X102561827Y-78701983D01*
X102609205Y-78707130D01*
X102612611Y-78707500D01*
X102882920Y-78707500D01*
X103153388Y-78707499D01*
X103156782Y-78707130D01*
X103156788Y-78707130D01*
X103204166Y-78701984D01*
X103204170Y-78701983D01*
X103212024Y-78701130D01*
X103340635Y-78652917D01*
X103347814Y-78647537D01*
X103347817Y-78647535D01*
X103443367Y-78575923D01*
X103450544Y-78570544D01*
X103464172Y-78552360D01*
X103527535Y-78467817D01*
X103527537Y-78467814D01*
X103532917Y-78460635D01*
X103567961Y-78367153D01*
X103569234Y-78363756D01*
X106520500Y-78363756D01*
X106527202Y-78425448D01*
X106577929Y-78560764D01*
X106583309Y-78567943D01*
X106583311Y-78567946D01*
X106642960Y-78647535D01*
X106664596Y-78676404D01*
X106671776Y-78681785D01*
X106773054Y-78757689D01*
X106773057Y-78757691D01*
X106780236Y-78763071D01*
X106869954Y-78796704D01*
X106908157Y-78811026D01*
X106908159Y-78811026D01*
X106915552Y-78813798D01*
X106923402Y-78814651D01*
X106923403Y-78814651D01*
X106973847Y-78820131D01*
X106977244Y-78820500D01*
X107897756Y-78820500D01*
X107901153Y-78820131D01*
X107951597Y-78814651D01*
X107951598Y-78814651D01*
X107959448Y-78813798D01*
X107966841Y-78811026D01*
X107966843Y-78811026D01*
X108005046Y-78796704D01*
X108094764Y-78763071D01*
X108101943Y-78757691D01*
X108101946Y-78757689D01*
X108203224Y-78681785D01*
X108210404Y-78676404D01*
X108232040Y-78647535D01*
X108291689Y-78567946D01*
X108291691Y-78567943D01*
X108297071Y-78560764D01*
X108347798Y-78425448D01*
X108354500Y-78363756D01*
X108354500Y-76068244D01*
X108347798Y-76006552D01*
X108339080Y-75983295D01*
X108323815Y-75942576D01*
X108297071Y-75871236D01*
X108291691Y-75864057D01*
X108291689Y-75864054D01*
X108215785Y-75762776D01*
X108210404Y-75755596D01*
X108125149Y-75691701D01*
X108101946Y-75674311D01*
X108101943Y-75674309D01*
X108094764Y-75668929D01*
X108005046Y-75635296D01*
X107966843Y-75620974D01*
X107966841Y-75620974D01*
X107959448Y-75618202D01*
X107951598Y-75617349D01*
X107951597Y-75617349D01*
X107901153Y-75611869D01*
X107901152Y-75611869D01*
X107897756Y-75611500D01*
X106977244Y-75611500D01*
X106973848Y-75611869D01*
X106973847Y-75611869D01*
X106923403Y-75617349D01*
X106923402Y-75617349D01*
X106915552Y-75618202D01*
X106908159Y-75620974D01*
X106908157Y-75620974D01*
X106869954Y-75635296D01*
X106780236Y-75668929D01*
X106773057Y-75674309D01*
X106773054Y-75674311D01*
X106749851Y-75691701D01*
X106664596Y-75755596D01*
X106659215Y-75762776D01*
X106583311Y-75864054D01*
X106583309Y-75864057D01*
X106577929Y-75871236D01*
X106551185Y-75942576D01*
X106535921Y-75983295D01*
X106527202Y-76006552D01*
X106520500Y-76068244D01*
X106520500Y-78363756D01*
X103569234Y-78363756D01*
X103578358Y-78339419D01*
X103578358Y-78339418D01*
X103581130Y-78332024D01*
X103587500Y-78273389D01*
X103587499Y-77682612D01*
X103581130Y-77623976D01*
X103578357Y-77616580D01*
X103577157Y-77611531D01*
X103580860Y-77540631D01*
X103622307Y-77482988D01*
X103688338Y-77456904D01*
X103739377Y-77464672D01*
X103739638Y-77463699D01*
X103747617Y-77465837D01*
X103755246Y-77468997D01*
X103900000Y-77488054D01*
X103908188Y-77486976D01*
X103938481Y-77482988D01*
X104044754Y-77468997D01*
X104055196Y-77464672D01*
X104073949Y-77456904D01*
X104179643Y-77413124D01*
X104247765Y-77360852D01*
X104313984Y-77335252D01*
X104383533Y-77349517D01*
X104401172Y-77360853D01*
X104495357Y-77433124D01*
X104630246Y-77488997D01*
X104775000Y-77508054D01*
X104783188Y-77506976D01*
X104807541Y-77503770D01*
X104919754Y-77488997D01*
X105054643Y-77433124D01*
X105148827Y-77360853D01*
X105215048Y-77335252D01*
X105284597Y-77349517D01*
X105302232Y-77360850D01*
X105370357Y-77413124D01*
X105476051Y-77456904D01*
X105494805Y-77464672D01*
X105505246Y-77468997D01*
X105650000Y-77488054D01*
X105658188Y-77486976D01*
X105688481Y-77482988D01*
X105794754Y-77468997D01*
X105805196Y-77464672D01*
X105823949Y-77456904D01*
X105929643Y-77413124D01*
X105936196Y-77408096D01*
X106038921Y-77329272D01*
X106038924Y-77329269D01*
X106045474Y-77324243D01*
X106079827Y-77279474D01*
X106129328Y-77214962D01*
X106134355Y-77208411D01*
X106190228Y-77073523D01*
X106209285Y-76928769D01*
X106194060Y-76813124D01*
X106191306Y-76792201D01*
X106191305Y-76792199D01*
X106190228Y-76784015D01*
X106170422Y-76736199D01*
X106137515Y-76656755D01*
X106137514Y-76656753D01*
X106134355Y-76649127D01*
X106045474Y-76533295D01*
X106038924Y-76528269D01*
X106038921Y-76528266D01*
X105936196Y-76449442D01*
X105936194Y-76449441D01*
X105929643Y-76444414D01*
X105794754Y-76388541D01*
X105650000Y-76369484D01*
X105626255Y-76372610D01*
X105513432Y-76387463D01*
X105513430Y-76387464D01*
X105505246Y-76388541D01*
X105459565Y-76407463D01*
X105377986Y-76441254D01*
X105377984Y-76441255D01*
X105370358Y-76444414D01*
X105322484Y-76481149D01*
X105276171Y-76516686D01*
X105209950Y-76542286D01*
X105140402Y-76528021D01*
X105122770Y-76516690D01*
X105054643Y-76464414D01*
X104919754Y-76408541D01*
X104775000Y-76389484D01*
X104766812Y-76390562D01*
X104638432Y-76407463D01*
X104638430Y-76407464D01*
X104630246Y-76408541D01*
X104603277Y-76419712D01*
X104502986Y-76461254D01*
X104502984Y-76461255D01*
X104495358Y-76464414D01*
X104488805Y-76469442D01*
X104488802Y-76469444D01*
X104427236Y-76516685D01*
X104361016Y-76542286D01*
X104291467Y-76528021D01*
X104273828Y-76516685D01*
X104246536Y-76495744D01*
X104179643Y-76444414D01*
X104044754Y-76388541D01*
X103900000Y-76369484D01*
X103876255Y-76372610D01*
X103763432Y-76387463D01*
X103763430Y-76387464D01*
X103755246Y-76388541D01*
X103679993Y-76419712D01*
X103621594Y-76443902D01*
X103551004Y-76451491D01*
X103487517Y-76419712D01*
X103451289Y-76358654D01*
X103448453Y-76311047D01*
X103458207Y-76236957D01*
X103459285Y-76228769D01*
X103440228Y-76084015D01*
X103420422Y-76036199D01*
X103387515Y-75956755D01*
X103387514Y-75956753D01*
X103384355Y-75949127D01*
X103301924Y-75841701D01*
X103300501Y-75839846D01*
X103300500Y-75839845D01*
X103295474Y-75833295D01*
X103288924Y-75828269D01*
X103288921Y-75828266D01*
X103186196Y-75749442D01*
X103186194Y-75749441D01*
X103179643Y-75744414D01*
X103044754Y-75688541D01*
X102900000Y-75669484D01*
X102891812Y-75670562D01*
X102763432Y-75687463D01*
X102763430Y-75687464D01*
X102755246Y-75688541D01*
X102707430Y-75708347D01*
X102627986Y-75741254D01*
X102627984Y-75741255D01*
X102620358Y-75744414D01*
X102504526Y-75833295D01*
X102415645Y-75949127D01*
X102412486Y-75956753D01*
X102412485Y-75956755D01*
X102379578Y-76036199D01*
X102359772Y-76084015D01*
X102340715Y-76228769D01*
X102359772Y-76373523D01*
X102362931Y-76381149D01*
X102415645Y-76508411D01*
X102414222Y-76509001D01*
X102428500Y-76562283D01*
X102428500Y-77237706D01*
X102408498Y-77305827D01*
X102378065Y-77338532D01*
X102322636Y-77380074D01*
X102322633Y-77380077D01*
X102315456Y-77385456D01*
X102310077Y-77392633D01*
X102238465Y-77488183D01*
X102238463Y-77488186D01*
X102233083Y-77495365D01*
X102184870Y-77623976D01*
X102178500Y-77682611D01*
X98961000Y-77682611D01*
X98961000Y-76328769D01*
X100090715Y-76328769D01*
X100091793Y-76336957D01*
X100108573Y-76464414D01*
X100109772Y-76473523D01*
X100112931Y-76481149D01*
X100149517Y-76569474D01*
X100165645Y-76608411D01*
X100254526Y-76724243D01*
X100261076Y-76729269D01*
X100261079Y-76729272D01*
X100363804Y-76808096D01*
X100370357Y-76813124D01*
X100505246Y-76868997D01*
X100650000Y-76888054D01*
X100658188Y-76886976D01*
X100786566Y-76870075D01*
X100794754Y-76868997D01*
X100929643Y-76813124D01*
X100936196Y-76808096D01*
X100936199Y-76808094D01*
X100940720Y-76804625D01*
X101006941Y-76779027D01*
X101076489Y-76793294D01*
X101094124Y-76804628D01*
X101170357Y-76863124D01*
X101305246Y-76918997D01*
X101450000Y-76938054D01*
X101458188Y-76936976D01*
X101458333Y-76936957D01*
X101594754Y-76918997D01*
X101729643Y-76863124D01*
X101794804Y-76813124D01*
X101838921Y-76779272D01*
X101838924Y-76779269D01*
X101845474Y-76774243D01*
X101879982Y-76729272D01*
X101929328Y-76664962D01*
X101934355Y-76658411D01*
X101952353Y-76614962D01*
X101987069Y-76531149D01*
X101990228Y-76523523D01*
X102005366Y-76408541D01*
X102007874Y-76389484D01*
X102009285Y-76378769D01*
X102003780Y-76336957D01*
X101991306Y-76242201D01*
X101991305Y-76242199D01*
X101990228Y-76234015D01*
X101934355Y-76099127D01*
X101863320Y-76006552D01*
X101850501Y-75989846D01*
X101850500Y-75989845D01*
X101845474Y-75983295D01*
X101838924Y-75978269D01*
X101838921Y-75978266D01*
X101736196Y-75899442D01*
X101736194Y-75899441D01*
X101729643Y-75894414D01*
X101594754Y-75838541D01*
X101450000Y-75819484D01*
X101441812Y-75820562D01*
X101313432Y-75837463D01*
X101313430Y-75837464D01*
X101305246Y-75838541D01*
X101278927Y-75849443D01*
X101177986Y-75891254D01*
X101177984Y-75891255D01*
X101170358Y-75894414D01*
X101163807Y-75899440D01*
X101163803Y-75899443D01*
X101159282Y-75902912D01*
X101093061Y-75928511D01*
X101023512Y-75914245D01*
X101005876Y-75902910D01*
X100975550Y-75879640D01*
X100929643Y-75844414D01*
X100794754Y-75788541D01*
X100650000Y-75769484D01*
X100641812Y-75770562D01*
X100513432Y-75787463D01*
X100513430Y-75787464D01*
X100505246Y-75788541D01*
X100457430Y-75808347D01*
X100377986Y-75841254D01*
X100377984Y-75841255D01*
X100370358Y-75844414D01*
X100254526Y-75933295D01*
X100249503Y-75939841D01*
X100230168Y-75965039D01*
X100165645Y-76049127D01*
X100162486Y-76056753D01*
X100162485Y-76056755D01*
X100144934Y-76099127D01*
X100109772Y-76184015D01*
X100090715Y-76328769D01*
X98961000Y-76328769D01*
X98961000Y-76068244D01*
X98954298Y-76006552D01*
X98945580Y-75983295D01*
X98930315Y-75942576D01*
X98903571Y-75871236D01*
X98898191Y-75864057D01*
X98898189Y-75864054D01*
X98822285Y-75762776D01*
X98816904Y-75755596D01*
X98731649Y-75691701D01*
X98708446Y-75674311D01*
X98708443Y-75674309D01*
X98701264Y-75668929D01*
X98611546Y-75635296D01*
X98573343Y-75620974D01*
X98573341Y-75620974D01*
X98565948Y-75618202D01*
X98558098Y-75617349D01*
X98558097Y-75617349D01*
X98507653Y-75611869D01*
X98507652Y-75611869D01*
X98504256Y-75611500D01*
X97583744Y-75611500D01*
X97580348Y-75611869D01*
X97580347Y-75611869D01*
X97529903Y-75617349D01*
X97529902Y-75617349D01*
X97522052Y-75618202D01*
X97514659Y-75620974D01*
X97514657Y-75620974D01*
X97476454Y-75635296D01*
X97386736Y-75668929D01*
X97379557Y-75674309D01*
X97379554Y-75674311D01*
X97356351Y-75691701D01*
X97271096Y-75755596D01*
X97265715Y-75762776D01*
X97189811Y-75864054D01*
X97189809Y-75864057D01*
X97184429Y-75871236D01*
X97157685Y-75942576D01*
X97142421Y-75983295D01*
X97133702Y-76006552D01*
X97127000Y-76068244D01*
X97127000Y-78363756D01*
X83654000Y-78363756D01*
X83654000Y-73422773D01*
X99035350Y-73422773D01*
X99036514Y-73431675D01*
X99036514Y-73431678D01*
X99039437Y-73454027D01*
X99040501Y-73470365D01*
X99040501Y-73704066D01*
X99055266Y-73778301D01*
X99111516Y-73862484D01*
X99195699Y-73918734D01*
X99269933Y-73933500D01*
X99536990Y-73933500D01*
X99539299Y-73933521D01*
X99607998Y-73934780D01*
X99611779Y-73933749D01*
X99615796Y-73933500D01*
X101753641Y-73933500D01*
X101755949Y-73933521D01*
X101815693Y-73934616D01*
X101815696Y-73934616D01*
X101824665Y-73934780D01*
X101828446Y-73933749D01*
X101832466Y-73933500D01*
X103387747Y-73933499D01*
X103970289Y-73933499D01*
X103972597Y-73933520D01*
X104041331Y-73934780D01*
X104045113Y-73933748D01*
X104049133Y-73933499D01*
X106186939Y-73933499D01*
X106189248Y-73933520D01*
X106189644Y-73933527D01*
X106249025Y-73934616D01*
X106249028Y-73934616D01*
X106257998Y-73934780D01*
X106261781Y-73933749D01*
X106265806Y-73933499D01*
X106470066Y-73933499D01*
X106505818Y-73926388D01*
X106532126Y-73921156D01*
X106532128Y-73921155D01*
X106544301Y-73918734D01*
X106554621Y-73911839D01*
X106554622Y-73911838D01*
X106618168Y-73869377D01*
X106628484Y-73862484D01*
X106684734Y-73778301D01*
X106699500Y-73704067D01*
X106699500Y-73481913D01*
X106701246Y-73461008D01*
X106704536Y-73441453D01*
X106704688Y-73429000D01*
X106700773Y-73401662D01*
X106699500Y-73383801D01*
X106699500Y-72854000D01*
X107665931Y-72854000D01*
X107684129Y-72992227D01*
X107737483Y-73121034D01*
X107822356Y-73231644D01*
X107932965Y-73316517D01*
X108024013Y-73354230D01*
X108057975Y-73368298D01*
X108098852Y-73395612D01*
X108406251Y-73703011D01*
X108416106Y-73714100D01*
X108437359Y-73741059D01*
X108445107Y-73746414D01*
X108445108Y-73746415D01*
X108481581Y-73771623D01*
X108526248Y-73826808D01*
X108528824Y-73833524D01*
X108550791Y-73896076D01*
X108631990Y-74006010D01*
X108741924Y-74087209D01*
X108870873Y-74132493D01*
X108878515Y-74133215D01*
X108878518Y-74133216D01*
X108893421Y-74134624D01*
X108902685Y-74135500D01*
X109156828Y-74135500D01*
X109411314Y-74135499D01*
X109414262Y-74135220D01*
X109414271Y-74135220D01*
X109435478Y-74133216D01*
X109435480Y-74133216D01*
X109443127Y-74132493D01*
X109572076Y-74087209D01*
X109682010Y-74006010D01*
X109763209Y-73896076D01*
X109808493Y-73767127D01*
X109811500Y-73735315D01*
X109811499Y-73076686D01*
X109808493Y-73044873D01*
X109763209Y-72915924D01*
X109682010Y-72805990D01*
X109599912Y-72745351D01*
X109557002Y-72688790D01*
X109551482Y-72618008D01*
X109585106Y-72555479D01*
X109599912Y-72542649D01*
X109674439Y-72487602D01*
X109682010Y-72482010D01*
X109763209Y-72372076D01*
X109808493Y-72243127D01*
X109809579Y-72231644D01*
X109810624Y-72220579D01*
X109811500Y-72211315D01*
X109811499Y-71552686D01*
X109811499Y-71552685D01*
X110152500Y-71552685D01*
X110152501Y-72211314D01*
X110152780Y-72214262D01*
X110152780Y-72214271D01*
X110154422Y-72231644D01*
X110155507Y-72243127D01*
X110200791Y-72372076D01*
X110281990Y-72482010D01*
X110391924Y-72563209D01*
X110520873Y-72608493D01*
X110528515Y-72609215D01*
X110528518Y-72609216D01*
X110543421Y-72610624D01*
X110552685Y-72611500D01*
X110806828Y-72611500D01*
X111061314Y-72611499D01*
X111064262Y-72611220D01*
X111064271Y-72611220D01*
X111085478Y-72609216D01*
X111085480Y-72609216D01*
X111093127Y-72608493D01*
X111222076Y-72563209D01*
X111332010Y-72482010D01*
X111413209Y-72372076D01*
X111458493Y-72243127D01*
X111459579Y-72231644D01*
X111460624Y-72220579D01*
X111461500Y-72211315D01*
X111461500Y-72022933D01*
X114719500Y-72022933D01*
X114719501Y-73773066D01*
X114734266Y-73847301D01*
X114790516Y-73931484D01*
X114874699Y-73987734D01*
X114948933Y-74002500D01*
X115823858Y-74002500D01*
X116699066Y-74002499D01*
X116734818Y-73995388D01*
X116761126Y-73990156D01*
X116761128Y-73990155D01*
X116773301Y-73987734D01*
X116783621Y-73980839D01*
X116783622Y-73980838D01*
X116847168Y-73938377D01*
X116857484Y-73931484D01*
X116913734Y-73847301D01*
X116928500Y-73773067D01*
X116928499Y-72022934D01*
X116920763Y-71984039D01*
X116916156Y-71960874D01*
X116916155Y-71960872D01*
X116913734Y-71948699D01*
X116857484Y-71864516D01*
X116773301Y-71808266D01*
X116699067Y-71793500D01*
X115824142Y-71793500D01*
X114948934Y-71793501D01*
X114913182Y-71800612D01*
X114886874Y-71805844D01*
X114886872Y-71805845D01*
X114874699Y-71808266D01*
X114864379Y-71815161D01*
X114864378Y-71815162D01*
X114818508Y-71845812D01*
X114790516Y-71864516D01*
X114734266Y-71948699D01*
X114719500Y-72022933D01*
X111461500Y-72022933D01*
X111461499Y-71552686D01*
X111458493Y-71520873D01*
X111413209Y-71391924D01*
X111332010Y-71281990D01*
X111222076Y-71200791D01*
X111093127Y-71155507D01*
X111085485Y-71154785D01*
X111085482Y-71154784D01*
X111070579Y-71153376D01*
X111061315Y-71152500D01*
X110807172Y-71152500D01*
X110552686Y-71152501D01*
X110549738Y-71152780D01*
X110549729Y-71152780D01*
X110528522Y-71154784D01*
X110528520Y-71154784D01*
X110520873Y-71155507D01*
X110391924Y-71200791D01*
X110281990Y-71281990D01*
X110200791Y-71391924D01*
X110155507Y-71520873D01*
X110152500Y-71552685D01*
X109811499Y-71552685D01*
X109808493Y-71520873D01*
X109763209Y-71391924D01*
X109682010Y-71281990D01*
X109631038Y-71244341D01*
X109599912Y-71221351D01*
X109557002Y-71164790D01*
X109551482Y-71094008D01*
X109585106Y-71031479D01*
X109599912Y-71018649D01*
X109674439Y-70963602D01*
X109682010Y-70958010D01*
X109763209Y-70848076D01*
X109808493Y-70719127D01*
X109811500Y-70687315D01*
X109811499Y-70028686D01*
X109808493Y-69996873D01*
X109763209Y-69867924D01*
X109682010Y-69757990D01*
X109599912Y-69697351D01*
X109557002Y-69640790D01*
X109551482Y-69570008D01*
X109585106Y-69507479D01*
X109599912Y-69494649D01*
X109674439Y-69439602D01*
X109682010Y-69434010D01*
X109763209Y-69324076D01*
X109808493Y-69195127D01*
X109811500Y-69163315D01*
X109811499Y-68504686D01*
X109811499Y-68504685D01*
X110152500Y-68504685D01*
X110152501Y-69163314D01*
X110152780Y-69166262D01*
X110152780Y-69166271D01*
X110153547Y-69174387D01*
X110155507Y-69195127D01*
X110200791Y-69324076D01*
X110281990Y-69434010D01*
X110391924Y-69515209D01*
X110520873Y-69560493D01*
X110528515Y-69561215D01*
X110528518Y-69561216D01*
X110543421Y-69562624D01*
X110552685Y-69563500D01*
X110806828Y-69563500D01*
X111061314Y-69563499D01*
X111064262Y-69563220D01*
X111064271Y-69563220D01*
X111085478Y-69561216D01*
X111085480Y-69561216D01*
X111093127Y-69560493D01*
X111222076Y-69515209D01*
X111332010Y-69434010D01*
X111413209Y-69324076D01*
X111458493Y-69195127D01*
X111461500Y-69163315D01*
X111461499Y-68504686D01*
X111459442Y-68482909D01*
X111459216Y-68480522D01*
X111459215Y-68480518D01*
X111458493Y-68472873D01*
X111413209Y-68343924D01*
X111332010Y-68233990D01*
X111222076Y-68152791D01*
X111093127Y-68107507D01*
X111085485Y-68106785D01*
X111085482Y-68106784D01*
X111070579Y-68105376D01*
X111061315Y-68104500D01*
X110807172Y-68104500D01*
X110552686Y-68104501D01*
X110549738Y-68104780D01*
X110549729Y-68104780D01*
X110528522Y-68106784D01*
X110528520Y-68106784D01*
X110520873Y-68107507D01*
X110391924Y-68152791D01*
X110281990Y-68233990D01*
X110200791Y-68343924D01*
X110155507Y-68472873D01*
X110152500Y-68504685D01*
X109811499Y-68504685D01*
X109809442Y-68482909D01*
X109809216Y-68480522D01*
X109809215Y-68480518D01*
X109808493Y-68472873D01*
X109763209Y-68343924D01*
X109682010Y-68233990D01*
X109599912Y-68173351D01*
X109557002Y-68116790D01*
X109551482Y-68046008D01*
X109585106Y-67983479D01*
X109599912Y-67970649D01*
X109674439Y-67915602D01*
X109682010Y-67910010D01*
X109763209Y-67800076D01*
X109808493Y-67671127D01*
X109811500Y-67639315D01*
X109811499Y-66980686D01*
X109808493Y-66948873D01*
X109763209Y-66819924D01*
X109682010Y-66709990D01*
X109599912Y-66649351D01*
X109557002Y-66592790D01*
X109551482Y-66522008D01*
X109585106Y-66459479D01*
X109599912Y-66446649D01*
X109648189Y-66410991D01*
X109682010Y-66386010D01*
X109763209Y-66276076D01*
X109808493Y-66147127D01*
X109811500Y-66115315D01*
X109811499Y-65456686D01*
X109811499Y-65456685D01*
X110152500Y-65456685D01*
X110152501Y-66115314D01*
X110152780Y-66118262D01*
X110152780Y-66118271D01*
X110153547Y-66126387D01*
X110155507Y-66147127D01*
X110200791Y-66276076D01*
X110281990Y-66386010D01*
X110391924Y-66467209D01*
X110520873Y-66512493D01*
X110528515Y-66513215D01*
X110528518Y-66513216D01*
X110543421Y-66514624D01*
X110552685Y-66515500D01*
X110806828Y-66515500D01*
X111061314Y-66515499D01*
X111064262Y-66515220D01*
X111064271Y-66515220D01*
X111085478Y-66513216D01*
X111085480Y-66513216D01*
X111093127Y-66512493D01*
X111222076Y-66467209D01*
X111332010Y-66386010D01*
X111413209Y-66276076D01*
X111458493Y-66147127D01*
X111461500Y-66115315D01*
X111461499Y-65456686D01*
X111458493Y-65424873D01*
X111413209Y-65295924D01*
X111332010Y-65185990D01*
X111222076Y-65104791D01*
X111093127Y-65059507D01*
X111085485Y-65058785D01*
X111085482Y-65058784D01*
X111070579Y-65057376D01*
X111061315Y-65056500D01*
X110807172Y-65056500D01*
X110552686Y-65056501D01*
X110549738Y-65056780D01*
X110549729Y-65056780D01*
X110528522Y-65058784D01*
X110528520Y-65058784D01*
X110520873Y-65059507D01*
X110391924Y-65104791D01*
X110281990Y-65185990D01*
X110200791Y-65295924D01*
X110155507Y-65424873D01*
X110152500Y-65456685D01*
X109811499Y-65456685D01*
X109808493Y-65424873D01*
X109763209Y-65295924D01*
X109682010Y-65185990D01*
X109572076Y-65104791D01*
X109443127Y-65059507D01*
X109435485Y-65058785D01*
X109435482Y-65058784D01*
X109420579Y-65057376D01*
X109411315Y-65056500D01*
X109157172Y-65056500D01*
X108902686Y-65056501D01*
X108899738Y-65056780D01*
X108899729Y-65056780D01*
X108878522Y-65058784D01*
X108878520Y-65058784D01*
X108870873Y-65059507D01*
X108741924Y-65104791D01*
X108631990Y-65185990D01*
X108550791Y-65295924D01*
X108505507Y-65424873D01*
X108502500Y-65456685D01*
X108502501Y-66115314D01*
X108502780Y-66118262D01*
X108502780Y-66118271D01*
X108503547Y-66126387D01*
X108505507Y-66147127D01*
X108508052Y-66154374D01*
X108508053Y-66154377D01*
X108519035Y-66185649D01*
X108522734Y-66256550D01*
X108487515Y-66318194D01*
X108424558Y-66351012D01*
X108351935Y-66343807D01*
X108345857Y-66341289D01*
X108345854Y-66341288D01*
X108338227Y-66338129D01*
X108200000Y-66319931D01*
X108061773Y-66338129D01*
X107932966Y-66391483D01*
X107926412Y-66396512D01*
X107830993Y-66469729D01*
X107822356Y-66476356D01*
X107737483Y-66586966D01*
X107684129Y-66715773D01*
X107665931Y-66854000D01*
X107684129Y-66992227D01*
X107737483Y-67121034D01*
X107822356Y-67231644D01*
X107932965Y-67316517D01*
X107976035Y-67334357D01*
X108016911Y-67361671D01*
X108262251Y-67607011D01*
X108272106Y-67618100D01*
X108293359Y-67645059D01*
X108301106Y-67650413D01*
X108301110Y-67650417D01*
X108342072Y-67678728D01*
X108345292Y-67681029D01*
X108385342Y-67710610D01*
X108385344Y-67710611D01*
X108392923Y-67716209D01*
X108399798Y-67718623D01*
X108405789Y-67722764D01*
X108462302Y-67740636D01*
X108465969Y-67741860D01*
X108487718Y-67749498D01*
X108545363Y-67790940D01*
X108550216Y-67798439D01*
X108550791Y-67800076D01*
X108631990Y-67910010D01*
X108639561Y-67915602D01*
X108714088Y-67970649D01*
X108756998Y-68027210D01*
X108762518Y-68097992D01*
X108728894Y-68160521D01*
X108714088Y-68173351D01*
X108631990Y-68233990D01*
X108550791Y-68343924D01*
X108505507Y-68472873D01*
X108502500Y-68504685D01*
X108502501Y-69163314D01*
X108502780Y-69166262D01*
X108502780Y-69166271D01*
X108503547Y-69174387D01*
X108505507Y-69195127D01*
X108505990Y-69196503D01*
X108501235Y-69264652D01*
X108458787Y-69321562D01*
X108392310Y-69346488D01*
X108350491Y-69342531D01*
X108345855Y-69341289D01*
X108338227Y-69338129D01*
X108330043Y-69337052D01*
X108330041Y-69337051D01*
X108208188Y-69321009D01*
X108200000Y-69319931D01*
X108175534Y-69323152D01*
X108110971Y-69331652D01*
X108061773Y-69338129D01*
X107932966Y-69391483D01*
X107822356Y-69476356D01*
X107737483Y-69586966D01*
X107684129Y-69715773D01*
X107665931Y-69854000D01*
X107684129Y-69992227D01*
X107737483Y-70121034D01*
X107822356Y-70231644D01*
X107932965Y-70316517D01*
X108008132Y-70347652D01*
X108057975Y-70368298D01*
X108098852Y-70395612D01*
X108358251Y-70655011D01*
X108368106Y-70666100D01*
X108389359Y-70693059D01*
X108397106Y-70698413D01*
X108438094Y-70726742D01*
X108441287Y-70729024D01*
X108488924Y-70764209D01*
X108488754Y-70764438D01*
X108535323Y-70809830D01*
X108544398Y-70829874D01*
X108547668Y-70839185D01*
X108547670Y-70839188D01*
X108550791Y-70848076D01*
X108631990Y-70958010D01*
X108639561Y-70963602D01*
X108714088Y-71018649D01*
X108756998Y-71075210D01*
X108762518Y-71145992D01*
X108728894Y-71208521D01*
X108714088Y-71221351D01*
X108682962Y-71244341D01*
X108631990Y-71281990D01*
X108550791Y-71391924D01*
X108505507Y-71520873D01*
X108502500Y-71552685D01*
X108502501Y-72211314D01*
X108502695Y-72213365D01*
X108485962Y-72282204D01*
X108434557Y-72331174D01*
X108364838Y-72344579D01*
X108345263Y-72341043D01*
X108338227Y-72338129D01*
X108330037Y-72337051D01*
X108330034Y-72337050D01*
X108208188Y-72321009D01*
X108200000Y-72319931D01*
X108061773Y-72338129D01*
X107932966Y-72391483D01*
X107822356Y-72476356D01*
X107737483Y-72586966D01*
X107684129Y-72715773D01*
X107665931Y-72854000D01*
X106699500Y-72854000D01*
X106699500Y-71265245D01*
X106701246Y-71244341D01*
X106703729Y-71229581D01*
X106704536Y-71224786D01*
X106704688Y-71212333D01*
X106700772Y-71184986D01*
X106699500Y-71167125D01*
X106699499Y-69048586D01*
X106701245Y-69027680D01*
X106703730Y-69012912D01*
X106703730Y-69012909D01*
X106704536Y-69008120D01*
X106704688Y-68995667D01*
X106703797Y-68989440D01*
X106700772Y-68968325D01*
X106699499Y-68950461D01*
X106699499Y-66831919D01*
X106701245Y-66811014D01*
X106703729Y-66796247D01*
X106704536Y-66791453D01*
X106704688Y-66779000D01*
X106700772Y-66751656D01*
X106699499Y-66733794D01*
X106699499Y-66503934D01*
X106688477Y-66448518D01*
X106687156Y-66441874D01*
X106687155Y-66441872D01*
X106684734Y-66429699D01*
X106657087Y-66388322D01*
X106635377Y-66355832D01*
X106628484Y-66345516D01*
X106544301Y-66289266D01*
X106470067Y-66274500D01*
X106203608Y-66274500D01*
X106202839Y-66274498D01*
X106125827Y-66274028D01*
X106124492Y-66274410D01*
X106123164Y-66274500D01*
X103986991Y-66274500D01*
X103986223Y-66274498D01*
X103909160Y-66274028D01*
X103907824Y-66274409D01*
X103906494Y-66274500D01*
X102420309Y-66274501D01*
X101770378Y-66274501D01*
X101769608Y-66274499D01*
X101766584Y-66274481D01*
X101692494Y-66274028D01*
X101691157Y-66274410D01*
X101689828Y-66274501D01*
X99553760Y-66274501D01*
X99552991Y-66274499D01*
X99475827Y-66274028D01*
X99474490Y-66274410D01*
X99473158Y-66274501D01*
X99269934Y-66274501D01*
X99234182Y-66281612D01*
X99207874Y-66286844D01*
X99207872Y-66286845D01*
X99195699Y-66289266D01*
X99185379Y-66296161D01*
X99185378Y-66296162D01*
X99148193Y-66321009D01*
X99111516Y-66345516D01*
X99055266Y-66429699D01*
X99040500Y-66503933D01*
X99040500Y-66729946D01*
X99039000Y-66749331D01*
X99035350Y-66772773D01*
X99036514Y-66781675D01*
X99036514Y-66781678D01*
X99039436Y-66804019D01*
X99040500Y-66820357D01*
X99040500Y-68946612D01*
X99039000Y-68965995D01*
X99036731Y-68980566D01*
X99036731Y-68980570D01*
X99035350Y-68989440D01*
X99036514Y-68998342D01*
X99036514Y-68998345D01*
X99039436Y-69020688D01*
X99040500Y-69037025D01*
X99040501Y-71163273D01*
X99039001Y-71182659D01*
X99035350Y-71206106D01*
X99037157Y-71219924D01*
X99039437Y-71237358D01*
X99040501Y-71253697D01*
X99040501Y-73379940D01*
X99039001Y-73399324D01*
X99035350Y-73422773D01*
X83654000Y-73422773D01*
X83654000Y-71044685D01*
X95865500Y-71044685D01*
X95865501Y-71703314D01*
X95868507Y-71735127D01*
X95913791Y-71864076D01*
X95994990Y-71974010D01*
X96104924Y-72055209D01*
X96233873Y-72100493D01*
X96241515Y-72101215D01*
X96241518Y-72101216D01*
X96256421Y-72102624D01*
X96265685Y-72103500D01*
X96519828Y-72103500D01*
X96774314Y-72103499D01*
X96777262Y-72103220D01*
X96777271Y-72103220D01*
X96798478Y-72101216D01*
X96798480Y-72101216D01*
X96806127Y-72100493D01*
X96935076Y-72055209D01*
X96936677Y-72054026D01*
X97002400Y-72040612D01*
X97068595Y-72066276D01*
X97100147Y-72107432D01*
X97102193Y-72106251D01*
X97106322Y-72113402D01*
X97109483Y-72121034D01*
X97194356Y-72231644D01*
X97304965Y-72316517D01*
X97433773Y-72369871D01*
X97441961Y-72370949D01*
X97502887Y-72378970D01*
X97572000Y-72388069D01*
X97580188Y-72386991D01*
X97702039Y-72370949D01*
X97710227Y-72369871D01*
X97839035Y-72316517D01*
X97949644Y-72231644D01*
X98034517Y-72121034D01*
X98087871Y-71992227D01*
X98106069Y-71854000D01*
X98096970Y-71784886D01*
X98088949Y-71723961D01*
X98087871Y-71715773D01*
X98034517Y-71586966D01*
X97949644Y-71476356D01*
X97839035Y-71391483D01*
X97714026Y-71339702D01*
X97673148Y-71312388D01*
X97437749Y-71076989D01*
X97427894Y-71065900D01*
X97426835Y-71064556D01*
X97406641Y-71038941D01*
X97358438Y-71005626D01*
X97357906Y-71005258D01*
X97354713Y-71002976D01*
X97307076Y-70967791D01*
X97300203Y-70965377D01*
X97294211Y-70961236D01*
X97237722Y-70943371D01*
X97234001Y-70942129D01*
X97183076Y-70924245D01*
X97123476Y-70880223D01*
X97050605Y-70781564D01*
X97050602Y-70781561D01*
X97045010Y-70773990D01*
X96981042Y-70726742D01*
X96962912Y-70713351D01*
X96920002Y-70656790D01*
X96914482Y-70586008D01*
X96948106Y-70523479D01*
X96962912Y-70510649D01*
X97037439Y-70455602D01*
X97045010Y-70450010D01*
X97126209Y-70340076D01*
X97171493Y-70211127D01*
X97174500Y-70179315D01*
X97174499Y-69520686D01*
X97173982Y-69515209D01*
X97172216Y-69496522D01*
X97172215Y-69496518D01*
X97171493Y-69488873D01*
X97168947Y-69481623D01*
X97167302Y-69474125D01*
X97170556Y-69473411D01*
X97167735Y-69417442D01*
X97203063Y-69355860D01*
X97266077Y-69323152D01*
X97338481Y-69330400D01*
X97433773Y-69369871D01*
X97572000Y-69388069D01*
X97580188Y-69386991D01*
X97702039Y-69370949D01*
X97710227Y-69369871D01*
X97839035Y-69316517D01*
X97949644Y-69231644D01*
X98034517Y-69121034D01*
X98087871Y-68992227D01*
X98106069Y-68854000D01*
X98087871Y-68715773D01*
X98034517Y-68586966D01*
X97949644Y-68476356D01*
X97935661Y-68465626D01*
X97845586Y-68396510D01*
X97839035Y-68391483D01*
X97745675Y-68352812D01*
X97714025Y-68339702D01*
X97673148Y-68312388D01*
X97389749Y-68028989D01*
X97379894Y-68017900D01*
X97378835Y-68016556D01*
X97358641Y-67990941D01*
X97310438Y-67957626D01*
X97309906Y-67957258D01*
X97306713Y-67954976D01*
X97259076Y-67919791D01*
X97252203Y-67917377D01*
X97246211Y-67913236D01*
X97236011Y-67910010D01*
X97198549Y-67898163D01*
X97139630Y-67858552D01*
X97128121Y-67841367D01*
X97126209Y-67835924D01*
X97045010Y-67725990D01*
X96984138Y-67681029D01*
X96962912Y-67665351D01*
X96920002Y-67608790D01*
X96914482Y-67538008D01*
X96948106Y-67475479D01*
X96962912Y-67462649D01*
X97037439Y-67407602D01*
X97045010Y-67402010D01*
X97126209Y-67292076D01*
X97171493Y-67163127D01*
X97174500Y-67131315D01*
X97174499Y-66472686D01*
X97173982Y-66467209D01*
X97172216Y-66448522D01*
X97172215Y-66448518D01*
X97171493Y-66440873D01*
X97126209Y-66311924D01*
X97045010Y-66201990D01*
X96935076Y-66120791D01*
X96806127Y-66075507D01*
X96798485Y-66074785D01*
X96798482Y-66074784D01*
X96783579Y-66073376D01*
X96774315Y-66072500D01*
X96520172Y-66072500D01*
X96265686Y-66072501D01*
X96262738Y-66072780D01*
X96262729Y-66072780D01*
X96241522Y-66074784D01*
X96241520Y-66074784D01*
X96233873Y-66075507D01*
X96104924Y-66120791D01*
X95994990Y-66201990D01*
X95913791Y-66311924D01*
X95868507Y-66440873D01*
X95865500Y-66472685D01*
X95865501Y-67131314D01*
X95868507Y-67163127D01*
X95913791Y-67292076D01*
X95994990Y-67402010D01*
X96002561Y-67407602D01*
X96077088Y-67462649D01*
X96119998Y-67519210D01*
X96125518Y-67589992D01*
X96091894Y-67652521D01*
X96077088Y-67665351D01*
X96055862Y-67681029D01*
X95994990Y-67725990D01*
X95913791Y-67835924D01*
X95868507Y-67964873D01*
X95865500Y-67996685D01*
X95865501Y-68655314D01*
X95868507Y-68687127D01*
X95913791Y-68816076D01*
X95994990Y-68926010D01*
X96002561Y-68931602D01*
X96077088Y-68986649D01*
X96119998Y-69043210D01*
X96125518Y-69113992D01*
X96091894Y-69176521D01*
X96077088Y-69189351D01*
X96059452Y-69202377D01*
X95994990Y-69249990D01*
X95913791Y-69359924D01*
X95868507Y-69488873D01*
X95865500Y-69520685D01*
X95865501Y-70179314D01*
X95868507Y-70211127D01*
X95913791Y-70340076D01*
X95994990Y-70450010D01*
X96002561Y-70455602D01*
X96077088Y-70510649D01*
X96119998Y-70567210D01*
X96125518Y-70637992D01*
X96091894Y-70700521D01*
X96077088Y-70713351D01*
X96058958Y-70726742D01*
X95994990Y-70773990D01*
X95913791Y-70883924D01*
X95868507Y-71012873D01*
X95865500Y-71044685D01*
X83654000Y-71044685D01*
X83654000Y-69520685D01*
X94215500Y-69520685D01*
X94215501Y-70179314D01*
X94218507Y-70211127D01*
X94263791Y-70340076D01*
X94344990Y-70450010D01*
X94454924Y-70531209D01*
X94583873Y-70576493D01*
X94591515Y-70577215D01*
X94591518Y-70577216D01*
X94606421Y-70578624D01*
X94615685Y-70579500D01*
X94869828Y-70579500D01*
X95124314Y-70579499D01*
X95127262Y-70579220D01*
X95127271Y-70579220D01*
X95148478Y-70577216D01*
X95148480Y-70577216D01*
X95156127Y-70576493D01*
X95285076Y-70531209D01*
X95395010Y-70450010D01*
X95476209Y-70340076D01*
X95521493Y-70211127D01*
X95524500Y-70179315D01*
X95524499Y-69520686D01*
X95523982Y-69515209D01*
X95522216Y-69496522D01*
X95522215Y-69496518D01*
X95521493Y-69488873D01*
X95476209Y-69359924D01*
X95395010Y-69249990D01*
X95285076Y-69168791D01*
X95156127Y-69123507D01*
X95148485Y-69122785D01*
X95148482Y-69122784D01*
X95133579Y-69121376D01*
X95124315Y-69120500D01*
X94870172Y-69120500D01*
X94615686Y-69120501D01*
X94612738Y-69120780D01*
X94612729Y-69120780D01*
X94591522Y-69122784D01*
X94591520Y-69122784D01*
X94583873Y-69123507D01*
X94454924Y-69168791D01*
X94344990Y-69249990D01*
X94263791Y-69359924D01*
X94218507Y-69488873D01*
X94215500Y-69520685D01*
X83654000Y-69520685D01*
X83654000Y-66472685D01*
X94215500Y-66472685D01*
X94215501Y-67131314D01*
X94218507Y-67163127D01*
X94263791Y-67292076D01*
X94344990Y-67402010D01*
X94454924Y-67483209D01*
X94583873Y-67528493D01*
X94591515Y-67529215D01*
X94591518Y-67529216D01*
X94606421Y-67530624D01*
X94615685Y-67531500D01*
X94869828Y-67531500D01*
X95124314Y-67531499D01*
X95127262Y-67531220D01*
X95127271Y-67531220D01*
X95148478Y-67529216D01*
X95148480Y-67529216D01*
X95156127Y-67528493D01*
X95285076Y-67483209D01*
X95395010Y-67402010D01*
X95476209Y-67292076D01*
X95521493Y-67163127D01*
X95524500Y-67131315D01*
X95524499Y-66472686D01*
X95523982Y-66467209D01*
X95522216Y-66448522D01*
X95522215Y-66448518D01*
X95521493Y-66440873D01*
X95476209Y-66311924D01*
X95395010Y-66201990D01*
X95285076Y-66120791D01*
X95156127Y-66075507D01*
X95148485Y-66074785D01*
X95148482Y-66074784D01*
X95133579Y-66073376D01*
X95124315Y-66072500D01*
X94870172Y-66072500D01*
X94615686Y-66072501D01*
X94612738Y-66072780D01*
X94612729Y-66072780D01*
X94591522Y-66074784D01*
X94591520Y-66074784D01*
X94583873Y-66075507D01*
X94454924Y-66120791D01*
X94344990Y-66201990D01*
X94263791Y-66311924D01*
X94218507Y-66440873D01*
X94215500Y-66472685D01*
X83654000Y-66472685D01*
X83654000Y-64770000D01*
X98585931Y-64770000D01*
X98604129Y-64908227D01*
X98657483Y-65037034D01*
X98742356Y-65147644D01*
X98852965Y-65232517D01*
X98981773Y-65285871D01*
X98989961Y-65286949D01*
X99032254Y-65292517D01*
X99120000Y-65304069D01*
X99128188Y-65302991D01*
X99250039Y-65286949D01*
X99258227Y-65285871D01*
X99387035Y-65232517D01*
X99497644Y-65147644D01*
X99582517Y-65037034D01*
X99634299Y-64912023D01*
X99661612Y-64871148D01*
X99865011Y-64667749D01*
X99876100Y-64657894D01*
X99887837Y-64648641D01*
X99903059Y-64636641D01*
X99928448Y-64599906D01*
X99936742Y-64587906D01*
X99939024Y-64584713D01*
X99974209Y-64537076D01*
X99976623Y-64530203D01*
X99980764Y-64524211D01*
X99998629Y-64467722D01*
X99999880Y-64463973D01*
X100011856Y-64429872D01*
X100019493Y-64408126D01*
X100019776Y-64400922D01*
X100019809Y-64400751D01*
X100021975Y-64393903D01*
X100022500Y-64387232D01*
X100022500Y-64385148D01*
X100023328Y-64382688D01*
X100023912Y-64379693D01*
X100024311Y-64379771D01*
X100045147Y-64317916D01*
X100073526Y-64288798D01*
X100160439Y-64224602D01*
X100168010Y-64219010D01*
X100228649Y-64136912D01*
X100285210Y-64094002D01*
X100355992Y-64088482D01*
X100418521Y-64122106D01*
X100431351Y-64136912D01*
X100491990Y-64219010D01*
X100601924Y-64300209D01*
X100730873Y-64345493D01*
X100738515Y-64346215D01*
X100738518Y-64346216D01*
X100753421Y-64347624D01*
X100762685Y-64348500D01*
X101091777Y-64348500D01*
X101421314Y-64348499D01*
X101424262Y-64348220D01*
X101424271Y-64348220D01*
X101445478Y-64346216D01*
X101445480Y-64346216D01*
X101453127Y-64345493D01*
X101561870Y-64307305D01*
X101632769Y-64303607D01*
X101694413Y-64338827D01*
X101727231Y-64401783D01*
X101720802Y-64472488D01*
X101703583Y-64502886D01*
X101657483Y-64562966D01*
X101639463Y-64606471D01*
X101609110Y-64679749D01*
X101604129Y-64691773D01*
X101585931Y-64830000D01*
X101604129Y-64968227D01*
X101657483Y-65097034D01*
X101742356Y-65207644D01*
X101852965Y-65292517D01*
X101981773Y-65345871D01*
X102120000Y-65364069D01*
X102128188Y-65362991D01*
X102250039Y-65346949D01*
X102258227Y-65345871D01*
X102387035Y-65292517D01*
X102497644Y-65207644D01*
X102582517Y-65097034D01*
X102634299Y-64972023D01*
X102661612Y-64931148D01*
X102913011Y-64679749D01*
X102924100Y-64669894D01*
X102926821Y-64667749D01*
X102951059Y-64648641D01*
X102969545Y-64621894D01*
X102984742Y-64599906D01*
X102987024Y-64596713D01*
X103022209Y-64549076D01*
X103024623Y-64542203D01*
X103028764Y-64536211D01*
X103046629Y-64479722D01*
X103047880Y-64475973D01*
X103051429Y-64465868D01*
X103067493Y-64420126D01*
X103067776Y-64412922D01*
X103067809Y-64412751D01*
X103069975Y-64405903D01*
X103070500Y-64399232D01*
X103070500Y-64390064D01*
X103090502Y-64321943D01*
X103121641Y-64288713D01*
X103208436Y-64224605D01*
X103208439Y-64224602D01*
X103216010Y-64219010D01*
X103276649Y-64136912D01*
X103333210Y-64094002D01*
X103403992Y-64088482D01*
X103466521Y-64122106D01*
X103479351Y-64136912D01*
X103539990Y-64219010D01*
X103649924Y-64300209D01*
X103778873Y-64345493D01*
X103786515Y-64346215D01*
X103786518Y-64346216D01*
X103801421Y-64347624D01*
X103810685Y-64348500D01*
X104139777Y-64348500D01*
X104469314Y-64348499D01*
X104472262Y-64348220D01*
X104472271Y-64348220D01*
X104493478Y-64346216D01*
X104493480Y-64346216D01*
X104501127Y-64345493D01*
X104544165Y-64330379D01*
X104615064Y-64326681D01*
X104676709Y-64361901D01*
X104709526Y-64424858D01*
X104703097Y-64495562D01*
X104685875Y-64525965D01*
X104657483Y-64562966D01*
X104639463Y-64606471D01*
X104609110Y-64679749D01*
X104604129Y-64691773D01*
X104585931Y-64830000D01*
X104604129Y-64968227D01*
X104657483Y-65097034D01*
X104742356Y-65207644D01*
X104852965Y-65292517D01*
X104981773Y-65345871D01*
X105120000Y-65364069D01*
X105128188Y-65362991D01*
X105250039Y-65346949D01*
X105258227Y-65345871D01*
X105387035Y-65292517D01*
X105497644Y-65207644D01*
X105582517Y-65097034D01*
X105634299Y-64972023D01*
X105661612Y-64931148D01*
X105961011Y-64631749D01*
X105972100Y-64621894D01*
X105973444Y-64620835D01*
X105999059Y-64600641D01*
X106004413Y-64592894D01*
X106004417Y-64592890D01*
X106032728Y-64551928D01*
X106035029Y-64548708D01*
X106064610Y-64508658D01*
X106064611Y-64508656D01*
X106070209Y-64501077D01*
X106072623Y-64494202D01*
X106076764Y-64488211D01*
X106094609Y-64431785D01*
X106095860Y-64428035D01*
X106112372Y-64381016D01*
X106112373Y-64381010D01*
X106115493Y-64372126D01*
X106115726Y-64366192D01*
X106117200Y-64360355D01*
X106117969Y-64357922D01*
X106120752Y-64358802D01*
X106147344Y-64307468D01*
X106163505Y-64293245D01*
X106256436Y-64224605D01*
X106256439Y-64224602D01*
X106264010Y-64219010D01*
X106345209Y-64109076D01*
X106390493Y-63980127D01*
X106393500Y-63948315D01*
X106393499Y-63439686D01*
X106390493Y-63407873D01*
X106345209Y-63278924D01*
X106264010Y-63168990D01*
X106154076Y-63087791D01*
X106025127Y-63042507D01*
X106017485Y-63041785D01*
X106017482Y-63041784D01*
X106002579Y-63040376D01*
X105993315Y-63039500D01*
X105664223Y-63039500D01*
X105334686Y-63039501D01*
X105331738Y-63039780D01*
X105331729Y-63039780D01*
X105310522Y-63041784D01*
X105310520Y-63041784D01*
X105302873Y-63042507D01*
X105173924Y-63087791D01*
X105063990Y-63168990D01*
X105058398Y-63176561D01*
X105003351Y-63251088D01*
X104946790Y-63293998D01*
X104876008Y-63299518D01*
X104813479Y-63265894D01*
X104800649Y-63251088D01*
X104745602Y-63176561D01*
X104740010Y-63168990D01*
X104630076Y-63087791D01*
X104501127Y-63042507D01*
X104493485Y-63041785D01*
X104493482Y-63041784D01*
X104478579Y-63040376D01*
X104469315Y-63039500D01*
X104140223Y-63039500D01*
X103810686Y-63039501D01*
X103807738Y-63039780D01*
X103807729Y-63039780D01*
X103786522Y-63041784D01*
X103786520Y-63041784D01*
X103778873Y-63042507D01*
X103649924Y-63087791D01*
X103539990Y-63168990D01*
X103534398Y-63176561D01*
X103479351Y-63251088D01*
X103422790Y-63293998D01*
X103352008Y-63299518D01*
X103289479Y-63265894D01*
X103276649Y-63251088D01*
X103221602Y-63176561D01*
X103216010Y-63168990D01*
X103106076Y-63087791D01*
X102977127Y-63042507D01*
X102969485Y-63041785D01*
X102969482Y-63041784D01*
X102954579Y-63040376D01*
X102945315Y-63039500D01*
X102616223Y-63039500D01*
X102286686Y-63039501D01*
X102283738Y-63039780D01*
X102283729Y-63039780D01*
X102262522Y-63041784D01*
X102262520Y-63041784D01*
X102254873Y-63042507D01*
X102125924Y-63087791D01*
X102015990Y-63168990D01*
X102010398Y-63176561D01*
X101955351Y-63251088D01*
X101898790Y-63293998D01*
X101828008Y-63299518D01*
X101765479Y-63265894D01*
X101752649Y-63251088D01*
X101697602Y-63176561D01*
X101692010Y-63168990D01*
X101582076Y-63087791D01*
X101453127Y-63042507D01*
X101445485Y-63041785D01*
X101445482Y-63041784D01*
X101430579Y-63040376D01*
X101421315Y-63039500D01*
X101092223Y-63039500D01*
X100762686Y-63039501D01*
X100759738Y-63039780D01*
X100759729Y-63039780D01*
X100738522Y-63041784D01*
X100738520Y-63041784D01*
X100730873Y-63042507D01*
X100601924Y-63087791D01*
X100491990Y-63168990D01*
X100486398Y-63176561D01*
X100431351Y-63251088D01*
X100374790Y-63293998D01*
X100304008Y-63299518D01*
X100241479Y-63265894D01*
X100228649Y-63251088D01*
X100173602Y-63176561D01*
X100168010Y-63168990D01*
X100058076Y-63087791D01*
X99929127Y-63042507D01*
X99921485Y-63041785D01*
X99921482Y-63041784D01*
X99906579Y-63040376D01*
X99897315Y-63039500D01*
X99568223Y-63039500D01*
X99238686Y-63039501D01*
X99235738Y-63039780D01*
X99235729Y-63039780D01*
X99214522Y-63041784D01*
X99214520Y-63041784D01*
X99206873Y-63042507D01*
X99077924Y-63087791D01*
X98967990Y-63168990D01*
X98886791Y-63278924D01*
X98841507Y-63407873D01*
X98838500Y-63439685D01*
X98838501Y-63948314D01*
X98841507Y-63980127D01*
X98886791Y-64109076D01*
X98892386Y-64116650D01*
X98892388Y-64116655D01*
X98896260Y-64121897D01*
X98920642Y-64188576D01*
X98905104Y-64257851D01*
X98858634Y-64305135D01*
X98852966Y-64307483D01*
X98846418Y-64312508D01*
X98846417Y-64312508D01*
X98765345Y-64374716D01*
X98742356Y-64392356D01*
X98657483Y-64502966D01*
X98604129Y-64631773D01*
X98585931Y-64770000D01*
X83654000Y-64770000D01*
X83654000Y-61789685D01*
X100362500Y-61789685D01*
X100362501Y-62298314D01*
X100365507Y-62330127D01*
X100410791Y-62459076D01*
X100491990Y-62569010D01*
X100601924Y-62650209D01*
X100730873Y-62695493D01*
X100738515Y-62696215D01*
X100738518Y-62696216D01*
X100753421Y-62697624D01*
X100762685Y-62698500D01*
X101091777Y-62698500D01*
X101421314Y-62698499D01*
X101424262Y-62698220D01*
X101424271Y-62698220D01*
X101445478Y-62696216D01*
X101445480Y-62696216D01*
X101453127Y-62695493D01*
X101582076Y-62650209D01*
X101692010Y-62569010D01*
X101773209Y-62459076D01*
X101818493Y-62330127D01*
X101821500Y-62298315D01*
X101821499Y-61789686D01*
X101821499Y-61789685D01*
X103410500Y-61789685D01*
X103410501Y-62298314D01*
X103413507Y-62330127D01*
X103458791Y-62459076D01*
X103539990Y-62569010D01*
X103649924Y-62650209D01*
X103778873Y-62695493D01*
X103786515Y-62696215D01*
X103786518Y-62696216D01*
X103801421Y-62697624D01*
X103810685Y-62698500D01*
X104139777Y-62698500D01*
X104469314Y-62698499D01*
X104472262Y-62698220D01*
X104472271Y-62698220D01*
X104493478Y-62696216D01*
X104493480Y-62696216D01*
X104501127Y-62695493D01*
X104630076Y-62650209D01*
X104740010Y-62569010D01*
X104821209Y-62459076D01*
X104866493Y-62330127D01*
X104869500Y-62298315D01*
X104869499Y-61789686D01*
X104866493Y-61757873D01*
X104821209Y-61628924D01*
X104740010Y-61518990D01*
X104630076Y-61437791D01*
X104501127Y-61392507D01*
X104493485Y-61391785D01*
X104493482Y-61391784D01*
X104478579Y-61390376D01*
X104469315Y-61389500D01*
X104140223Y-61389500D01*
X103810686Y-61389501D01*
X103807738Y-61389780D01*
X103807729Y-61389780D01*
X103786522Y-61391784D01*
X103786520Y-61391784D01*
X103778873Y-61392507D01*
X103649924Y-61437791D01*
X103539990Y-61518990D01*
X103458791Y-61628924D01*
X103413507Y-61757873D01*
X103410500Y-61789685D01*
X101821499Y-61789685D01*
X101818493Y-61757873D01*
X101773209Y-61628924D01*
X101692010Y-61518990D01*
X101582076Y-61437791D01*
X101453127Y-61392507D01*
X101445485Y-61391785D01*
X101445482Y-61391784D01*
X101430579Y-61390376D01*
X101421315Y-61389500D01*
X101092223Y-61389500D01*
X100762686Y-61389501D01*
X100759738Y-61389780D01*
X100759729Y-61389780D01*
X100738522Y-61391784D01*
X100738520Y-61391784D01*
X100730873Y-61392507D01*
X100601924Y-61437791D01*
X100491990Y-61518990D01*
X100410791Y-61628924D01*
X100365507Y-61757873D01*
X100362500Y-61789685D01*
X83654000Y-61789685D01*
X83654000Y-47668333D01*
X85141051Y-47668333D01*
X85167954Y-47890649D01*
X85233800Y-48104686D01*
X85336509Y-48303681D01*
X85472833Y-48481342D01*
X85476979Y-48485115D01*
X85476984Y-48485120D01*
X85579309Y-48578228D01*
X85638464Y-48632055D01*
X85828167Y-48751055D01*
X86035944Y-48834581D01*
X86041436Y-48835718D01*
X86041438Y-48835719D01*
X86182059Y-48864840D01*
X86255228Y-48879993D01*
X86259839Y-48880259D01*
X86259840Y-48880259D01*
X86310225Y-48883164D01*
X86310229Y-48883164D01*
X86312048Y-48883269D01*
X86456819Y-48883269D01*
X86459606Y-48883020D01*
X86459612Y-48883020D01*
X86528962Y-48876830D01*
X86623051Y-48868433D01*
X86839051Y-48809342D01*
X86844109Y-48806930D01*
X86844113Y-48806928D01*
X87036107Y-48715352D01*
X87036109Y-48715351D01*
X87041174Y-48712935D01*
X87149578Y-48635039D01*
X87218470Y-48585535D01*
X87218472Y-48585533D01*
X87223030Y-48582258D01*
X87378871Y-48421443D01*
X87458003Y-48303681D01*
X87500641Y-48240229D01*
X87500643Y-48240226D01*
X87503770Y-48235572D01*
X87593782Y-48030521D01*
X87646059Y-47812771D01*
X87654387Y-47668333D01*
X119141051Y-47668333D01*
X119167954Y-47890649D01*
X119233800Y-48104686D01*
X119336509Y-48303681D01*
X119472833Y-48481342D01*
X119476979Y-48485115D01*
X119476984Y-48485120D01*
X119579309Y-48578228D01*
X119638464Y-48632055D01*
X119828167Y-48751055D01*
X120035944Y-48834581D01*
X120041436Y-48835718D01*
X120041438Y-48835719D01*
X120182059Y-48864840D01*
X120255228Y-48879993D01*
X120259839Y-48880259D01*
X120259840Y-48880259D01*
X120310225Y-48883164D01*
X120310229Y-48883164D01*
X120312048Y-48883269D01*
X120456819Y-48883269D01*
X120459606Y-48883020D01*
X120459612Y-48883020D01*
X120528962Y-48876830D01*
X120623051Y-48868433D01*
X120839051Y-48809342D01*
X120844109Y-48806930D01*
X120844113Y-48806928D01*
X121036107Y-48715352D01*
X121036109Y-48715351D01*
X121041174Y-48712935D01*
X121149578Y-48635039D01*
X121218470Y-48585535D01*
X121218472Y-48585533D01*
X121223030Y-48582258D01*
X121378871Y-48421443D01*
X121458003Y-48303681D01*
X121500641Y-48240229D01*
X121500643Y-48240226D01*
X121503770Y-48235572D01*
X121593782Y-48030521D01*
X121646059Y-47812771D01*
X121658949Y-47589205D01*
X121632046Y-47366889D01*
X121566200Y-47152852D01*
X121463491Y-46953857D01*
X121327167Y-46776196D01*
X121323021Y-46772423D01*
X121323016Y-46772418D01*
X121165689Y-46629262D01*
X121161536Y-46625483D01*
X120971833Y-46506483D01*
X120764056Y-46422957D01*
X120758564Y-46421820D01*
X120758562Y-46421819D01*
X120607754Y-46390588D01*
X120544772Y-46377545D01*
X120540161Y-46377279D01*
X120540160Y-46377279D01*
X120489775Y-46374374D01*
X120489771Y-46374374D01*
X120487952Y-46374269D01*
X120343181Y-46374269D01*
X120340394Y-46374518D01*
X120340388Y-46374518D01*
X120271038Y-46380708D01*
X120176949Y-46389105D01*
X119960949Y-46448196D01*
X119955891Y-46450608D01*
X119955887Y-46450610D01*
X119763893Y-46542186D01*
X119758826Y-46544603D01*
X119754265Y-46547880D01*
X119754264Y-46547881D01*
X119641011Y-46629262D01*
X119576970Y-46675280D01*
X119421129Y-46836095D01*
X119418001Y-46840750D01*
X119338649Y-46958840D01*
X119296230Y-47021966D01*
X119206218Y-47227017D01*
X119153941Y-47444767D01*
X119141051Y-47668333D01*
X87654387Y-47668333D01*
X87658949Y-47589205D01*
X87632046Y-47366889D01*
X87566200Y-47152852D01*
X87463491Y-46953857D01*
X87327167Y-46776196D01*
X87323021Y-46772423D01*
X87323016Y-46772418D01*
X87165689Y-46629262D01*
X87161536Y-46625483D01*
X86971833Y-46506483D01*
X86764056Y-46422957D01*
X86758564Y-46421820D01*
X86758562Y-46421819D01*
X86607754Y-46390588D01*
X86544772Y-46377545D01*
X86540161Y-46377279D01*
X86540160Y-46377279D01*
X86489775Y-46374374D01*
X86489771Y-46374374D01*
X86487952Y-46374269D01*
X86343181Y-46374269D01*
X86340394Y-46374518D01*
X86340388Y-46374518D01*
X86271038Y-46380708D01*
X86176949Y-46389105D01*
X85960949Y-46448196D01*
X85955891Y-46450608D01*
X85955887Y-46450610D01*
X85763893Y-46542186D01*
X85758826Y-46544603D01*
X85754265Y-46547880D01*
X85754264Y-46547881D01*
X85641011Y-46629262D01*
X85576970Y-46675280D01*
X85421129Y-46836095D01*
X85418001Y-46840750D01*
X85338649Y-46958840D01*
X85296230Y-47021966D01*
X85206218Y-47227017D01*
X85153941Y-47444767D01*
X85141051Y-47668333D01*
X83654000Y-47668333D01*
X83654000Y-45008769D01*
X83674002Y-44940648D01*
X83727658Y-44894155D01*
X83780000Y-44882769D01*
X123020000Y-44882769D01*
X123088121Y-44902771D01*
G37*
%TD.AperFunction*%
%TD*%
%TA.AperFunction,Conductor*%
%TO.N,GND*%
G36*
X113284000Y-79328769D02*
G01*
X92784000Y-79328769D01*
X92784000Y-78363756D01*
X97127000Y-78363756D01*
X97133702Y-78425448D01*
X97184429Y-78560764D01*
X97189809Y-78567943D01*
X97189811Y-78567946D01*
X97249460Y-78647535D01*
X97271096Y-78676404D01*
X97278276Y-78681785D01*
X97379554Y-78757689D01*
X97379557Y-78757691D01*
X97386736Y-78763071D01*
X97476454Y-78796704D01*
X97514657Y-78811026D01*
X97514659Y-78811026D01*
X97522052Y-78813798D01*
X97529902Y-78814651D01*
X97529903Y-78814651D01*
X97580347Y-78820131D01*
X97583744Y-78820500D01*
X98504256Y-78820500D01*
X98507653Y-78820131D01*
X98558097Y-78814651D01*
X98558098Y-78814651D01*
X98565948Y-78813798D01*
X98573341Y-78811026D01*
X98573343Y-78811026D01*
X98611546Y-78796704D01*
X98701264Y-78763071D01*
X98708443Y-78757691D01*
X98708446Y-78757689D01*
X98809724Y-78681785D01*
X98816904Y-78676404D01*
X98838540Y-78647535D01*
X98898189Y-78567946D01*
X98898191Y-78567943D01*
X98903571Y-78560764D01*
X98954298Y-78425448D01*
X98961000Y-78363756D01*
X98961000Y-77682611D01*
X102178500Y-77682611D01*
X102178501Y-78273388D01*
X102184870Y-78332024D01*
X102233083Y-78460635D01*
X102238463Y-78467814D01*
X102238465Y-78467817D01*
X102301828Y-78552360D01*
X102315456Y-78570544D01*
X102322633Y-78575923D01*
X102418183Y-78647535D01*
X102418186Y-78647537D01*
X102425365Y-78652917D01*
X102433769Y-78656067D01*
X102433770Y-78656068D01*
X102546581Y-78698358D01*
X102546582Y-78698358D01*
X102553976Y-78701130D01*
X102561826Y-78701983D01*
X102561827Y-78701983D01*
X102609205Y-78707130D01*
X102612611Y-78707500D01*
X102882920Y-78707500D01*
X103153388Y-78707499D01*
X103156782Y-78707130D01*
X103156788Y-78707130D01*
X103204166Y-78701984D01*
X103204170Y-78701983D01*
X103212024Y-78701130D01*
X103340635Y-78652917D01*
X103347814Y-78647537D01*
X103347817Y-78647535D01*
X103443367Y-78575923D01*
X103450544Y-78570544D01*
X103464172Y-78552360D01*
X103527535Y-78467817D01*
X103527537Y-78467814D01*
X103532917Y-78460635D01*
X103567961Y-78367153D01*
X103569234Y-78363756D01*
X106520500Y-78363756D01*
X106527202Y-78425448D01*
X106577929Y-78560764D01*
X106583309Y-78567943D01*
X106583311Y-78567946D01*
X106642960Y-78647535D01*
X106664596Y-78676404D01*
X106671776Y-78681785D01*
X106773054Y-78757689D01*
X106773057Y-78757691D01*
X106780236Y-78763071D01*
X106869954Y-78796704D01*
X106908157Y-78811026D01*
X106908159Y-78811026D01*
X106915552Y-78813798D01*
X106923402Y-78814651D01*
X106923403Y-78814651D01*
X106973847Y-78820131D01*
X106977244Y-78820500D01*
X107897756Y-78820500D01*
X107901153Y-78820131D01*
X107951597Y-78814651D01*
X107951598Y-78814651D01*
X107959448Y-78813798D01*
X107966841Y-78811026D01*
X107966843Y-78811026D01*
X108005046Y-78796704D01*
X108094764Y-78763071D01*
X108101943Y-78757691D01*
X108101946Y-78757689D01*
X108203224Y-78681785D01*
X108210404Y-78676404D01*
X108232040Y-78647535D01*
X108291689Y-78567946D01*
X108291691Y-78567943D01*
X108297071Y-78560764D01*
X108347798Y-78425448D01*
X108354500Y-78363756D01*
X108354500Y-76068244D01*
X108347798Y-76006552D01*
X108339080Y-75983295D01*
X108323815Y-75942576D01*
X108297071Y-75871236D01*
X108291691Y-75864057D01*
X108291689Y-75864054D01*
X108215785Y-75762776D01*
X108210404Y-75755596D01*
X108125149Y-75691701D01*
X108101946Y-75674311D01*
X108101943Y-75674309D01*
X108094764Y-75668929D01*
X108005046Y-75635296D01*
X107966843Y-75620974D01*
X107966841Y-75620974D01*
X107959448Y-75618202D01*
X107951598Y-75617349D01*
X107951597Y-75617349D01*
X107901153Y-75611869D01*
X107901152Y-75611869D01*
X107897756Y-75611500D01*
X106977244Y-75611500D01*
X106973848Y-75611869D01*
X106973847Y-75611869D01*
X106923403Y-75617349D01*
X106923402Y-75617349D01*
X106915552Y-75618202D01*
X106908159Y-75620974D01*
X106908157Y-75620974D01*
X106869954Y-75635296D01*
X106780236Y-75668929D01*
X106773057Y-75674309D01*
X106773054Y-75674311D01*
X106749851Y-75691701D01*
X106664596Y-75755596D01*
X106659215Y-75762776D01*
X106583311Y-75864054D01*
X106583309Y-75864057D01*
X106577929Y-75871236D01*
X106551185Y-75942576D01*
X106535921Y-75983295D01*
X106527202Y-76006552D01*
X106520500Y-76068244D01*
X106520500Y-78363756D01*
X103569234Y-78363756D01*
X103578358Y-78339419D01*
X103578358Y-78339418D01*
X103581130Y-78332024D01*
X103587500Y-78273389D01*
X103587499Y-77682612D01*
X103581130Y-77623976D01*
X103578357Y-77616580D01*
X103577157Y-77611531D01*
X103580860Y-77540631D01*
X103622307Y-77482988D01*
X103688338Y-77456904D01*
X103739377Y-77464672D01*
X103739638Y-77463699D01*
X103747617Y-77465837D01*
X103755246Y-77468997D01*
X103900000Y-77488054D01*
X103908188Y-77486976D01*
X103938481Y-77482988D01*
X104044754Y-77468997D01*
X104055196Y-77464672D01*
X104073949Y-77456904D01*
X104179643Y-77413124D01*
X104247765Y-77360852D01*
X104313984Y-77335252D01*
X104383533Y-77349517D01*
X104401172Y-77360853D01*
X104495357Y-77433124D01*
X104630246Y-77488997D01*
X104775000Y-77508054D01*
X104783188Y-77506976D01*
X104807541Y-77503770D01*
X104919754Y-77488997D01*
X105054643Y-77433124D01*
X105148827Y-77360853D01*
X105215048Y-77335252D01*
X105284597Y-77349517D01*
X105302232Y-77360850D01*
X105370357Y-77413124D01*
X105476051Y-77456904D01*
X105494805Y-77464672D01*
X105505246Y-77468997D01*
X105650000Y-77488054D01*
X105658188Y-77486976D01*
X105688481Y-77482988D01*
X105794754Y-77468997D01*
X105805196Y-77464672D01*
X105823949Y-77456904D01*
X105929643Y-77413124D01*
X105936196Y-77408096D01*
X106038921Y-77329272D01*
X106038924Y-77329269D01*
X106045474Y-77324243D01*
X106079827Y-77279474D01*
X106129328Y-77214962D01*
X106134355Y-77208411D01*
X106190228Y-77073523D01*
X106209285Y-76928769D01*
X106194060Y-76813124D01*
X106191306Y-76792201D01*
X106191305Y-76792199D01*
X106190228Y-76784015D01*
X106170422Y-76736199D01*
X106137515Y-76656755D01*
X106137514Y-76656753D01*
X106134355Y-76649127D01*
X106045474Y-76533295D01*
X106038924Y-76528269D01*
X106038921Y-76528266D01*
X105936196Y-76449442D01*
X105936194Y-76449441D01*
X105929643Y-76444414D01*
X105794754Y-76388541D01*
X105650000Y-76369484D01*
X105626255Y-76372610D01*
X105513432Y-76387463D01*
X105513430Y-76387464D01*
X105505246Y-76388541D01*
X105459565Y-76407463D01*
X105377986Y-76441254D01*
X105377984Y-76441255D01*
X105370358Y-76444414D01*
X105322484Y-76481149D01*
X105276171Y-76516686D01*
X105209950Y-76542286D01*
X105140402Y-76528021D01*
X105122770Y-76516690D01*
X105054643Y-76464414D01*
X104919754Y-76408541D01*
X104775000Y-76389484D01*
X104766812Y-76390562D01*
X104638432Y-76407463D01*
X104638430Y-76407464D01*
X104630246Y-76408541D01*
X104603277Y-76419712D01*
X104502986Y-76461254D01*
X104502984Y-76461255D01*
X104495358Y-76464414D01*
X104488805Y-76469442D01*
X104488802Y-76469444D01*
X104427236Y-76516685D01*
X104361016Y-76542286D01*
X104291467Y-76528021D01*
X104273828Y-76516685D01*
X104246536Y-76495744D01*
X104179643Y-76444414D01*
X104044754Y-76388541D01*
X103900000Y-76369484D01*
X103876255Y-76372610D01*
X103763432Y-76387463D01*
X103763430Y-76387464D01*
X103755246Y-76388541D01*
X103679993Y-76419712D01*
X103621594Y-76443902D01*
X103551004Y-76451491D01*
X103487517Y-76419712D01*
X103451289Y-76358654D01*
X103448453Y-76311047D01*
X103458207Y-76236957D01*
X103459285Y-76228769D01*
X103440228Y-76084015D01*
X103420422Y-76036199D01*
X103387515Y-75956755D01*
X103387514Y-75956753D01*
X103384355Y-75949127D01*
X103301924Y-75841701D01*
X103300501Y-75839846D01*
X103300500Y-75839845D01*
X103295474Y-75833295D01*
X103288924Y-75828269D01*
X103288921Y-75828266D01*
X103186196Y-75749442D01*
X103186194Y-75749441D01*
X103179643Y-75744414D01*
X103044754Y-75688541D01*
X102900000Y-75669484D01*
X102891812Y-75670562D01*
X102763432Y-75687463D01*
X102763430Y-75687464D01*
X102755246Y-75688541D01*
X102707430Y-75708347D01*
X102627986Y-75741254D01*
X102627984Y-75741255D01*
X102620358Y-75744414D01*
X102504526Y-75833295D01*
X102415645Y-75949127D01*
X102412486Y-75956753D01*
X102412485Y-75956755D01*
X102379578Y-76036199D01*
X102359772Y-76084015D01*
X102340715Y-76228769D01*
X102359772Y-76373523D01*
X102362931Y-76381149D01*
X102415645Y-76508411D01*
X102414222Y-76509001D01*
X102428500Y-76562283D01*
X102428500Y-77237706D01*
X102408498Y-77305827D01*
X102378065Y-77338532D01*
X102322636Y-77380074D01*
X102322633Y-77380077D01*
X102315456Y-77385456D01*
X102310077Y-77392633D01*
X102238465Y-77488183D01*
X102238463Y-77488186D01*
X102233083Y-77495365D01*
X102184870Y-77623976D01*
X102178500Y-77682611D01*
X98961000Y-77682611D01*
X98961000Y-76328769D01*
X100090715Y-76328769D01*
X100091793Y-76336957D01*
X100108573Y-76464414D01*
X100109772Y-76473523D01*
X100112931Y-76481149D01*
X100149517Y-76569474D01*
X100165645Y-76608411D01*
X100254526Y-76724243D01*
X100261076Y-76729269D01*
X100261079Y-76729272D01*
X100363804Y-76808096D01*
X100370357Y-76813124D01*
X100505246Y-76868997D01*
X100650000Y-76888054D01*
X100658188Y-76886976D01*
X100786566Y-76870075D01*
X100794754Y-76868997D01*
X100929643Y-76813124D01*
X100936196Y-76808096D01*
X100936199Y-76808094D01*
X100940720Y-76804625D01*
X101006941Y-76779027D01*
X101076489Y-76793294D01*
X101094124Y-76804628D01*
X101170357Y-76863124D01*
X101305246Y-76918997D01*
X101450000Y-76938054D01*
X101458188Y-76936976D01*
X101458333Y-76936957D01*
X101594754Y-76918997D01*
X101729643Y-76863124D01*
X101794804Y-76813124D01*
X101838921Y-76779272D01*
X101838924Y-76779269D01*
X101845474Y-76774243D01*
X101879982Y-76729272D01*
X101929328Y-76664962D01*
X101934355Y-76658411D01*
X101952353Y-76614962D01*
X101987069Y-76531149D01*
X101990228Y-76523523D01*
X102005366Y-76408541D01*
X102007874Y-76389484D01*
X102009285Y-76378769D01*
X102003780Y-76336957D01*
X101991306Y-76242201D01*
X101991305Y-76242199D01*
X101990228Y-76234015D01*
X101934355Y-76099127D01*
X101863320Y-76006552D01*
X101850501Y-75989846D01*
X101850500Y-75989845D01*
X101845474Y-75983295D01*
X101838924Y-75978269D01*
X101838921Y-75978266D01*
X101736196Y-75899442D01*
X101736194Y-75899441D01*
X101729643Y-75894414D01*
X101594754Y-75838541D01*
X101450000Y-75819484D01*
X101441812Y-75820562D01*
X101313432Y-75837463D01*
X101313430Y-75837464D01*
X101305246Y-75838541D01*
X101278927Y-75849443D01*
X101177986Y-75891254D01*
X101177984Y-75891255D01*
X101170358Y-75894414D01*
X101163807Y-75899440D01*
X101163803Y-75899443D01*
X101159282Y-75902912D01*
X101093061Y-75928511D01*
X101023512Y-75914245D01*
X101005876Y-75902910D01*
X100975550Y-75879640D01*
X100929643Y-75844414D01*
X100794754Y-75788541D01*
X100650000Y-75769484D01*
X100641812Y-75770562D01*
X100513432Y-75787463D01*
X100513430Y-75787464D01*
X100505246Y-75788541D01*
X100457430Y-75808347D01*
X100377986Y-75841254D01*
X100377984Y-75841255D01*
X100370358Y-75844414D01*
X100254526Y-75933295D01*
X100249503Y-75939841D01*
X100230168Y-75965039D01*
X100165645Y-76049127D01*
X100162486Y-76056753D01*
X100162485Y-76056755D01*
X100144934Y-76099127D01*
X100109772Y-76184015D01*
X100090715Y-76328769D01*
X98961000Y-76328769D01*
X98961000Y-76068244D01*
X98954298Y-76006552D01*
X98945580Y-75983295D01*
X98930315Y-75942576D01*
X98903571Y-75871236D01*
X98898191Y-75864057D01*
X98898189Y-75864054D01*
X98822285Y-75762776D01*
X98816904Y-75755596D01*
X98731649Y-75691701D01*
X98708446Y-75674311D01*
X98708443Y-75674309D01*
X98701264Y-75668929D01*
X98611546Y-75635296D01*
X98573343Y-75620974D01*
X98573341Y-75620974D01*
X98565948Y-75618202D01*
X98558098Y-75617349D01*
X98558097Y-75617349D01*
X98507653Y-75611869D01*
X98507652Y-75611869D01*
X98504256Y-75611500D01*
X97583744Y-75611500D01*
X97580348Y-75611869D01*
X97580347Y-75611869D01*
X97529903Y-75617349D01*
X97529902Y-75617349D01*
X97522052Y-75618202D01*
X97514659Y-75620974D01*
X97514657Y-75620974D01*
X97476454Y-75635296D01*
X97386736Y-75668929D01*
X97379557Y-75674309D01*
X97379554Y-75674311D01*
X97356351Y-75691701D01*
X97271096Y-75755596D01*
X97265715Y-75762776D01*
X97189811Y-75864054D01*
X97189809Y-75864057D01*
X97184429Y-75871236D01*
X97157685Y-75942576D01*
X97142421Y-75983295D01*
X97133702Y-76006552D01*
X97127000Y-76068244D01*
X97127000Y-78363756D01*
X92784000Y-78363756D01*
X92784000Y-73422773D01*
X99035350Y-73422773D01*
X99036514Y-73431675D01*
X99036514Y-73431678D01*
X99039437Y-73454027D01*
X99040501Y-73470365D01*
X99040501Y-73704066D01*
X99055266Y-73778301D01*
X99111516Y-73862484D01*
X99195699Y-73918734D01*
X99269933Y-73933500D01*
X99536990Y-73933500D01*
X99539299Y-73933521D01*
X99607998Y-73934780D01*
X99611779Y-73933749D01*
X99615796Y-73933500D01*
X101753641Y-73933500D01*
X101755949Y-73933521D01*
X101815693Y-73934616D01*
X101815696Y-73934616D01*
X101824665Y-73934780D01*
X101828446Y-73933749D01*
X101832466Y-73933500D01*
X103387747Y-73933499D01*
X103970289Y-73933499D01*
X103972597Y-73933520D01*
X104041331Y-73934780D01*
X104045113Y-73933748D01*
X104049133Y-73933499D01*
X106186939Y-73933499D01*
X106189248Y-73933520D01*
X106189644Y-73933527D01*
X106249025Y-73934616D01*
X106249028Y-73934616D01*
X106257998Y-73934780D01*
X106261781Y-73933749D01*
X106265806Y-73933499D01*
X106470066Y-73933499D01*
X106505818Y-73926388D01*
X106532126Y-73921156D01*
X106532128Y-73921155D01*
X106544301Y-73918734D01*
X106554621Y-73911839D01*
X106554622Y-73911838D01*
X106618168Y-73869377D01*
X106628484Y-73862484D01*
X106684734Y-73778301D01*
X106699500Y-73704067D01*
X106699500Y-73481913D01*
X106701246Y-73461008D01*
X106704536Y-73441453D01*
X106704688Y-73429000D01*
X106700773Y-73401662D01*
X106699500Y-73383801D01*
X106699500Y-72854000D01*
X107665931Y-72854000D01*
X107684129Y-72992227D01*
X107737483Y-73121034D01*
X107822356Y-73231644D01*
X107932965Y-73316517D01*
X108024013Y-73354230D01*
X108057975Y-73368298D01*
X108098852Y-73395612D01*
X108406251Y-73703011D01*
X108416106Y-73714100D01*
X108437359Y-73741059D01*
X108445107Y-73746414D01*
X108445108Y-73746415D01*
X108481581Y-73771623D01*
X108526248Y-73826808D01*
X108528824Y-73833524D01*
X108550791Y-73896076D01*
X108631990Y-74006010D01*
X108741924Y-74087209D01*
X108870873Y-74132493D01*
X108878515Y-74133215D01*
X108878518Y-74133216D01*
X108893421Y-74134624D01*
X108902685Y-74135500D01*
X109156828Y-74135500D01*
X109411314Y-74135499D01*
X109414262Y-74135220D01*
X109414271Y-74135220D01*
X109435478Y-74133216D01*
X109435480Y-74133216D01*
X109443127Y-74132493D01*
X109572076Y-74087209D01*
X109682010Y-74006010D01*
X109763209Y-73896076D01*
X109808493Y-73767127D01*
X109811500Y-73735315D01*
X109811499Y-73076686D01*
X109808493Y-73044873D01*
X109763209Y-72915924D01*
X109682010Y-72805990D01*
X109599912Y-72745351D01*
X109557002Y-72688790D01*
X109551482Y-72618008D01*
X109585106Y-72555479D01*
X109599912Y-72542649D01*
X109674439Y-72487602D01*
X109682010Y-72482010D01*
X109763209Y-72372076D01*
X109808493Y-72243127D01*
X109809579Y-72231644D01*
X109810624Y-72220579D01*
X109811500Y-72211315D01*
X109811499Y-71552686D01*
X109811499Y-71552685D01*
X110152500Y-71552685D01*
X110152501Y-72211314D01*
X110152780Y-72214262D01*
X110152780Y-72214271D01*
X110154422Y-72231644D01*
X110155507Y-72243127D01*
X110200791Y-72372076D01*
X110281990Y-72482010D01*
X110391924Y-72563209D01*
X110520873Y-72608493D01*
X110528515Y-72609215D01*
X110528518Y-72609216D01*
X110543421Y-72610624D01*
X110552685Y-72611500D01*
X110806828Y-72611500D01*
X111061314Y-72611499D01*
X111064262Y-72611220D01*
X111064271Y-72611220D01*
X111085478Y-72609216D01*
X111085480Y-72609216D01*
X111093127Y-72608493D01*
X111222076Y-72563209D01*
X111332010Y-72482010D01*
X111413209Y-72372076D01*
X111458493Y-72243127D01*
X111459579Y-72231644D01*
X111460624Y-72220579D01*
X111461500Y-72211315D01*
X111461499Y-71552686D01*
X111458493Y-71520873D01*
X111413209Y-71391924D01*
X111332010Y-71281990D01*
X111222076Y-71200791D01*
X111093127Y-71155507D01*
X111085485Y-71154785D01*
X111085482Y-71154784D01*
X111070579Y-71153376D01*
X111061315Y-71152500D01*
X110807172Y-71152500D01*
X110552686Y-71152501D01*
X110549738Y-71152780D01*
X110549729Y-71152780D01*
X110528522Y-71154784D01*
X110528520Y-71154784D01*
X110520873Y-71155507D01*
X110391924Y-71200791D01*
X110281990Y-71281990D01*
X110200791Y-71391924D01*
X110155507Y-71520873D01*
X110152500Y-71552685D01*
X109811499Y-71552685D01*
X109808493Y-71520873D01*
X109763209Y-71391924D01*
X109682010Y-71281990D01*
X109631038Y-71244341D01*
X109599912Y-71221351D01*
X109557002Y-71164790D01*
X109551482Y-71094008D01*
X109585106Y-71031479D01*
X109599912Y-71018649D01*
X109674439Y-70963602D01*
X109682010Y-70958010D01*
X109763209Y-70848076D01*
X109808493Y-70719127D01*
X109811500Y-70687315D01*
X109811499Y-70028686D01*
X109808493Y-69996873D01*
X109763209Y-69867924D01*
X109682010Y-69757990D01*
X109599912Y-69697351D01*
X109557002Y-69640790D01*
X109551482Y-69570008D01*
X109585106Y-69507479D01*
X109599912Y-69494649D01*
X109674439Y-69439602D01*
X109682010Y-69434010D01*
X109763209Y-69324076D01*
X109808493Y-69195127D01*
X109811500Y-69163315D01*
X109811499Y-68504686D01*
X109811499Y-68504685D01*
X110152500Y-68504685D01*
X110152501Y-69163314D01*
X110152780Y-69166262D01*
X110152780Y-69166271D01*
X110153547Y-69174387D01*
X110155507Y-69195127D01*
X110200791Y-69324076D01*
X110281990Y-69434010D01*
X110391924Y-69515209D01*
X110520873Y-69560493D01*
X110528515Y-69561215D01*
X110528518Y-69561216D01*
X110543421Y-69562624D01*
X110552685Y-69563500D01*
X110806828Y-69563500D01*
X111061314Y-69563499D01*
X111064262Y-69563220D01*
X111064271Y-69563220D01*
X111085478Y-69561216D01*
X111085480Y-69561216D01*
X111093127Y-69560493D01*
X111222076Y-69515209D01*
X111332010Y-69434010D01*
X111413209Y-69324076D01*
X111458493Y-69195127D01*
X111461500Y-69163315D01*
X111461499Y-68504686D01*
X111459442Y-68482909D01*
X111459216Y-68480522D01*
X111459215Y-68480518D01*
X111458493Y-68472873D01*
X111413209Y-68343924D01*
X111332010Y-68233990D01*
X111222076Y-68152791D01*
X111093127Y-68107507D01*
X111085485Y-68106785D01*
X111085482Y-68106784D01*
X111070579Y-68105376D01*
X111061315Y-68104500D01*
X110807172Y-68104500D01*
X110552686Y-68104501D01*
X110549738Y-68104780D01*
X110549729Y-68104780D01*
X110528522Y-68106784D01*
X110528520Y-68106784D01*
X110520873Y-68107507D01*
X110391924Y-68152791D01*
X110281990Y-68233990D01*
X110200791Y-68343924D01*
X110155507Y-68472873D01*
X110152500Y-68504685D01*
X109811499Y-68504685D01*
X109809442Y-68482909D01*
X109809216Y-68480522D01*
X109809215Y-68480518D01*
X109808493Y-68472873D01*
X109763209Y-68343924D01*
X109682010Y-68233990D01*
X109599912Y-68173351D01*
X109557002Y-68116790D01*
X109551482Y-68046008D01*
X109585106Y-67983479D01*
X109599912Y-67970649D01*
X109674439Y-67915602D01*
X109682010Y-67910010D01*
X109763209Y-67800076D01*
X109808493Y-67671127D01*
X109811500Y-67639315D01*
X109811499Y-66980686D01*
X109808493Y-66948873D01*
X109763209Y-66819924D01*
X109682010Y-66709990D01*
X109599912Y-66649351D01*
X109557002Y-66592790D01*
X109551482Y-66522008D01*
X109585106Y-66459479D01*
X109599912Y-66446649D01*
X109648189Y-66410991D01*
X109682010Y-66386010D01*
X109763209Y-66276076D01*
X109808493Y-66147127D01*
X109811500Y-66115315D01*
X109811499Y-65456686D01*
X109811499Y-65456685D01*
X110152500Y-65456685D01*
X110152501Y-66115314D01*
X110152780Y-66118262D01*
X110152780Y-66118271D01*
X110153547Y-66126387D01*
X110155507Y-66147127D01*
X110200791Y-66276076D01*
X110281990Y-66386010D01*
X110391924Y-66467209D01*
X110520873Y-66512493D01*
X110528515Y-66513215D01*
X110528518Y-66513216D01*
X110543421Y-66514624D01*
X110552685Y-66515500D01*
X110806828Y-66515500D01*
X111061314Y-66515499D01*
X111064262Y-66515220D01*
X111064271Y-66515220D01*
X111085478Y-66513216D01*
X111085480Y-66513216D01*
X111093127Y-66512493D01*
X111222076Y-66467209D01*
X111332010Y-66386010D01*
X111413209Y-66276076D01*
X111458493Y-66147127D01*
X111461500Y-66115315D01*
X111461499Y-65456686D01*
X111458493Y-65424873D01*
X111413209Y-65295924D01*
X111332010Y-65185990D01*
X111222076Y-65104791D01*
X111093127Y-65059507D01*
X111085485Y-65058785D01*
X111085482Y-65058784D01*
X111070579Y-65057376D01*
X111061315Y-65056500D01*
X110807172Y-65056500D01*
X110552686Y-65056501D01*
X110549738Y-65056780D01*
X110549729Y-65056780D01*
X110528522Y-65058784D01*
X110528520Y-65058784D01*
X110520873Y-65059507D01*
X110391924Y-65104791D01*
X110281990Y-65185990D01*
X110200791Y-65295924D01*
X110155507Y-65424873D01*
X110152500Y-65456685D01*
X109811499Y-65456685D01*
X109808493Y-65424873D01*
X109763209Y-65295924D01*
X109682010Y-65185990D01*
X109572076Y-65104791D01*
X109443127Y-65059507D01*
X109435485Y-65058785D01*
X109435482Y-65058784D01*
X109420579Y-65057376D01*
X109411315Y-65056500D01*
X109157172Y-65056500D01*
X108902686Y-65056501D01*
X108899738Y-65056780D01*
X108899729Y-65056780D01*
X108878522Y-65058784D01*
X108878520Y-65058784D01*
X108870873Y-65059507D01*
X108741924Y-65104791D01*
X108631990Y-65185990D01*
X108550791Y-65295924D01*
X108505507Y-65424873D01*
X108502500Y-65456685D01*
X108502501Y-66115314D01*
X108502780Y-66118262D01*
X108502780Y-66118271D01*
X108503547Y-66126387D01*
X108505507Y-66147127D01*
X108508052Y-66154374D01*
X108508053Y-66154377D01*
X108519035Y-66185649D01*
X108522734Y-66256550D01*
X108487515Y-66318194D01*
X108424558Y-66351012D01*
X108351935Y-66343807D01*
X108345857Y-66341289D01*
X108345854Y-66341288D01*
X108338227Y-66338129D01*
X108200000Y-66319931D01*
X108061773Y-66338129D01*
X107932966Y-66391483D01*
X107926412Y-66396512D01*
X107830993Y-66469729D01*
X107822356Y-66476356D01*
X107737483Y-66586966D01*
X107684129Y-66715773D01*
X107665931Y-66854000D01*
X107684129Y-66992227D01*
X107737483Y-67121034D01*
X107822356Y-67231644D01*
X107932965Y-67316517D01*
X107976035Y-67334357D01*
X108016911Y-67361671D01*
X108262251Y-67607011D01*
X108272106Y-67618100D01*
X108293359Y-67645059D01*
X108301106Y-67650413D01*
X108301110Y-67650417D01*
X108342072Y-67678728D01*
X108345292Y-67681029D01*
X108385342Y-67710610D01*
X108385344Y-67710611D01*
X108392923Y-67716209D01*
X108399798Y-67718623D01*
X108405789Y-67722764D01*
X108462302Y-67740636D01*
X108465969Y-67741860D01*
X108487718Y-67749498D01*
X108545363Y-67790940D01*
X108550216Y-67798439D01*
X108550791Y-67800076D01*
X108631990Y-67910010D01*
X108639561Y-67915602D01*
X108714088Y-67970649D01*
X108756998Y-68027210D01*
X108762518Y-68097992D01*
X108728894Y-68160521D01*
X108714088Y-68173351D01*
X108631990Y-68233990D01*
X108550791Y-68343924D01*
X108505507Y-68472873D01*
X108502500Y-68504685D01*
X108502501Y-69163314D01*
X108502780Y-69166262D01*
X108502780Y-69166271D01*
X108503547Y-69174387D01*
X108505507Y-69195127D01*
X108505990Y-69196503D01*
X108501235Y-69264652D01*
X108458787Y-69321562D01*
X108392310Y-69346488D01*
X108350491Y-69342531D01*
X108345855Y-69341289D01*
X108338227Y-69338129D01*
X108330043Y-69337052D01*
X108330041Y-69337051D01*
X108208188Y-69321009D01*
X108200000Y-69319931D01*
X108175534Y-69323152D01*
X108110971Y-69331652D01*
X108061773Y-69338129D01*
X107932966Y-69391483D01*
X107822356Y-69476356D01*
X107737483Y-69586966D01*
X107684129Y-69715773D01*
X107665931Y-69854000D01*
X107684129Y-69992227D01*
X107737483Y-70121034D01*
X107822356Y-70231644D01*
X107932965Y-70316517D01*
X108008132Y-70347652D01*
X108057975Y-70368298D01*
X108098852Y-70395612D01*
X108358251Y-70655011D01*
X108368106Y-70666100D01*
X108389359Y-70693059D01*
X108397106Y-70698413D01*
X108438094Y-70726742D01*
X108441287Y-70729024D01*
X108488924Y-70764209D01*
X108488754Y-70764438D01*
X108535323Y-70809830D01*
X108544398Y-70829874D01*
X108547668Y-70839185D01*
X108547670Y-70839188D01*
X108550791Y-70848076D01*
X108631990Y-70958010D01*
X108639561Y-70963602D01*
X108714088Y-71018649D01*
X108756998Y-71075210D01*
X108762518Y-71145992D01*
X108728894Y-71208521D01*
X108714088Y-71221351D01*
X108682962Y-71244341D01*
X108631990Y-71281990D01*
X108550791Y-71391924D01*
X108505507Y-71520873D01*
X108502500Y-71552685D01*
X108502501Y-72211314D01*
X108502695Y-72213365D01*
X108485962Y-72282204D01*
X108434557Y-72331174D01*
X108364838Y-72344579D01*
X108345263Y-72341043D01*
X108338227Y-72338129D01*
X108330037Y-72337051D01*
X108330034Y-72337050D01*
X108208188Y-72321009D01*
X108200000Y-72319931D01*
X108061773Y-72338129D01*
X107932966Y-72391483D01*
X107822356Y-72476356D01*
X107737483Y-72586966D01*
X107684129Y-72715773D01*
X107665931Y-72854000D01*
X106699500Y-72854000D01*
X106699500Y-71265245D01*
X106701246Y-71244341D01*
X106703729Y-71229581D01*
X106704536Y-71224786D01*
X106704688Y-71212333D01*
X106700772Y-71184986D01*
X106699500Y-71167125D01*
X106699499Y-69048586D01*
X106701245Y-69027680D01*
X106703730Y-69012912D01*
X106703730Y-69012909D01*
X106704536Y-69008120D01*
X106704688Y-68995667D01*
X106703797Y-68989440D01*
X106700772Y-68968325D01*
X106699499Y-68950461D01*
X106699499Y-66831919D01*
X106701245Y-66811014D01*
X106703729Y-66796247D01*
X106704536Y-66791453D01*
X106704688Y-66779000D01*
X106700772Y-66751656D01*
X106699499Y-66733794D01*
X106699499Y-66503934D01*
X106688477Y-66448518D01*
X106687156Y-66441874D01*
X106687155Y-66441872D01*
X106684734Y-66429699D01*
X106657087Y-66388322D01*
X106635377Y-66355832D01*
X106628484Y-66345516D01*
X106544301Y-66289266D01*
X106470067Y-66274500D01*
X106203608Y-66274500D01*
X106202839Y-66274498D01*
X106125827Y-66274028D01*
X106124492Y-66274410D01*
X106123164Y-66274500D01*
X103986991Y-66274500D01*
X103986223Y-66274498D01*
X103909160Y-66274028D01*
X103907824Y-66274409D01*
X103906494Y-66274500D01*
X102420309Y-66274501D01*
X101770378Y-66274501D01*
X101769608Y-66274499D01*
X101766584Y-66274481D01*
X101692494Y-66274028D01*
X101691157Y-66274410D01*
X101689828Y-66274501D01*
X99553760Y-66274501D01*
X99552991Y-66274499D01*
X99475827Y-66274028D01*
X99474490Y-66274410D01*
X99473158Y-66274501D01*
X99269934Y-66274501D01*
X99234182Y-66281612D01*
X99207874Y-66286844D01*
X99207872Y-66286845D01*
X99195699Y-66289266D01*
X99185379Y-66296161D01*
X99185378Y-66296162D01*
X99148193Y-66321009D01*
X99111516Y-66345516D01*
X99055266Y-66429699D01*
X99040500Y-66503933D01*
X99040500Y-66729946D01*
X99039000Y-66749331D01*
X99035350Y-66772773D01*
X99036514Y-66781675D01*
X99036514Y-66781678D01*
X99039436Y-66804019D01*
X99040500Y-66820357D01*
X99040500Y-68946612D01*
X99039000Y-68965995D01*
X99036731Y-68980566D01*
X99036731Y-68980570D01*
X99035350Y-68989440D01*
X99036514Y-68998342D01*
X99036514Y-68998345D01*
X99039436Y-69020688D01*
X99040500Y-69037025D01*
X99040501Y-71163273D01*
X99039001Y-71182659D01*
X99035350Y-71206106D01*
X99037157Y-71219924D01*
X99039437Y-71237358D01*
X99040501Y-71253697D01*
X99040501Y-73379940D01*
X99039001Y-73399324D01*
X99035350Y-73422773D01*
X92784000Y-73422773D01*
X92784000Y-71044685D01*
X95865500Y-71044685D01*
X95865501Y-71703314D01*
X95868507Y-71735127D01*
X95913791Y-71864076D01*
X95994990Y-71974010D01*
X96104924Y-72055209D01*
X96233873Y-72100493D01*
X96241515Y-72101215D01*
X96241518Y-72101216D01*
X96256421Y-72102624D01*
X96265685Y-72103500D01*
X96519828Y-72103500D01*
X96774314Y-72103499D01*
X96777262Y-72103220D01*
X96777271Y-72103220D01*
X96798478Y-72101216D01*
X96798480Y-72101216D01*
X96806127Y-72100493D01*
X96935076Y-72055209D01*
X96936677Y-72054026D01*
X97002400Y-72040612D01*
X97068595Y-72066276D01*
X97100147Y-72107432D01*
X97102193Y-72106251D01*
X97106322Y-72113402D01*
X97109483Y-72121034D01*
X97194356Y-72231644D01*
X97304965Y-72316517D01*
X97433773Y-72369871D01*
X97441961Y-72370949D01*
X97502887Y-72378970D01*
X97572000Y-72388069D01*
X97580188Y-72386991D01*
X97702039Y-72370949D01*
X97710227Y-72369871D01*
X97839035Y-72316517D01*
X97949644Y-72231644D01*
X98034517Y-72121034D01*
X98087871Y-71992227D01*
X98106069Y-71854000D01*
X98096970Y-71784886D01*
X98088949Y-71723961D01*
X98087871Y-71715773D01*
X98034517Y-71586966D01*
X97949644Y-71476356D01*
X97839035Y-71391483D01*
X97714026Y-71339702D01*
X97673148Y-71312388D01*
X97437749Y-71076989D01*
X97427894Y-71065900D01*
X97426835Y-71064556D01*
X97406641Y-71038941D01*
X97358438Y-71005626D01*
X97357906Y-71005258D01*
X97354713Y-71002976D01*
X97307076Y-70967791D01*
X97300203Y-70965377D01*
X97294211Y-70961236D01*
X97237722Y-70943371D01*
X97234001Y-70942129D01*
X97183076Y-70924245D01*
X97123476Y-70880223D01*
X97050605Y-70781564D01*
X97050602Y-70781561D01*
X97045010Y-70773990D01*
X96981042Y-70726742D01*
X96962912Y-70713351D01*
X96920002Y-70656790D01*
X96914482Y-70586008D01*
X96948106Y-70523479D01*
X96962912Y-70510649D01*
X97037439Y-70455602D01*
X97045010Y-70450010D01*
X97126209Y-70340076D01*
X97171493Y-70211127D01*
X97174500Y-70179315D01*
X97174499Y-69520686D01*
X97173982Y-69515209D01*
X97172216Y-69496522D01*
X97172215Y-69496518D01*
X97171493Y-69488873D01*
X97168947Y-69481623D01*
X97167302Y-69474125D01*
X97170556Y-69473411D01*
X97167735Y-69417442D01*
X97203063Y-69355860D01*
X97266077Y-69323152D01*
X97338481Y-69330400D01*
X97433773Y-69369871D01*
X97572000Y-69388069D01*
X97580188Y-69386991D01*
X97702039Y-69370949D01*
X97710227Y-69369871D01*
X97839035Y-69316517D01*
X97949644Y-69231644D01*
X98034517Y-69121034D01*
X98087871Y-68992227D01*
X98106069Y-68854000D01*
X98087871Y-68715773D01*
X98034517Y-68586966D01*
X97949644Y-68476356D01*
X97935661Y-68465626D01*
X97845586Y-68396510D01*
X97839035Y-68391483D01*
X97745675Y-68352812D01*
X97714025Y-68339702D01*
X97673148Y-68312388D01*
X97389749Y-68028989D01*
X97379894Y-68017900D01*
X97378835Y-68016556D01*
X97358641Y-67990941D01*
X97310438Y-67957626D01*
X97309906Y-67957258D01*
X97306713Y-67954976D01*
X97259076Y-67919791D01*
X97252203Y-67917377D01*
X97246211Y-67913236D01*
X97236011Y-67910010D01*
X97198549Y-67898163D01*
X97139630Y-67858552D01*
X97128121Y-67841367D01*
X97126209Y-67835924D01*
X97045010Y-67725990D01*
X96984138Y-67681029D01*
X96962912Y-67665351D01*
X96920002Y-67608790D01*
X96914482Y-67538008D01*
X96948106Y-67475479D01*
X96962912Y-67462649D01*
X97037439Y-67407602D01*
X97045010Y-67402010D01*
X97126209Y-67292076D01*
X97171493Y-67163127D01*
X97174500Y-67131315D01*
X97174499Y-66472686D01*
X97173982Y-66467209D01*
X97172216Y-66448522D01*
X97172215Y-66448518D01*
X97171493Y-66440873D01*
X97126209Y-66311924D01*
X97045010Y-66201990D01*
X96935076Y-66120791D01*
X96806127Y-66075507D01*
X96798485Y-66074785D01*
X96798482Y-66074784D01*
X96783579Y-66073376D01*
X96774315Y-66072500D01*
X96520172Y-66072500D01*
X96265686Y-66072501D01*
X96262738Y-66072780D01*
X96262729Y-66072780D01*
X96241522Y-66074784D01*
X96241520Y-66074784D01*
X96233873Y-66075507D01*
X96104924Y-66120791D01*
X95994990Y-66201990D01*
X95913791Y-66311924D01*
X95868507Y-66440873D01*
X95865500Y-66472685D01*
X95865501Y-67131314D01*
X95868507Y-67163127D01*
X95913791Y-67292076D01*
X95994990Y-67402010D01*
X96002561Y-67407602D01*
X96077088Y-67462649D01*
X96119998Y-67519210D01*
X96125518Y-67589992D01*
X96091894Y-67652521D01*
X96077088Y-67665351D01*
X96055862Y-67681029D01*
X95994990Y-67725990D01*
X95913791Y-67835924D01*
X95868507Y-67964873D01*
X95865500Y-67996685D01*
X95865501Y-68655314D01*
X95868507Y-68687127D01*
X95913791Y-68816076D01*
X95994990Y-68926010D01*
X96002561Y-68931602D01*
X96077088Y-68986649D01*
X96119998Y-69043210D01*
X96125518Y-69113992D01*
X96091894Y-69176521D01*
X96077088Y-69189351D01*
X96059452Y-69202377D01*
X95994990Y-69249990D01*
X95913791Y-69359924D01*
X95868507Y-69488873D01*
X95865500Y-69520685D01*
X95865501Y-70179314D01*
X95868507Y-70211127D01*
X95913791Y-70340076D01*
X95994990Y-70450010D01*
X96002561Y-70455602D01*
X96077088Y-70510649D01*
X96119998Y-70567210D01*
X96125518Y-70637992D01*
X96091894Y-70700521D01*
X96077088Y-70713351D01*
X96058958Y-70726742D01*
X95994990Y-70773990D01*
X95913791Y-70883924D01*
X95868507Y-71012873D01*
X95865500Y-71044685D01*
X92784000Y-71044685D01*
X92784000Y-69520685D01*
X94215500Y-69520685D01*
X94215501Y-70179314D01*
X94218507Y-70211127D01*
X94263791Y-70340076D01*
X94344990Y-70450010D01*
X94454924Y-70531209D01*
X94583873Y-70576493D01*
X94591515Y-70577215D01*
X94591518Y-70577216D01*
X94606421Y-70578624D01*
X94615685Y-70579500D01*
X94869828Y-70579500D01*
X95124314Y-70579499D01*
X95127262Y-70579220D01*
X95127271Y-70579220D01*
X95148478Y-70577216D01*
X95148480Y-70577216D01*
X95156127Y-70576493D01*
X95285076Y-70531209D01*
X95395010Y-70450010D01*
X95476209Y-70340076D01*
X95521493Y-70211127D01*
X95524500Y-70179315D01*
X95524499Y-69520686D01*
X95523982Y-69515209D01*
X95522216Y-69496522D01*
X95522215Y-69496518D01*
X95521493Y-69488873D01*
X95476209Y-69359924D01*
X95395010Y-69249990D01*
X95285076Y-69168791D01*
X95156127Y-69123507D01*
X95148485Y-69122785D01*
X95148482Y-69122784D01*
X95133579Y-69121376D01*
X95124315Y-69120500D01*
X94870172Y-69120500D01*
X94615686Y-69120501D01*
X94612738Y-69120780D01*
X94612729Y-69120780D01*
X94591522Y-69122784D01*
X94591520Y-69122784D01*
X94583873Y-69123507D01*
X94454924Y-69168791D01*
X94344990Y-69249990D01*
X94263791Y-69359924D01*
X94218507Y-69488873D01*
X94215500Y-69520685D01*
X92784000Y-69520685D01*
X92784000Y-66472685D01*
X94215500Y-66472685D01*
X94215501Y-67131314D01*
X94218507Y-67163127D01*
X94263791Y-67292076D01*
X94344990Y-67402010D01*
X94454924Y-67483209D01*
X94583873Y-67528493D01*
X94591515Y-67529215D01*
X94591518Y-67529216D01*
X94606421Y-67530624D01*
X94615685Y-67531500D01*
X94869828Y-67531500D01*
X95124314Y-67531499D01*
X95127262Y-67531220D01*
X95127271Y-67531220D01*
X95148478Y-67529216D01*
X95148480Y-67529216D01*
X95156127Y-67528493D01*
X95285076Y-67483209D01*
X95395010Y-67402010D01*
X95476209Y-67292076D01*
X95521493Y-67163127D01*
X95524500Y-67131315D01*
X95524499Y-66472686D01*
X95523982Y-66467209D01*
X95522216Y-66448522D01*
X95522215Y-66448518D01*
X95521493Y-66440873D01*
X95476209Y-66311924D01*
X95395010Y-66201990D01*
X95285076Y-66120791D01*
X95156127Y-66075507D01*
X95148485Y-66074785D01*
X95148482Y-66074784D01*
X95133579Y-66073376D01*
X95124315Y-66072500D01*
X94870172Y-66072500D01*
X94615686Y-66072501D01*
X94612738Y-66072780D01*
X94612729Y-66072780D01*
X94591522Y-66074784D01*
X94591520Y-66074784D01*
X94583873Y-66075507D01*
X94454924Y-66120791D01*
X94344990Y-66201990D01*
X94263791Y-66311924D01*
X94218507Y-66440873D01*
X94215500Y-66472685D01*
X92784000Y-66472685D01*
X92784000Y-64770000D01*
X98585931Y-64770000D01*
X98604129Y-64908227D01*
X98657483Y-65037034D01*
X98742356Y-65147644D01*
X98852965Y-65232517D01*
X98981773Y-65285871D01*
X98989961Y-65286949D01*
X99032254Y-65292517D01*
X99120000Y-65304069D01*
X99128188Y-65302991D01*
X99250039Y-65286949D01*
X99258227Y-65285871D01*
X99387035Y-65232517D01*
X99497644Y-65147644D01*
X99582517Y-65037034D01*
X99634299Y-64912023D01*
X99661612Y-64871148D01*
X99865011Y-64667749D01*
X99876100Y-64657894D01*
X99887837Y-64648641D01*
X99903059Y-64636641D01*
X99928448Y-64599906D01*
X99936742Y-64587906D01*
X99939024Y-64584713D01*
X99974209Y-64537076D01*
X99976623Y-64530203D01*
X99980764Y-64524211D01*
X99998629Y-64467722D01*
X99999880Y-64463973D01*
X100011856Y-64429872D01*
X100019493Y-64408126D01*
X100019776Y-64400922D01*
X100019809Y-64400751D01*
X100021975Y-64393903D01*
X100022500Y-64387232D01*
X100022500Y-64385148D01*
X100023328Y-64382688D01*
X100023912Y-64379693D01*
X100024311Y-64379771D01*
X100045147Y-64317916D01*
X100073526Y-64288798D01*
X100160439Y-64224602D01*
X100168010Y-64219010D01*
X100228649Y-64136912D01*
X100285210Y-64094002D01*
X100355992Y-64088482D01*
X100418521Y-64122106D01*
X100431351Y-64136912D01*
X100491990Y-64219010D01*
X100601924Y-64300209D01*
X100730873Y-64345493D01*
X100738515Y-64346215D01*
X100738518Y-64346216D01*
X100753421Y-64347624D01*
X100762685Y-64348500D01*
X101091777Y-64348500D01*
X101421314Y-64348499D01*
X101424262Y-64348220D01*
X101424271Y-64348220D01*
X101445478Y-64346216D01*
X101445480Y-64346216D01*
X101453127Y-64345493D01*
X101561870Y-64307305D01*
X101632769Y-64303607D01*
X101694413Y-64338827D01*
X101727231Y-64401783D01*
X101720802Y-64472488D01*
X101703583Y-64502886D01*
X101657483Y-64562966D01*
X101639463Y-64606471D01*
X101609110Y-64679749D01*
X101604129Y-64691773D01*
X101585931Y-64830000D01*
X101604129Y-64968227D01*
X101657483Y-65097034D01*
X101742356Y-65207644D01*
X101852965Y-65292517D01*
X101981773Y-65345871D01*
X102120000Y-65364069D01*
X102128188Y-65362991D01*
X102250039Y-65346949D01*
X102258227Y-65345871D01*
X102387035Y-65292517D01*
X102497644Y-65207644D01*
X102582517Y-65097034D01*
X102634299Y-64972023D01*
X102661612Y-64931148D01*
X102913011Y-64679749D01*
X102924100Y-64669894D01*
X102926821Y-64667749D01*
X102951059Y-64648641D01*
X102969545Y-64621894D01*
X102984742Y-64599906D01*
X102987024Y-64596713D01*
X103022209Y-64549076D01*
X103024623Y-64542203D01*
X103028764Y-64536211D01*
X103046629Y-64479722D01*
X103047880Y-64475973D01*
X103051429Y-64465868D01*
X103067493Y-64420126D01*
X103067776Y-64412922D01*
X103067809Y-64412751D01*
X103069975Y-64405903D01*
X103070500Y-64399232D01*
X103070500Y-64390064D01*
X103090502Y-64321943D01*
X103121641Y-64288713D01*
X103208436Y-64224605D01*
X103208439Y-64224602D01*
X103216010Y-64219010D01*
X103276649Y-64136912D01*
X103333210Y-64094002D01*
X103403992Y-64088482D01*
X103466521Y-64122106D01*
X103479351Y-64136912D01*
X103539990Y-64219010D01*
X103649924Y-64300209D01*
X103778873Y-64345493D01*
X103786515Y-64346215D01*
X103786518Y-64346216D01*
X103801421Y-64347624D01*
X103810685Y-64348500D01*
X104139777Y-64348500D01*
X104469314Y-64348499D01*
X104472262Y-64348220D01*
X104472271Y-64348220D01*
X104493478Y-64346216D01*
X104493480Y-64346216D01*
X104501127Y-64345493D01*
X104544165Y-64330379D01*
X104615064Y-64326681D01*
X104676709Y-64361901D01*
X104709526Y-64424858D01*
X104703097Y-64495562D01*
X104685875Y-64525965D01*
X104657483Y-64562966D01*
X104639463Y-64606471D01*
X104609110Y-64679749D01*
X104604129Y-64691773D01*
X104585931Y-64830000D01*
X104604129Y-64968227D01*
X104657483Y-65097034D01*
X104742356Y-65207644D01*
X104852965Y-65292517D01*
X104981773Y-65345871D01*
X105120000Y-65364069D01*
X105128188Y-65362991D01*
X105250039Y-65346949D01*
X105258227Y-65345871D01*
X105387035Y-65292517D01*
X105497644Y-65207644D01*
X105582517Y-65097034D01*
X105634299Y-64972023D01*
X105661612Y-64931148D01*
X105961011Y-64631749D01*
X105972100Y-64621894D01*
X105973444Y-64620835D01*
X105999059Y-64600641D01*
X106004413Y-64592894D01*
X106004417Y-64592890D01*
X106032728Y-64551928D01*
X106035029Y-64548708D01*
X106064610Y-64508658D01*
X106064611Y-64508656D01*
X106070209Y-64501077D01*
X106072623Y-64494202D01*
X106076764Y-64488211D01*
X106094609Y-64431785D01*
X106095860Y-64428035D01*
X106112372Y-64381016D01*
X106112373Y-64381010D01*
X106115493Y-64372126D01*
X106115726Y-64366192D01*
X106117200Y-64360355D01*
X106117969Y-64357922D01*
X106120752Y-64358802D01*
X106147344Y-64307468D01*
X106163505Y-64293245D01*
X106256436Y-64224605D01*
X106256439Y-64224602D01*
X106264010Y-64219010D01*
X106345209Y-64109076D01*
X106390493Y-63980127D01*
X106393500Y-63948315D01*
X106393499Y-63439686D01*
X106390493Y-63407873D01*
X106345209Y-63278924D01*
X106264010Y-63168990D01*
X106154076Y-63087791D01*
X106025127Y-63042507D01*
X106017485Y-63041785D01*
X106017482Y-63041784D01*
X106002579Y-63040376D01*
X105993315Y-63039500D01*
X105664223Y-63039500D01*
X105334686Y-63039501D01*
X105331738Y-63039780D01*
X105331729Y-63039780D01*
X105310522Y-63041784D01*
X105310520Y-63041784D01*
X105302873Y-63042507D01*
X105173924Y-63087791D01*
X105063990Y-63168990D01*
X105058398Y-63176561D01*
X105003351Y-63251088D01*
X104946790Y-63293998D01*
X104876008Y-63299518D01*
X104813479Y-63265894D01*
X104800649Y-63251088D01*
X104745602Y-63176561D01*
X104740010Y-63168990D01*
X104630076Y-63087791D01*
X104501127Y-63042507D01*
X104493485Y-63041785D01*
X104493482Y-63041784D01*
X104478579Y-63040376D01*
X104469315Y-63039500D01*
X104140223Y-63039500D01*
X103810686Y-63039501D01*
X103807738Y-63039780D01*
X103807729Y-63039780D01*
X103786522Y-63041784D01*
X103786520Y-63041784D01*
X103778873Y-63042507D01*
X103649924Y-63087791D01*
X103539990Y-63168990D01*
X103534398Y-63176561D01*
X103479351Y-63251088D01*
X103422790Y-63293998D01*
X103352008Y-63299518D01*
X103289479Y-63265894D01*
X103276649Y-63251088D01*
X103221602Y-63176561D01*
X103216010Y-63168990D01*
X103106076Y-63087791D01*
X102977127Y-63042507D01*
X102969485Y-63041785D01*
X102969482Y-63041784D01*
X102954579Y-63040376D01*
X102945315Y-63039500D01*
X102616223Y-63039500D01*
X102286686Y-63039501D01*
X102283738Y-63039780D01*
X102283729Y-63039780D01*
X102262522Y-63041784D01*
X102262520Y-63041784D01*
X102254873Y-63042507D01*
X102125924Y-63087791D01*
X102015990Y-63168990D01*
X102010398Y-63176561D01*
X101955351Y-63251088D01*
X101898790Y-63293998D01*
X101828008Y-63299518D01*
X101765479Y-63265894D01*
X101752649Y-63251088D01*
X101697602Y-63176561D01*
X101692010Y-63168990D01*
X101582076Y-63087791D01*
X101453127Y-63042507D01*
X101445485Y-63041785D01*
X101445482Y-63041784D01*
X101430579Y-63040376D01*
X101421315Y-63039500D01*
X101092223Y-63039500D01*
X100762686Y-63039501D01*
X100759738Y-63039780D01*
X100759729Y-63039780D01*
X100738522Y-63041784D01*
X100738520Y-63041784D01*
X100730873Y-63042507D01*
X100601924Y-63087791D01*
X100491990Y-63168990D01*
X100486398Y-63176561D01*
X100431351Y-63251088D01*
X100374790Y-63293998D01*
X100304008Y-63299518D01*
X100241479Y-63265894D01*
X100228649Y-63251088D01*
X100173602Y-63176561D01*
X100168010Y-63168990D01*
X100058076Y-63087791D01*
X99929127Y-63042507D01*
X99921485Y-63041785D01*
X99921482Y-63041784D01*
X99906579Y-63040376D01*
X99897315Y-63039500D01*
X99568223Y-63039500D01*
X99238686Y-63039501D01*
X99235738Y-63039780D01*
X99235729Y-63039780D01*
X99214522Y-63041784D01*
X99214520Y-63041784D01*
X99206873Y-63042507D01*
X99077924Y-63087791D01*
X98967990Y-63168990D01*
X98886791Y-63278924D01*
X98841507Y-63407873D01*
X98838500Y-63439685D01*
X98838501Y-63948314D01*
X98841507Y-63980127D01*
X98886791Y-64109076D01*
X98892386Y-64116650D01*
X98892388Y-64116655D01*
X98896260Y-64121897D01*
X98920642Y-64188576D01*
X98905104Y-64257851D01*
X98858634Y-64305135D01*
X98852966Y-64307483D01*
X98846418Y-64312508D01*
X98846417Y-64312508D01*
X98765345Y-64374716D01*
X98742356Y-64392356D01*
X98657483Y-64502966D01*
X98604129Y-64631773D01*
X98585931Y-64770000D01*
X92784000Y-64770000D01*
X92784000Y-61789685D01*
X100362500Y-61789685D01*
X100362501Y-62298314D01*
X100365507Y-62330127D01*
X100410791Y-62459076D01*
X100491990Y-62569010D01*
X100601924Y-62650209D01*
X100730873Y-62695493D01*
X100738515Y-62696215D01*
X100738518Y-62696216D01*
X100753421Y-62697624D01*
X100762685Y-62698500D01*
X101091777Y-62698500D01*
X101421314Y-62698499D01*
X101424262Y-62698220D01*
X101424271Y-62698220D01*
X101445478Y-62696216D01*
X101445480Y-62696216D01*
X101453127Y-62695493D01*
X101582076Y-62650209D01*
X101692010Y-62569010D01*
X101773209Y-62459076D01*
X101818493Y-62330127D01*
X101821500Y-62298315D01*
X101821499Y-61789686D01*
X101821499Y-61789685D01*
X103410500Y-61789685D01*
X103410501Y-62298314D01*
X103413507Y-62330127D01*
X103458791Y-62459076D01*
X103539990Y-62569010D01*
X103649924Y-62650209D01*
X103778873Y-62695493D01*
X103786515Y-62696215D01*
X103786518Y-62696216D01*
X103801421Y-62697624D01*
X103810685Y-62698500D01*
X104139777Y-62698500D01*
X104469314Y-62698499D01*
X104472262Y-62698220D01*
X104472271Y-62698220D01*
X104493478Y-62696216D01*
X104493480Y-62696216D01*
X104501127Y-62695493D01*
X104630076Y-62650209D01*
X104740010Y-62569010D01*
X104821209Y-62459076D01*
X104866493Y-62330127D01*
X104869500Y-62298315D01*
X104869499Y-61789686D01*
X104866493Y-61757873D01*
X104821209Y-61628924D01*
X104740010Y-61518990D01*
X104630076Y-61437791D01*
X104501127Y-61392507D01*
X104493485Y-61391785D01*
X104493482Y-61391784D01*
X104478579Y-61390376D01*
X104469315Y-61389500D01*
X104140223Y-61389500D01*
X103810686Y-61389501D01*
X103807738Y-61389780D01*
X103807729Y-61389780D01*
X103786522Y-61391784D01*
X103786520Y-61391784D01*
X103778873Y-61392507D01*
X103649924Y-61437791D01*
X103539990Y-61518990D01*
X103458791Y-61628924D01*
X103413507Y-61757873D01*
X103410500Y-61789685D01*
X101821499Y-61789685D01*
X101818493Y-61757873D01*
X101773209Y-61628924D01*
X101692010Y-61518990D01*
X101582076Y-61437791D01*
X101453127Y-61392507D01*
X101445485Y-61391785D01*
X101445482Y-61391784D01*
X101430579Y-61390376D01*
X101421315Y-61389500D01*
X101092223Y-61389500D01*
X100762686Y-61389501D01*
X100759738Y-61389780D01*
X100759729Y-61389780D01*
X100738522Y-61391784D01*
X100738520Y-61391784D01*
X100730873Y-61392507D01*
X100601924Y-61437791D01*
X100491990Y-61518990D01*
X100410791Y-61628924D01*
X100365507Y-61757873D01*
X100362500Y-61789685D01*
X92784000Y-61789685D01*
X92784000Y-59528769D01*
X113284000Y-59528769D01*
X113284000Y-79328769D01*
G37*
%TD.AperFunction*%
%TD*%
M02*
