%TF.GenerationSoftware,KiCad,Pcbnew,(6.0.1)*%
%TF.CreationDate,2023-03-16T18:29:38-06:00*%
%TF.ProjectId,SPARC,53504152-432e-46b6-9963-61645f706362,01*%
%TF.SameCoordinates,Original*%
%TF.FileFunction,Legend,Bot*%
%TF.FilePolarity,Positive*%
%FSLAX46Y46*%
G04 Gerber Fmt 4.6, Leading zero omitted, Abs format (unit mm)*
G04 Created by KiCad (PCBNEW (6.0.1)) date 2023-03-16 18:29:38*
%MOMM*%
%LPD*%
G01*
G04 APERTURE LIST*
%ADD10C,0.150000*%
%ADD11C,0.200000*%
%ADD12C,0.120000*%
G04 APERTURE END LIST*
D10*
X108957142Y-46895238D02*
X108861904Y-46800000D01*
X108671428Y-46704761D01*
X108195238Y-46704761D01*
X108004761Y-46800000D01*
X107909523Y-46895238D01*
X107814285Y-47085714D01*
X107814285Y-47276190D01*
X107909523Y-47561904D01*
X109052380Y-48704761D01*
X107814285Y-48704761D01*
X105814285Y-48514285D02*
X105909523Y-48609523D01*
X106195238Y-48704761D01*
X106385714Y-48704761D01*
X106671428Y-48609523D01*
X106861904Y-48419047D01*
X106957142Y-48228571D01*
X107052380Y-47847619D01*
X107052380Y-47561904D01*
X106957142Y-47180952D01*
X106861904Y-46990476D01*
X106671428Y-46800000D01*
X106385714Y-46704761D01*
X106195238Y-46704761D01*
X105909523Y-46800000D01*
X105814285Y-46895238D01*
X104957142Y-48704761D02*
X104957142Y-46704761D01*
X104957142Y-47657142D02*
X103814285Y-47657142D01*
X103814285Y-48704761D02*
X103814285Y-46704761D01*
X102861904Y-47942857D02*
X101338095Y-47942857D01*
X100385714Y-48704761D02*
X100385714Y-46704761D01*
X100385714Y-47657142D02*
X99242857Y-47657142D01*
X99242857Y-48704761D02*
X99242857Y-46704761D01*
X98576190Y-46704761D02*
X97909523Y-48704761D01*
X97242857Y-46704761D01*
X96576190Y-47942857D02*
X95052380Y-47942857D01*
X94100000Y-48704761D02*
X94100000Y-46704761D01*
X93623809Y-46704761D01*
X93338095Y-46800000D01*
X93147619Y-46990476D01*
X93052380Y-47180952D01*
X92957142Y-47561904D01*
X92957142Y-47847619D01*
X93052380Y-48228571D01*
X93147619Y-48419047D01*
X93338095Y-48609523D01*
X93623809Y-48704761D01*
X94100000Y-48704761D01*
X92195238Y-48133333D02*
X91242857Y-48133333D01*
X92385714Y-48704761D02*
X91719047Y-46704761D01*
X91052380Y-48704761D01*
X89242857Y-48514285D02*
X89338095Y-48609523D01*
X89623809Y-48704761D01*
X89814285Y-48704761D01*
X90100000Y-48609523D01*
X90290476Y-48419047D01*
X90385714Y-48228571D01*
X90480952Y-47847619D01*
X90480952Y-47561904D01*
X90385714Y-47180952D01*
X90290476Y-46990476D01*
X90100000Y-46800000D01*
X89814285Y-46704761D01*
X89623809Y-46704761D01*
X89338095Y-46800000D01*
X89242857Y-46895238D01*
D11*
X144014285Y-52902095D02*
X143766666Y-52902095D01*
X143642857Y-52964000D01*
X143519047Y-53087809D01*
X143457142Y-53335428D01*
X143457142Y-53768761D01*
X143519047Y-54016380D01*
X143642857Y-54140190D01*
X143766666Y-54202095D01*
X144014285Y-54202095D01*
X144138095Y-54140190D01*
X144261904Y-54016380D01*
X144323809Y-53768761D01*
X144323809Y-53335428D01*
X144261904Y-53087809D01*
X144138095Y-52964000D01*
X144014285Y-52902095D01*
X142900000Y-54202095D02*
X142900000Y-53335428D01*
X142900000Y-53583047D02*
X142838095Y-53459238D01*
X142776190Y-53397333D01*
X142652380Y-53335428D01*
X142528571Y-53335428D01*
X142095238Y-54202095D02*
X142095238Y-53335428D01*
X142095238Y-52902095D02*
X142157142Y-52964000D01*
X142095238Y-53025904D01*
X142033333Y-52964000D01*
X142095238Y-52902095D01*
X142095238Y-53025904D01*
X140919047Y-53335428D02*
X140919047Y-54387809D01*
X140980952Y-54511619D01*
X141042857Y-54573523D01*
X141166666Y-54635428D01*
X141352380Y-54635428D01*
X141476190Y-54573523D01*
X140919047Y-54140190D02*
X141042857Y-54202095D01*
X141290476Y-54202095D01*
X141414285Y-54140190D01*
X141476190Y-54078285D01*
X141538095Y-53954476D01*
X141538095Y-53583047D01*
X141476190Y-53459238D01*
X141414285Y-53397333D01*
X141290476Y-53335428D01*
X141042857Y-53335428D01*
X140919047Y-53397333D01*
X140300000Y-54202095D02*
X140300000Y-53335428D01*
X140300000Y-52902095D02*
X140361904Y-52964000D01*
X140300000Y-53025904D01*
X140238095Y-52964000D01*
X140300000Y-52902095D01*
X140300000Y-53025904D01*
X139680952Y-53335428D02*
X139680952Y-54202095D01*
X139680952Y-53459238D02*
X139619047Y-53397333D01*
X139495238Y-53335428D01*
X139309523Y-53335428D01*
X139185714Y-53397333D01*
X139123809Y-53521142D01*
X139123809Y-54202095D01*
X137947619Y-54202095D02*
X137947619Y-53521142D01*
X138009523Y-53397333D01*
X138133333Y-53335428D01*
X138380952Y-53335428D01*
X138504761Y-53397333D01*
X137947619Y-54140190D02*
X138071428Y-54202095D01*
X138380952Y-54202095D01*
X138504761Y-54140190D01*
X138566666Y-54016380D01*
X138566666Y-53892571D01*
X138504761Y-53768761D01*
X138380952Y-53706857D01*
X138071428Y-53706857D01*
X137947619Y-53644952D01*
X137142857Y-54202095D02*
X137266666Y-54140190D01*
X137328571Y-54016380D01*
X137328571Y-52902095D01*
X134976190Y-54202095D02*
X135719047Y-54202095D01*
X135347619Y-54202095D02*
X135347619Y-52902095D01*
X135471428Y-53087809D01*
X135595238Y-53211619D01*
X135719047Y-53273523D01*
X133676190Y-54078285D02*
X133738095Y-54140190D01*
X133923809Y-54202095D01*
X134047619Y-54202095D01*
X134233333Y-54140190D01*
X134357142Y-54016380D01*
X134419047Y-53892571D01*
X134480952Y-53644952D01*
X134480952Y-53459238D01*
X134419047Y-53211619D01*
X134357142Y-53087809D01*
X134233333Y-52964000D01*
X134047619Y-52902095D01*
X133923809Y-52902095D01*
X133738095Y-52964000D01*
X133676190Y-53025904D01*
X133119047Y-54202095D02*
X133119047Y-52902095D01*
X133119047Y-53521142D02*
X132376190Y-53521142D01*
X132376190Y-54202095D02*
X132376190Y-52902095D01*
X130766666Y-54202095D02*
X130766666Y-52902095D01*
X130457142Y-52902095D01*
X130271428Y-52964000D01*
X130147619Y-53087809D01*
X130085714Y-53211619D01*
X130023809Y-53459238D01*
X130023809Y-53644952D01*
X130085714Y-53892571D01*
X130147619Y-54016380D01*
X130271428Y-54140190D01*
X130457142Y-54202095D01*
X130766666Y-54202095D01*
X128971428Y-54140190D02*
X129095238Y-54202095D01*
X129342857Y-54202095D01*
X129466666Y-54140190D01*
X129528571Y-54016380D01*
X129528571Y-53521142D01*
X129466666Y-53397333D01*
X129342857Y-53335428D01*
X129095238Y-53335428D01*
X128971428Y-53397333D01*
X128909523Y-53521142D01*
X128909523Y-53644952D01*
X129528571Y-53768761D01*
X128414285Y-54140190D02*
X128290476Y-54202095D01*
X128042857Y-54202095D01*
X127919047Y-54140190D01*
X127857142Y-54016380D01*
X127857142Y-53954476D01*
X127919047Y-53830666D01*
X128042857Y-53768761D01*
X128228571Y-53768761D01*
X128352380Y-53706857D01*
X128414285Y-53583047D01*
X128414285Y-53521142D01*
X128352380Y-53397333D01*
X128228571Y-53335428D01*
X128042857Y-53335428D01*
X127919047Y-53397333D01*
X127300000Y-54202095D02*
X127300000Y-53335428D01*
X127300000Y-52902095D02*
X127361904Y-52964000D01*
X127300000Y-53025904D01*
X127238095Y-52964000D01*
X127300000Y-52902095D01*
X127300000Y-53025904D01*
X126123809Y-53335428D02*
X126123809Y-54387809D01*
X126185714Y-54511619D01*
X126247619Y-54573523D01*
X126371428Y-54635428D01*
X126557142Y-54635428D01*
X126680952Y-54573523D01*
X126123809Y-54140190D02*
X126247619Y-54202095D01*
X126495238Y-54202095D01*
X126619047Y-54140190D01*
X126680952Y-54078285D01*
X126742857Y-53954476D01*
X126742857Y-53583047D01*
X126680952Y-53459238D01*
X126619047Y-53397333D01*
X126495238Y-53335428D01*
X126247619Y-53335428D01*
X126123809Y-53397333D01*
X125504761Y-53335428D02*
X125504761Y-54202095D01*
X125504761Y-53459238D02*
X125442857Y-53397333D01*
X125319047Y-53335428D01*
X125133333Y-53335428D01*
X125009523Y-53397333D01*
X124947619Y-53521142D01*
X124947619Y-54202095D01*
X124328571Y-54078285D02*
X124266666Y-54140190D01*
X124328571Y-54202095D01*
X124390476Y-54140190D01*
X124328571Y-54078285D01*
X124328571Y-54202095D01*
X124328571Y-53397333D02*
X124266666Y-53459238D01*
X124328571Y-53521142D01*
X124390476Y-53459238D01*
X124328571Y-53397333D01*
X124328571Y-53521142D01*
X121976190Y-54202095D02*
X122409523Y-53583047D01*
X122719047Y-54202095D02*
X122719047Y-52902095D01*
X122223809Y-52902095D01*
X122100000Y-52964000D01*
X122038095Y-53025904D01*
X121976190Y-53149714D01*
X121976190Y-53335428D01*
X122038095Y-53459238D01*
X122100000Y-53521142D01*
X122223809Y-53583047D01*
X122719047Y-53583047D01*
X120861904Y-54202095D02*
X120861904Y-53521142D01*
X120923809Y-53397333D01*
X121047619Y-53335428D01*
X121295238Y-53335428D01*
X121419047Y-53397333D01*
X120861904Y-54140190D02*
X120985714Y-54202095D01*
X121295238Y-54202095D01*
X121419047Y-54140190D01*
X121480952Y-54016380D01*
X121480952Y-53892571D01*
X121419047Y-53768761D01*
X121295238Y-53706857D01*
X120985714Y-53706857D01*
X120861904Y-53644952D01*
X120242857Y-53335428D02*
X120242857Y-54202095D01*
X120242857Y-53459238D02*
X120180952Y-53397333D01*
X120057142Y-53335428D01*
X119871428Y-53335428D01*
X119747619Y-53397333D01*
X119685714Y-53521142D01*
X119685714Y-54202095D01*
X118509523Y-54202095D02*
X118509523Y-52902095D01*
X118509523Y-54140190D02*
X118633333Y-54202095D01*
X118880952Y-54202095D01*
X119004761Y-54140190D01*
X119066666Y-54078285D01*
X119128571Y-53954476D01*
X119128571Y-53583047D01*
X119066666Y-53459238D01*
X119004761Y-53397333D01*
X118880952Y-53335428D01*
X118633333Y-53335428D01*
X118509523Y-53397333D01*
X118014285Y-53335428D02*
X117704761Y-54202095D01*
X117395238Y-53335428D02*
X117704761Y-54202095D01*
X117828571Y-54511619D01*
X117890476Y-54573523D01*
X118014285Y-54635428D01*
X115909523Y-54202095D02*
X115909523Y-52902095D01*
X115414285Y-52902095D01*
X115290476Y-52964000D01*
X115228571Y-53025904D01*
X115166666Y-53149714D01*
X115166666Y-53335428D01*
X115228571Y-53459238D01*
X115290476Y-53521142D01*
X115414285Y-53583047D01*
X115909523Y-53583047D01*
X114052380Y-54202095D02*
X114052380Y-53521142D01*
X114114285Y-53397333D01*
X114238095Y-53335428D01*
X114485714Y-53335428D01*
X114609523Y-53397333D01*
X114052380Y-54140190D02*
X114176190Y-54202095D01*
X114485714Y-54202095D01*
X114609523Y-54140190D01*
X114671428Y-54016380D01*
X114671428Y-53892571D01*
X114609523Y-53768761D01*
X114485714Y-53706857D01*
X114176190Y-53706857D01*
X114052380Y-53644952D01*
X113247619Y-54202095D02*
X113371428Y-54140190D01*
X113433333Y-54016380D01*
X113433333Y-52902095D01*
X112195238Y-54202095D02*
X112195238Y-53521142D01*
X112257142Y-53397333D01*
X112380952Y-53335428D01*
X112628571Y-53335428D01*
X112752380Y-53397333D01*
X112195238Y-54140190D02*
X112319047Y-54202095D01*
X112628571Y-54202095D01*
X112752380Y-54140190D01*
X112814285Y-54016380D01*
X112814285Y-53892571D01*
X112752380Y-53768761D01*
X112628571Y-53706857D01*
X112319047Y-53706857D01*
X112195238Y-53644952D01*
X111576190Y-54202095D02*
X111576190Y-53335428D01*
X111576190Y-53459238D02*
X111514285Y-53397333D01*
X111390476Y-53335428D01*
X111204761Y-53335428D01*
X111080952Y-53397333D01*
X111019047Y-53521142D01*
X111019047Y-54202095D01*
X111019047Y-53521142D02*
X110957142Y-53397333D01*
X110833333Y-53335428D01*
X110647619Y-53335428D01*
X110523809Y-53397333D01*
X110461904Y-53521142D01*
X110461904Y-54202095D01*
X109285714Y-54202095D02*
X109285714Y-53521142D01*
X109347619Y-53397333D01*
X109471428Y-53335428D01*
X109719047Y-53335428D01*
X109842857Y-53397333D01*
X109285714Y-54140190D02*
X109409523Y-54202095D01*
X109719047Y-54202095D01*
X109842857Y-54140190D01*
X109904761Y-54016380D01*
X109904761Y-53892571D01*
X109842857Y-53768761D01*
X109719047Y-53706857D01*
X109409523Y-53706857D01*
X109285714Y-53644952D01*
X108666666Y-54202095D02*
X108666666Y-53335428D01*
X108666666Y-53583047D02*
X108604761Y-53459238D01*
X108542857Y-53397333D01*
X108419047Y-53335428D01*
X108295238Y-53335428D01*
X106933333Y-53025904D02*
X106871428Y-52964000D01*
X106747619Y-52902095D01*
X106438095Y-52902095D01*
X106314285Y-52964000D01*
X106252380Y-53025904D01*
X106190476Y-53149714D01*
X106190476Y-53273523D01*
X106252380Y-53459238D01*
X106995238Y-54202095D01*
X106190476Y-54202095D01*
X105385714Y-52902095D02*
X105261904Y-52902095D01*
X105138095Y-52964000D01*
X105076190Y-53025904D01*
X105014285Y-53149714D01*
X104952380Y-53397333D01*
X104952380Y-53706857D01*
X105014285Y-53954476D01*
X105076190Y-54078285D01*
X105138095Y-54140190D01*
X105261904Y-54202095D01*
X105385714Y-54202095D01*
X105509523Y-54140190D01*
X105571428Y-54078285D01*
X105633333Y-53954476D01*
X105695238Y-53706857D01*
X105695238Y-53397333D01*
X105633333Y-53149714D01*
X105571428Y-53025904D01*
X105509523Y-52964000D01*
X105385714Y-52902095D01*
X104457142Y-53025904D02*
X104395238Y-52964000D01*
X104271428Y-52902095D01*
X103961904Y-52902095D01*
X103838095Y-52964000D01*
X103776190Y-53025904D01*
X103714285Y-53149714D01*
X103714285Y-53273523D01*
X103776190Y-53459238D01*
X104519047Y-54202095D01*
X103714285Y-54202095D01*
X103280952Y-52902095D02*
X102476190Y-52902095D01*
X102909523Y-53397333D01*
X102723809Y-53397333D01*
X102600000Y-53459238D01*
X102538095Y-53521142D01*
X102476190Y-53644952D01*
X102476190Y-53954476D01*
X102538095Y-54078285D01*
X102600000Y-54140190D01*
X102723809Y-54202095D01*
X103095238Y-54202095D01*
X103219047Y-54140190D01*
X103280952Y-54078285D01*
X133985714Y-55428428D02*
X134976190Y-55799857D01*
X133985714Y-56171285D01*
X133366666Y-55428428D02*
X133366666Y-56728428D01*
X133366666Y-55490333D02*
X133242857Y-55428428D01*
X132995238Y-55428428D01*
X132871428Y-55490333D01*
X132809523Y-55552238D01*
X132747619Y-55676047D01*
X132747619Y-56047476D01*
X132809523Y-56171285D01*
X132871428Y-56233190D01*
X132995238Y-56295095D01*
X133242857Y-56295095D01*
X133366666Y-56233190D01*
X131633333Y-56295095D02*
X131633333Y-55614142D01*
X131695238Y-55490333D01*
X131819047Y-55428428D01*
X132066666Y-55428428D01*
X132190476Y-55490333D01*
X131633333Y-56233190D02*
X131757142Y-56295095D01*
X132066666Y-56295095D01*
X132190476Y-56233190D01*
X132252380Y-56109380D01*
X132252380Y-55985571D01*
X132190476Y-55861761D01*
X132066666Y-55799857D01*
X131757142Y-55799857D01*
X131633333Y-55737952D01*
X130828571Y-56295095D02*
X130952380Y-56233190D01*
X131014285Y-56109380D01*
X131014285Y-54995095D01*
X129776190Y-56295095D02*
X129776190Y-55614142D01*
X129838095Y-55490333D01*
X129961904Y-55428428D01*
X130209523Y-55428428D01*
X130333333Y-55490333D01*
X129776190Y-56233190D02*
X129900000Y-56295095D01*
X130209523Y-56295095D01*
X130333333Y-56233190D01*
X130395238Y-56109380D01*
X130395238Y-55985571D01*
X130333333Y-55861761D01*
X130209523Y-55799857D01*
X129900000Y-55799857D01*
X129776190Y-55737952D01*
X129157142Y-56295095D02*
X129157142Y-55428428D01*
X129157142Y-55552238D02*
X129095238Y-55490333D01*
X128971428Y-55428428D01*
X128785714Y-55428428D01*
X128661904Y-55490333D01*
X128600000Y-55614142D01*
X128600000Y-56295095D01*
X128600000Y-55614142D02*
X128538095Y-55490333D01*
X128414285Y-55428428D01*
X128228571Y-55428428D01*
X128104761Y-55490333D01*
X128042857Y-55614142D01*
X128042857Y-56295095D01*
X126866666Y-56295095D02*
X126866666Y-55614142D01*
X126928571Y-55490333D01*
X127052380Y-55428428D01*
X127300000Y-55428428D01*
X127423809Y-55490333D01*
X126866666Y-56233190D02*
X126990476Y-56295095D01*
X127300000Y-56295095D01*
X127423809Y-56233190D01*
X127485714Y-56109380D01*
X127485714Y-55985571D01*
X127423809Y-55861761D01*
X127300000Y-55799857D01*
X126990476Y-55799857D01*
X126866666Y-55737952D01*
X126247619Y-56295095D02*
X126247619Y-55428428D01*
X126247619Y-55676047D02*
X126185714Y-55552238D01*
X126123809Y-55490333D01*
X126000000Y-55428428D01*
X125876190Y-55428428D01*
X124638095Y-55676047D02*
X124700000Y-55614142D01*
X124823809Y-55552238D01*
X124947619Y-55552238D01*
X125071428Y-55614142D01*
X125133333Y-55676047D01*
X125195238Y-55799857D01*
X125195238Y-55923666D01*
X125133333Y-56047476D01*
X125071428Y-56109380D01*
X124947619Y-56171285D01*
X124823809Y-56171285D01*
X124700000Y-56109380D01*
X124638095Y-56047476D01*
X124638095Y-55552238D02*
X124638095Y-56047476D01*
X124576190Y-56109380D01*
X124514285Y-56109380D01*
X124390476Y-56047476D01*
X124328571Y-55923666D01*
X124328571Y-55614142D01*
X124452380Y-55428428D01*
X124638095Y-55304619D01*
X124885714Y-55242714D01*
X125133333Y-55304619D01*
X125319047Y-55428428D01*
X125442857Y-55614142D01*
X125504761Y-55861761D01*
X125442857Y-56109380D01*
X125319047Y-56295095D01*
X125133333Y-56418904D01*
X124885714Y-56480809D01*
X124638095Y-56418904D01*
X124452380Y-56295095D01*
X123214285Y-55428428D02*
X123214285Y-56295095D01*
X123771428Y-55428428D02*
X123771428Y-56109380D01*
X123709523Y-56233190D01*
X123585714Y-56295095D01*
X123400000Y-56295095D01*
X123276190Y-56233190D01*
X123214285Y-56171285D01*
X122038095Y-56295095D02*
X122038095Y-55614142D01*
X122100000Y-55490333D01*
X122223809Y-55428428D01*
X122471428Y-55428428D01*
X122595238Y-55490333D01*
X122038095Y-56233190D02*
X122161904Y-56295095D01*
X122471428Y-56295095D01*
X122595238Y-56233190D01*
X122657142Y-56109380D01*
X122657142Y-55985571D01*
X122595238Y-55861761D01*
X122471428Y-55799857D01*
X122161904Y-55799857D01*
X122038095Y-55737952D01*
X121233333Y-56295095D02*
X121357142Y-56233190D01*
X121419047Y-56109380D01*
X121419047Y-54995095D01*
X120738095Y-56295095D02*
X120738095Y-54995095D01*
X120738095Y-55490333D02*
X120614285Y-55428428D01*
X120366666Y-55428428D01*
X120242857Y-55490333D01*
X120180952Y-55552238D01*
X120119047Y-55676047D01*
X120119047Y-56047476D01*
X120180952Y-56171285D01*
X120242857Y-56233190D01*
X120366666Y-56295095D01*
X120614285Y-56295095D01*
X120738095Y-56233190D01*
X119066666Y-56233190D02*
X119190476Y-56295095D01*
X119438095Y-56295095D01*
X119561904Y-56233190D01*
X119623809Y-56109380D01*
X119623809Y-55614142D01*
X119561904Y-55490333D01*
X119438095Y-55428428D01*
X119190476Y-55428428D01*
X119066666Y-55490333D01*
X119004761Y-55614142D01*
X119004761Y-55737952D01*
X119623809Y-55861761D01*
X118447619Y-56295095D02*
X118447619Y-55428428D01*
X118447619Y-55676047D02*
X118385714Y-55552238D01*
X118323809Y-55490333D01*
X118200000Y-55428428D01*
X118076190Y-55428428D01*
X117828571Y-55428428D02*
X117333333Y-55428428D01*
X117642857Y-54995095D02*
X117642857Y-56109380D01*
X117580952Y-56233190D01*
X117457142Y-56295095D01*
X117333333Y-56295095D01*
X116342857Y-56295095D02*
X116342857Y-55614142D01*
X116404761Y-55490333D01*
X116528571Y-55428428D01*
X116776190Y-55428428D01*
X116900000Y-55490333D01*
X116342857Y-56233190D02*
X116466666Y-56295095D01*
X116776190Y-56295095D01*
X116900000Y-56233190D01*
X116961904Y-56109380D01*
X116961904Y-55985571D01*
X116900000Y-55861761D01*
X116776190Y-55799857D01*
X116466666Y-55799857D01*
X116342857Y-55737952D01*
X115723809Y-56171285D02*
X115661904Y-56233190D01*
X115723809Y-56295095D01*
X115785714Y-56233190D01*
X115723809Y-56171285D01*
X115723809Y-56295095D01*
X114547619Y-56233190D02*
X114671428Y-56295095D01*
X114919047Y-56295095D01*
X115042857Y-56233190D01*
X115104761Y-56171285D01*
X115166666Y-56047476D01*
X115166666Y-55676047D01*
X115104761Y-55552238D01*
X115042857Y-55490333D01*
X114919047Y-55428428D01*
X114671428Y-55428428D01*
X114547619Y-55490333D01*
X113433333Y-56295095D02*
X113433333Y-55614142D01*
X113495238Y-55490333D01*
X113619047Y-55428428D01*
X113866666Y-55428428D01*
X113990476Y-55490333D01*
X113433333Y-56233190D02*
X113557142Y-56295095D01*
X113866666Y-56295095D01*
X113990476Y-56233190D01*
X114052380Y-56109380D01*
X114052380Y-55985571D01*
X113990476Y-55861761D01*
X113866666Y-55799857D01*
X113557142Y-55799857D01*
X113433333Y-55737952D01*
X112814285Y-55428428D02*
X111823809Y-55799857D01*
X112814285Y-56171285D01*
X142961904Y-59304904D02*
X142900000Y-59243000D01*
X142776190Y-59181095D01*
X142466666Y-59181095D01*
X142342857Y-59243000D01*
X142280952Y-59304904D01*
X142219047Y-59428714D01*
X142219047Y-59552523D01*
X142280952Y-59738238D01*
X143023809Y-60481095D01*
X142219047Y-60481095D01*
X140919047Y-60357285D02*
X140980952Y-60419190D01*
X141166666Y-60481095D01*
X141290476Y-60481095D01*
X141476190Y-60419190D01*
X141600000Y-60295380D01*
X141661904Y-60171571D01*
X141723809Y-59923952D01*
X141723809Y-59738238D01*
X141661904Y-59490619D01*
X141600000Y-59366809D01*
X141476190Y-59243000D01*
X141290476Y-59181095D01*
X141166666Y-59181095D01*
X140980952Y-59243000D01*
X140919047Y-59304904D01*
X140361904Y-60481095D02*
X140361904Y-59181095D01*
X140361904Y-59800142D02*
X139619047Y-59800142D01*
X139619047Y-60481095D02*
X139619047Y-59181095D01*
X138009523Y-60481095D02*
X138009523Y-59181095D01*
X137700000Y-59181095D01*
X137514285Y-59243000D01*
X137390476Y-59366809D01*
X137328571Y-59490619D01*
X137266666Y-59738238D01*
X137266666Y-59923952D01*
X137328571Y-60171571D01*
X137390476Y-60295380D01*
X137514285Y-60419190D01*
X137700000Y-60481095D01*
X138009523Y-60481095D01*
X136214285Y-60419190D02*
X136338095Y-60481095D01*
X136585714Y-60481095D01*
X136709523Y-60419190D01*
X136771428Y-60295380D01*
X136771428Y-59800142D01*
X136709523Y-59676333D01*
X136585714Y-59614428D01*
X136338095Y-59614428D01*
X136214285Y-59676333D01*
X136152380Y-59800142D01*
X136152380Y-59923952D01*
X136771428Y-60047761D01*
X135657142Y-60419190D02*
X135533333Y-60481095D01*
X135285714Y-60481095D01*
X135161904Y-60419190D01*
X135100000Y-60295380D01*
X135100000Y-60233476D01*
X135161904Y-60109666D01*
X135285714Y-60047761D01*
X135471428Y-60047761D01*
X135595238Y-59985857D01*
X135657142Y-59862047D01*
X135657142Y-59800142D01*
X135595238Y-59676333D01*
X135471428Y-59614428D01*
X135285714Y-59614428D01*
X135161904Y-59676333D01*
X134542857Y-60481095D02*
X134542857Y-59614428D01*
X134542857Y-59181095D02*
X134604761Y-59243000D01*
X134542857Y-59304904D01*
X134480952Y-59243000D01*
X134542857Y-59181095D01*
X134542857Y-59304904D01*
X133366666Y-59614428D02*
X133366666Y-60666809D01*
X133428571Y-60790619D01*
X133490476Y-60852523D01*
X133614285Y-60914428D01*
X133800000Y-60914428D01*
X133923809Y-60852523D01*
X133366666Y-60419190D02*
X133490476Y-60481095D01*
X133738095Y-60481095D01*
X133861904Y-60419190D01*
X133923809Y-60357285D01*
X133985714Y-60233476D01*
X133985714Y-59862047D01*
X133923809Y-59738238D01*
X133861904Y-59676333D01*
X133738095Y-59614428D01*
X133490476Y-59614428D01*
X133366666Y-59676333D01*
X132747619Y-59614428D02*
X132747619Y-60481095D01*
X132747619Y-59738238D02*
X132685714Y-59676333D01*
X132561904Y-59614428D01*
X132376190Y-59614428D01*
X132252380Y-59676333D01*
X132190476Y-59800142D01*
X132190476Y-60481095D01*
X131571428Y-60357285D02*
X131509523Y-60419190D01*
X131571428Y-60481095D01*
X131633333Y-60419190D01*
X131571428Y-60357285D01*
X131571428Y-60481095D01*
X131571428Y-59676333D02*
X131509523Y-59738238D01*
X131571428Y-59800142D01*
X131633333Y-59738238D01*
X131571428Y-59676333D01*
X131571428Y-59800142D01*
X129961904Y-60481095D02*
X129961904Y-59181095D01*
X129219047Y-60481095D02*
X129776190Y-59738238D01*
X129219047Y-59181095D02*
X129961904Y-59923952D01*
X128661904Y-60481095D02*
X128661904Y-59614428D01*
X128661904Y-59181095D02*
X128723809Y-59243000D01*
X128661904Y-59304904D01*
X128600000Y-59243000D01*
X128661904Y-59181095D01*
X128661904Y-59304904D01*
X128042857Y-60481095D02*
X128042857Y-59614428D01*
X128042857Y-59862047D02*
X127980952Y-59738238D01*
X127919047Y-59676333D01*
X127795238Y-59614428D01*
X127671428Y-59614428D01*
X127238095Y-60481095D02*
X127238095Y-59181095D01*
X127114285Y-59985857D02*
X126742857Y-60481095D01*
X126742857Y-59614428D02*
X127238095Y-60109666D01*
X124452380Y-60481095D02*
X124885714Y-59862047D01*
X125195238Y-60481095D02*
X125195238Y-59181095D01*
X124700000Y-59181095D01*
X124576190Y-59243000D01*
X124514285Y-59304904D01*
X124452380Y-59428714D01*
X124452380Y-59614428D01*
X124514285Y-59738238D01*
X124576190Y-59800142D01*
X124700000Y-59862047D01*
X125195238Y-59862047D01*
X123895238Y-60481095D02*
X123895238Y-59614428D01*
X123895238Y-59181095D02*
X123957142Y-59243000D01*
X123895238Y-59304904D01*
X123833333Y-59243000D01*
X123895238Y-59181095D01*
X123895238Y-59304904D01*
X122780952Y-60419190D02*
X122904761Y-60481095D01*
X123152380Y-60481095D01*
X123276190Y-60419190D01*
X123338095Y-60295380D01*
X123338095Y-59800142D01*
X123276190Y-59676333D01*
X123152380Y-59614428D01*
X122904761Y-59614428D01*
X122780952Y-59676333D01*
X122719047Y-59800142D01*
X122719047Y-59923952D01*
X123338095Y-60047761D01*
X122161904Y-60481095D02*
X122161904Y-59181095D01*
X122161904Y-59676333D02*
X122038095Y-59614428D01*
X121790476Y-59614428D01*
X121666666Y-59676333D01*
X121604761Y-59738238D01*
X121542857Y-59862047D01*
X121542857Y-60233476D01*
X121604761Y-60357285D01*
X121666666Y-60419190D01*
X121790476Y-60481095D01*
X122038095Y-60481095D01*
X122161904Y-60419190D01*
X120490476Y-60419190D02*
X120614285Y-60481095D01*
X120861904Y-60481095D01*
X120985714Y-60419190D01*
X121047619Y-60295380D01*
X121047619Y-59800142D01*
X120985714Y-59676333D01*
X120861904Y-59614428D01*
X120614285Y-59614428D01*
X120490476Y-59676333D01*
X120428571Y-59800142D01*
X120428571Y-59923952D01*
X121047619Y-60047761D01*
X119871428Y-60481095D02*
X119871428Y-59614428D01*
X119871428Y-59862047D02*
X119809523Y-59738238D01*
X119747619Y-59676333D01*
X119623809Y-59614428D01*
X119500000Y-59614428D01*
X118509523Y-59614428D02*
X118509523Y-60666809D01*
X118571428Y-60790619D01*
X118633333Y-60852523D01*
X118757142Y-60914428D01*
X118942857Y-60914428D01*
X119066666Y-60852523D01*
X118509523Y-60419190D02*
X118633333Y-60481095D01*
X118880952Y-60481095D01*
X119004761Y-60419190D01*
X119066666Y-60357285D01*
X119128571Y-60233476D01*
X119128571Y-59862047D01*
X119066666Y-59738238D01*
X119004761Y-59676333D01*
X118880952Y-59614428D01*
X118633333Y-59614428D01*
X118509523Y-59676333D01*
X117395238Y-60419190D02*
X117519047Y-60481095D01*
X117766666Y-60481095D01*
X117890476Y-60419190D01*
X117952380Y-60295380D01*
X117952380Y-59800142D01*
X117890476Y-59676333D01*
X117766666Y-59614428D01*
X117519047Y-59614428D01*
X117395238Y-59676333D01*
X117333333Y-59800142D01*
X117333333Y-59923952D01*
X117952380Y-60047761D01*
X116776190Y-60481095D02*
X116776190Y-59614428D01*
X116776190Y-59862047D02*
X116714285Y-59738238D01*
X116652380Y-59676333D01*
X116528571Y-59614428D01*
X116404761Y-59614428D01*
X114980952Y-60481095D02*
X114980952Y-59181095D01*
X114547619Y-60109666D01*
X114114285Y-59181095D01*
X114114285Y-60481095D01*
X112938095Y-60481095D02*
X112938095Y-59800142D01*
X113000000Y-59676333D01*
X113123809Y-59614428D01*
X113371428Y-59614428D01*
X113495238Y-59676333D01*
X112938095Y-60419190D02*
X113061904Y-60481095D01*
X113371428Y-60481095D01*
X113495238Y-60419190D01*
X113557142Y-60295380D01*
X113557142Y-60171571D01*
X113495238Y-60047761D01*
X113371428Y-59985857D01*
X113061904Y-59985857D01*
X112938095Y-59923952D01*
X112319047Y-60481095D02*
X112319047Y-59614428D01*
X112319047Y-59862047D02*
X112257142Y-59738238D01*
X112195238Y-59676333D01*
X112071428Y-59614428D01*
X111947619Y-59614428D01*
X110957142Y-60419190D02*
X111080952Y-60481095D01*
X111328571Y-60481095D01*
X111452380Y-60419190D01*
X111514285Y-60357285D01*
X111576190Y-60233476D01*
X111576190Y-59862047D01*
X111514285Y-59738238D01*
X111452380Y-59676333D01*
X111328571Y-59614428D01*
X111080952Y-59614428D01*
X110957142Y-59676333D01*
X110400000Y-60481095D02*
X110400000Y-59181095D01*
X109842857Y-60481095D02*
X109842857Y-59800142D01*
X109904761Y-59676333D01*
X110028571Y-59614428D01*
X110214285Y-59614428D01*
X110338095Y-59676333D01*
X110400000Y-59738238D01*
X108295238Y-59304904D02*
X108233333Y-59243000D01*
X108109523Y-59181095D01*
X107800000Y-59181095D01*
X107676190Y-59243000D01*
X107614285Y-59304904D01*
X107552380Y-59428714D01*
X107552380Y-59552523D01*
X107614285Y-59738238D01*
X108357142Y-60481095D01*
X107552380Y-60481095D01*
X106747619Y-59181095D02*
X106623809Y-59181095D01*
X106500000Y-59243000D01*
X106438095Y-59304904D01*
X106376190Y-59428714D01*
X106314285Y-59676333D01*
X106314285Y-59985857D01*
X106376190Y-60233476D01*
X106438095Y-60357285D01*
X106500000Y-60419190D01*
X106623809Y-60481095D01*
X106747619Y-60481095D01*
X106871428Y-60419190D01*
X106933333Y-60357285D01*
X106995238Y-60233476D01*
X107057142Y-59985857D01*
X107057142Y-59676333D01*
X106995238Y-59428714D01*
X106933333Y-59304904D01*
X106871428Y-59243000D01*
X106747619Y-59181095D01*
X105819047Y-59304904D02*
X105757142Y-59243000D01*
X105633333Y-59181095D01*
X105323809Y-59181095D01*
X105200000Y-59243000D01*
X105138095Y-59304904D01*
X105076190Y-59428714D01*
X105076190Y-59552523D01*
X105138095Y-59738238D01*
X105880952Y-60481095D01*
X105076190Y-60481095D01*
X104642857Y-59181095D02*
X103838095Y-59181095D01*
X104271428Y-59676333D01*
X104085714Y-59676333D01*
X103961904Y-59738238D01*
X103900000Y-59800142D01*
X103838095Y-59923952D01*
X103838095Y-60233476D01*
X103900000Y-60357285D01*
X103961904Y-60419190D01*
X104085714Y-60481095D01*
X104457142Y-60481095D01*
X104580952Y-60419190D01*
X104642857Y-60357285D01*
X134047619Y-61707428D02*
X135038095Y-62078857D01*
X134047619Y-62450285D01*
X133428571Y-62574095D02*
X133428571Y-61707428D01*
X133428571Y-61955047D02*
X133366666Y-61831238D01*
X133304761Y-61769333D01*
X133180952Y-61707428D01*
X133057142Y-61707428D01*
X132623809Y-62574095D02*
X132623809Y-61707428D01*
X132623809Y-61274095D02*
X132685714Y-61336000D01*
X132623809Y-61397904D01*
X132561904Y-61336000D01*
X132623809Y-61274095D01*
X132623809Y-61397904D01*
X131509523Y-62512190D02*
X131633333Y-62574095D01*
X131880952Y-62574095D01*
X132004761Y-62512190D01*
X132066666Y-62388380D01*
X132066666Y-61893142D01*
X132004761Y-61769333D01*
X131880952Y-61707428D01*
X131633333Y-61707428D01*
X131509523Y-61769333D01*
X131447619Y-61893142D01*
X131447619Y-62016952D01*
X132066666Y-62140761D01*
X130890476Y-62574095D02*
X130890476Y-61274095D01*
X130890476Y-61769333D02*
X130766666Y-61707428D01*
X130519047Y-61707428D01*
X130395238Y-61769333D01*
X130333333Y-61831238D01*
X130271428Y-61955047D01*
X130271428Y-62326476D01*
X130333333Y-62450285D01*
X130395238Y-62512190D01*
X130519047Y-62574095D01*
X130766666Y-62574095D01*
X130890476Y-62512190D01*
X129219047Y-62512190D02*
X129342857Y-62574095D01*
X129590476Y-62574095D01*
X129714285Y-62512190D01*
X129776190Y-62388380D01*
X129776190Y-61893142D01*
X129714285Y-61769333D01*
X129590476Y-61707428D01*
X129342857Y-61707428D01*
X129219047Y-61769333D01*
X129157142Y-61893142D01*
X129157142Y-62016952D01*
X129776190Y-62140761D01*
X128600000Y-62574095D02*
X128600000Y-61707428D01*
X128600000Y-61955047D02*
X128538095Y-61831238D01*
X128476190Y-61769333D01*
X128352380Y-61707428D01*
X128228571Y-61707428D01*
X127238095Y-61707428D02*
X127238095Y-62759809D01*
X127300000Y-62883619D01*
X127361904Y-62945523D01*
X127485714Y-63007428D01*
X127671428Y-63007428D01*
X127795238Y-62945523D01*
X127238095Y-62512190D02*
X127361904Y-62574095D01*
X127609523Y-62574095D01*
X127733333Y-62512190D01*
X127795238Y-62450285D01*
X127857142Y-62326476D01*
X127857142Y-61955047D01*
X127795238Y-61831238D01*
X127733333Y-61769333D01*
X127609523Y-61707428D01*
X127361904Y-61707428D01*
X127238095Y-61769333D01*
X125938095Y-62574095D02*
X126680952Y-62574095D01*
X126309523Y-62574095D02*
X126309523Y-61274095D01*
X126433333Y-61459809D01*
X126557142Y-61583619D01*
X126680952Y-61645523D01*
X124576190Y-61955047D02*
X124638095Y-61893142D01*
X124761904Y-61831238D01*
X124885714Y-61831238D01*
X125009523Y-61893142D01*
X125071428Y-61955047D01*
X125133333Y-62078857D01*
X125133333Y-62202666D01*
X125071428Y-62326476D01*
X125009523Y-62388380D01*
X124885714Y-62450285D01*
X124761904Y-62450285D01*
X124638095Y-62388380D01*
X124576190Y-62326476D01*
X124576190Y-61831238D02*
X124576190Y-62326476D01*
X124514285Y-62388380D01*
X124452380Y-62388380D01*
X124328571Y-62326476D01*
X124266666Y-62202666D01*
X124266666Y-61893142D01*
X124390476Y-61707428D01*
X124576190Y-61583619D01*
X124823809Y-61521714D01*
X125071428Y-61583619D01*
X125257142Y-61707428D01*
X125380952Y-61893142D01*
X125442857Y-62140761D01*
X125380952Y-62388380D01*
X125257142Y-62574095D01*
X125071428Y-62697904D01*
X124823809Y-62759809D01*
X124576190Y-62697904D01*
X124390476Y-62574095D01*
X123152380Y-61707428D02*
X123152380Y-62574095D01*
X123709523Y-61707428D02*
X123709523Y-62388380D01*
X123647619Y-62512190D01*
X123523809Y-62574095D01*
X123338095Y-62574095D01*
X123214285Y-62512190D01*
X123152380Y-62450285D01*
X121976190Y-62574095D02*
X121976190Y-61893142D01*
X122038095Y-61769333D01*
X122161904Y-61707428D01*
X122409523Y-61707428D01*
X122533333Y-61769333D01*
X121976190Y-62512190D02*
X122100000Y-62574095D01*
X122409523Y-62574095D01*
X122533333Y-62512190D01*
X122595238Y-62388380D01*
X122595238Y-62264571D01*
X122533333Y-62140761D01*
X122409523Y-62078857D01*
X122100000Y-62078857D01*
X121976190Y-62016952D01*
X121171428Y-62574095D02*
X121295238Y-62512190D01*
X121357142Y-62388380D01*
X121357142Y-61274095D01*
X120676190Y-62574095D02*
X120676190Y-61274095D01*
X120676190Y-61769333D02*
X120552380Y-61707428D01*
X120304761Y-61707428D01*
X120180952Y-61769333D01*
X120119047Y-61831238D01*
X120057142Y-61955047D01*
X120057142Y-62326476D01*
X120119047Y-62450285D01*
X120180952Y-62512190D01*
X120304761Y-62574095D01*
X120552380Y-62574095D01*
X120676190Y-62512190D01*
X119004761Y-62512190D02*
X119128571Y-62574095D01*
X119376190Y-62574095D01*
X119500000Y-62512190D01*
X119561904Y-62388380D01*
X119561904Y-61893142D01*
X119500000Y-61769333D01*
X119376190Y-61707428D01*
X119128571Y-61707428D01*
X119004761Y-61769333D01*
X118942857Y-61893142D01*
X118942857Y-62016952D01*
X119561904Y-62140761D01*
X118385714Y-62574095D02*
X118385714Y-61707428D01*
X118385714Y-61955047D02*
X118323809Y-61831238D01*
X118261904Y-61769333D01*
X118138095Y-61707428D01*
X118014285Y-61707428D01*
X117766666Y-61707428D02*
X117271428Y-61707428D01*
X117580952Y-61274095D02*
X117580952Y-62388380D01*
X117519047Y-62512190D01*
X117395238Y-62574095D01*
X117271428Y-62574095D01*
X116280952Y-62574095D02*
X116280952Y-61893142D01*
X116342857Y-61769333D01*
X116466666Y-61707428D01*
X116714285Y-61707428D01*
X116838095Y-61769333D01*
X116280952Y-62512190D02*
X116404761Y-62574095D01*
X116714285Y-62574095D01*
X116838095Y-62512190D01*
X116900000Y-62388380D01*
X116900000Y-62264571D01*
X116838095Y-62140761D01*
X116714285Y-62078857D01*
X116404761Y-62078857D01*
X116280952Y-62016952D01*
X115661904Y-62450285D02*
X115600000Y-62512190D01*
X115661904Y-62574095D01*
X115723809Y-62512190D01*
X115661904Y-62450285D01*
X115661904Y-62574095D01*
X114485714Y-62512190D02*
X114609523Y-62574095D01*
X114857142Y-62574095D01*
X114980952Y-62512190D01*
X115042857Y-62450285D01*
X115104761Y-62326476D01*
X115104761Y-61955047D01*
X115042857Y-61831238D01*
X114980952Y-61769333D01*
X114857142Y-61707428D01*
X114609523Y-61707428D01*
X114485714Y-61769333D01*
X113371428Y-62574095D02*
X113371428Y-61893142D01*
X113433333Y-61769333D01*
X113557142Y-61707428D01*
X113804761Y-61707428D01*
X113928571Y-61769333D01*
X113371428Y-62512190D02*
X113495238Y-62574095D01*
X113804761Y-62574095D01*
X113928571Y-62512190D01*
X113990476Y-62388380D01*
X113990476Y-62264571D01*
X113928571Y-62140761D01*
X113804761Y-62078857D01*
X113495238Y-62078857D01*
X113371428Y-62016952D01*
X112752380Y-61707428D02*
X111761904Y-62078857D01*
X112752380Y-62450285D01*
D10*
%TO.C,R44*%
X149970396Y-73001428D02*
X150170396Y-72715714D01*
X150313253Y-73001428D02*
X150313253Y-72401428D01*
X150084682Y-72401428D01*
X150027539Y-72430000D01*
X149998967Y-72458571D01*
X149970396Y-72515714D01*
X149970396Y-72601428D01*
X149998967Y-72658571D01*
X150027539Y-72687142D01*
X150084682Y-72715714D01*
X150313253Y-72715714D01*
X149456110Y-72601428D02*
X149456110Y-73001428D01*
X149598967Y-72372857D02*
X149741824Y-72801428D01*
X149370396Y-72801428D01*
X148884682Y-72601428D02*
X148884682Y-73001428D01*
X149027539Y-72372857D02*
X149170396Y-72801428D01*
X148798967Y-72801428D01*
%TO.C,C9*%
X96366666Y-83897142D02*
X96414285Y-83944761D01*
X96557142Y-83992380D01*
X96652380Y-83992380D01*
X96795238Y-83944761D01*
X96890476Y-83849523D01*
X96938095Y-83754285D01*
X96985714Y-83563809D01*
X96985714Y-83420952D01*
X96938095Y-83230476D01*
X96890476Y-83135238D01*
X96795238Y-83040000D01*
X96652380Y-82992380D01*
X96557142Y-82992380D01*
X96414285Y-83040000D01*
X96366666Y-83087619D01*
X95890476Y-83992380D02*
X95700000Y-83992380D01*
X95604761Y-83944761D01*
X95557142Y-83897142D01*
X95461904Y-83754285D01*
X95414285Y-83563809D01*
X95414285Y-83182857D01*
X95461904Y-83087619D01*
X95509523Y-83040000D01*
X95604761Y-82992380D01*
X95795238Y-82992380D01*
X95890476Y-83040000D01*
X95938095Y-83087619D01*
X95985714Y-83182857D01*
X95985714Y-83420952D01*
X95938095Y-83516190D01*
X95890476Y-83563809D01*
X95795238Y-83611428D01*
X95604761Y-83611428D01*
X95509523Y-83563809D01*
X95461904Y-83516190D01*
X95414285Y-83420952D01*
%TO.C,C7*%
X108876666Y-83627142D02*
X108924285Y-83674761D01*
X109067142Y-83722380D01*
X109162380Y-83722380D01*
X109305238Y-83674761D01*
X109400476Y-83579523D01*
X109448095Y-83484285D01*
X109495714Y-83293809D01*
X109495714Y-83150952D01*
X109448095Y-82960476D01*
X109400476Y-82865238D01*
X109305238Y-82770000D01*
X109162380Y-82722380D01*
X109067142Y-82722380D01*
X108924285Y-82770000D01*
X108876666Y-82817619D01*
X108543333Y-82722380D02*
X107876666Y-82722380D01*
X108305238Y-83722380D01*
%TO.C,R31*%
X112726396Y-77462028D02*
X112926396Y-77176314D01*
X113069253Y-77462028D02*
X113069253Y-76862028D01*
X112840682Y-76862028D01*
X112783539Y-76890600D01*
X112754967Y-76919171D01*
X112726396Y-76976314D01*
X112726396Y-77062028D01*
X112754967Y-77119171D01*
X112783539Y-77147742D01*
X112840682Y-77176314D01*
X113069253Y-77176314D01*
X112526396Y-76862028D02*
X112154967Y-76862028D01*
X112354967Y-77090600D01*
X112269253Y-77090600D01*
X112212110Y-77119171D01*
X112183539Y-77147742D01*
X112154967Y-77204885D01*
X112154967Y-77347742D01*
X112183539Y-77404885D01*
X112212110Y-77433457D01*
X112269253Y-77462028D01*
X112440682Y-77462028D01*
X112497824Y-77433457D01*
X112526396Y-77404885D01*
X111583539Y-77462028D02*
X111926396Y-77462028D01*
X111754967Y-77462028D02*
X111754967Y-76862028D01*
X111812110Y-76947742D01*
X111869253Y-77004885D01*
X111926396Y-77033457D01*
%TO.C,R58*%
X149970396Y-71477428D02*
X150170396Y-71191714D01*
X150313253Y-71477428D02*
X150313253Y-70877428D01*
X150084682Y-70877428D01*
X150027539Y-70906000D01*
X149998967Y-70934571D01*
X149970396Y-70991714D01*
X149970396Y-71077428D01*
X149998967Y-71134571D01*
X150027539Y-71163142D01*
X150084682Y-71191714D01*
X150313253Y-71191714D01*
X149427539Y-70877428D02*
X149713253Y-70877428D01*
X149741824Y-71163142D01*
X149713253Y-71134571D01*
X149656110Y-71106000D01*
X149513253Y-71106000D01*
X149456110Y-71134571D01*
X149427539Y-71163142D01*
X149398967Y-71220285D01*
X149398967Y-71363142D01*
X149427539Y-71420285D01*
X149456110Y-71448857D01*
X149513253Y-71477428D01*
X149656110Y-71477428D01*
X149713253Y-71448857D01*
X149741824Y-71420285D01*
X149056110Y-71134571D02*
X149113253Y-71106000D01*
X149141824Y-71077428D01*
X149170396Y-71020285D01*
X149170396Y-70991714D01*
X149141824Y-70934571D01*
X149113253Y-70906000D01*
X149056110Y-70877428D01*
X148941824Y-70877428D01*
X148884682Y-70906000D01*
X148856110Y-70934571D01*
X148827539Y-70991714D01*
X148827539Y-71020285D01*
X148856110Y-71077428D01*
X148884682Y-71106000D01*
X148941824Y-71134571D01*
X149056110Y-71134571D01*
X149113253Y-71163142D01*
X149141824Y-71191714D01*
X149170396Y-71248857D01*
X149170396Y-71363142D01*
X149141824Y-71420285D01*
X149113253Y-71448857D01*
X149056110Y-71477428D01*
X148941824Y-71477428D01*
X148884682Y-71448857D01*
X148856110Y-71420285D01*
X148827539Y-71363142D01*
X148827539Y-71248857D01*
X148856110Y-71191714D01*
X148884682Y-71163142D01*
X148941824Y-71134571D01*
%TO.C,R60*%
X149970396Y-74525428D02*
X150170396Y-74239714D01*
X150313253Y-74525428D02*
X150313253Y-73925428D01*
X150084682Y-73925428D01*
X150027539Y-73954000D01*
X149998967Y-73982571D01*
X149970396Y-74039714D01*
X149970396Y-74125428D01*
X149998967Y-74182571D01*
X150027539Y-74211142D01*
X150084682Y-74239714D01*
X150313253Y-74239714D01*
X149456110Y-73925428D02*
X149570396Y-73925428D01*
X149627539Y-73954000D01*
X149656110Y-73982571D01*
X149713253Y-74068285D01*
X149741824Y-74182571D01*
X149741824Y-74411142D01*
X149713253Y-74468285D01*
X149684682Y-74496857D01*
X149627539Y-74525428D01*
X149513253Y-74525428D01*
X149456110Y-74496857D01*
X149427539Y-74468285D01*
X149398967Y-74411142D01*
X149398967Y-74268285D01*
X149427539Y-74211142D01*
X149456110Y-74182571D01*
X149513253Y-74154000D01*
X149627539Y-74154000D01*
X149684682Y-74182571D01*
X149713253Y-74211142D01*
X149741824Y-74268285D01*
X149027539Y-73925428D02*
X148970396Y-73925428D01*
X148913253Y-73954000D01*
X148884682Y-73982571D01*
X148856110Y-74039714D01*
X148827539Y-74154000D01*
X148827539Y-74296857D01*
X148856110Y-74411142D01*
X148884682Y-74468285D01*
X148913253Y-74496857D01*
X148970396Y-74525428D01*
X149027539Y-74525428D01*
X149084682Y-74496857D01*
X149113253Y-74468285D01*
X149141824Y-74411142D01*
X149170396Y-74296857D01*
X149170396Y-74154000D01*
X149141824Y-74039714D01*
X149113253Y-73982571D01*
X149084682Y-73954000D01*
X149027539Y-73925428D01*
%TO.C,R38*%
X138316110Y-63729285D02*
X138030396Y-63529285D01*
X138316110Y-63386428D02*
X137716110Y-63386428D01*
X137716110Y-63615000D01*
X137744682Y-63672142D01*
X137773253Y-63700714D01*
X137830396Y-63729285D01*
X137916110Y-63729285D01*
X137973253Y-63700714D01*
X138001824Y-63672142D01*
X138030396Y-63615000D01*
X138030396Y-63386428D01*
X137716110Y-63929285D02*
X137716110Y-64300714D01*
X137944682Y-64100714D01*
X137944682Y-64186428D01*
X137973253Y-64243571D01*
X138001824Y-64272142D01*
X138058967Y-64300714D01*
X138201824Y-64300714D01*
X138258967Y-64272142D01*
X138287539Y-64243571D01*
X138316110Y-64186428D01*
X138316110Y-64015000D01*
X138287539Y-63957857D01*
X138258967Y-63929285D01*
X137973253Y-64643571D02*
X137944682Y-64586428D01*
X137916110Y-64557857D01*
X137858967Y-64529285D01*
X137830396Y-64529285D01*
X137773253Y-64557857D01*
X137744682Y-64586428D01*
X137716110Y-64643571D01*
X137716110Y-64757857D01*
X137744682Y-64815000D01*
X137773253Y-64843571D01*
X137830396Y-64872142D01*
X137858967Y-64872142D01*
X137916110Y-64843571D01*
X137944682Y-64815000D01*
X137973253Y-64757857D01*
X137973253Y-64643571D01*
X138001824Y-64586428D01*
X138030396Y-64557857D01*
X138087539Y-64529285D01*
X138201824Y-64529285D01*
X138258967Y-64557857D01*
X138287539Y-64586428D01*
X138316110Y-64643571D01*
X138316110Y-64757857D01*
X138287539Y-64815000D01*
X138258967Y-64843571D01*
X138201824Y-64872142D01*
X138087539Y-64872142D01*
X138030396Y-64843571D01*
X138001824Y-64815000D01*
X137973253Y-64757857D01*
%TO.C,R52*%
X136792110Y-63729285D02*
X136506396Y-63529285D01*
X136792110Y-63386428D02*
X136192110Y-63386428D01*
X136192110Y-63615000D01*
X136220682Y-63672142D01*
X136249253Y-63700714D01*
X136306396Y-63729285D01*
X136392110Y-63729285D01*
X136449253Y-63700714D01*
X136477824Y-63672142D01*
X136506396Y-63615000D01*
X136506396Y-63386428D01*
X136192110Y-64272142D02*
X136192110Y-63986428D01*
X136477824Y-63957857D01*
X136449253Y-63986428D01*
X136420682Y-64043571D01*
X136420682Y-64186428D01*
X136449253Y-64243571D01*
X136477824Y-64272142D01*
X136534967Y-64300714D01*
X136677824Y-64300714D01*
X136734967Y-64272142D01*
X136763539Y-64243571D01*
X136792110Y-64186428D01*
X136792110Y-64043571D01*
X136763539Y-63986428D01*
X136734967Y-63957857D01*
X136249253Y-64529285D02*
X136220682Y-64557857D01*
X136192110Y-64615000D01*
X136192110Y-64757857D01*
X136220682Y-64815000D01*
X136249253Y-64843571D01*
X136306396Y-64872142D01*
X136363539Y-64872142D01*
X136449253Y-64843571D01*
X136792110Y-64500714D01*
X136792110Y-64872142D01*
%TO.C,R14*%
X101072110Y-63617885D02*
X100786396Y-63417885D01*
X101072110Y-63275028D02*
X100472110Y-63275028D01*
X100472110Y-63503600D01*
X100500682Y-63560742D01*
X100529253Y-63589314D01*
X100586396Y-63617885D01*
X100672110Y-63617885D01*
X100729253Y-63589314D01*
X100757824Y-63560742D01*
X100786396Y-63503600D01*
X100786396Y-63275028D01*
X101072110Y-64189314D02*
X101072110Y-63846457D01*
X101072110Y-64017885D02*
X100472110Y-64017885D01*
X100557824Y-63960742D01*
X100614967Y-63903600D01*
X100643539Y-63846457D01*
X100672110Y-64703600D02*
X101072110Y-64703600D01*
X100443539Y-64560742D02*
X100872110Y-64417885D01*
X100872110Y-64789314D01*
%TO.C,R50*%
X130383396Y-72493428D02*
X130583396Y-72207714D01*
X130726253Y-72493428D02*
X130726253Y-71893428D01*
X130497682Y-71893428D01*
X130440539Y-71922000D01*
X130411967Y-71950571D01*
X130383396Y-72007714D01*
X130383396Y-72093428D01*
X130411967Y-72150571D01*
X130440539Y-72179142D01*
X130497682Y-72207714D01*
X130726253Y-72207714D01*
X129840539Y-71893428D02*
X130126253Y-71893428D01*
X130154824Y-72179142D01*
X130126253Y-72150571D01*
X130069110Y-72122000D01*
X129926253Y-72122000D01*
X129869110Y-72150571D01*
X129840539Y-72179142D01*
X129811967Y-72236285D01*
X129811967Y-72379142D01*
X129840539Y-72436285D01*
X129869110Y-72464857D01*
X129926253Y-72493428D01*
X130069110Y-72493428D01*
X130126253Y-72464857D01*
X130154824Y-72436285D01*
X129440539Y-71893428D02*
X129383396Y-71893428D01*
X129326253Y-71922000D01*
X129297682Y-71950571D01*
X129269110Y-72007714D01*
X129240539Y-72122000D01*
X129240539Y-72264857D01*
X129269110Y-72379142D01*
X129297682Y-72436285D01*
X129326253Y-72464857D01*
X129383396Y-72493428D01*
X129440539Y-72493428D01*
X129497682Y-72464857D01*
X129526253Y-72436285D01*
X129554824Y-72379142D01*
X129583396Y-72264857D01*
X129583396Y-72122000D01*
X129554824Y-72007714D01*
X129526253Y-71950571D01*
X129497682Y-71922000D01*
X129440539Y-71893428D01*
%TO.C,R54*%
X139840110Y-63729285D02*
X139554396Y-63529285D01*
X139840110Y-63386428D02*
X139240110Y-63386428D01*
X139240110Y-63615000D01*
X139268682Y-63672142D01*
X139297253Y-63700714D01*
X139354396Y-63729285D01*
X139440110Y-63729285D01*
X139497253Y-63700714D01*
X139525824Y-63672142D01*
X139554396Y-63615000D01*
X139554396Y-63386428D01*
X139240110Y-64272142D02*
X139240110Y-63986428D01*
X139525824Y-63957857D01*
X139497253Y-63986428D01*
X139468682Y-64043571D01*
X139468682Y-64186428D01*
X139497253Y-64243571D01*
X139525824Y-64272142D01*
X139582967Y-64300714D01*
X139725824Y-64300714D01*
X139782967Y-64272142D01*
X139811539Y-64243571D01*
X139840110Y-64186428D01*
X139840110Y-64043571D01*
X139811539Y-63986428D01*
X139782967Y-63957857D01*
X139440110Y-64815000D02*
X139840110Y-64815000D01*
X139211539Y-64672142D02*
X139640110Y-64529285D01*
X139640110Y-64900714D01*
%TO.C,R13*%
X93139396Y-70858028D02*
X93339396Y-70572314D01*
X93482253Y-70858028D02*
X93482253Y-70258028D01*
X93253682Y-70258028D01*
X93196539Y-70286600D01*
X93167967Y-70315171D01*
X93139396Y-70372314D01*
X93139396Y-70458028D01*
X93167967Y-70515171D01*
X93196539Y-70543742D01*
X93253682Y-70572314D01*
X93482253Y-70572314D01*
X92567967Y-70858028D02*
X92910824Y-70858028D01*
X92739396Y-70858028D02*
X92739396Y-70258028D01*
X92796539Y-70343742D01*
X92853682Y-70400885D01*
X92910824Y-70429457D01*
X92367967Y-70258028D02*
X91996539Y-70258028D01*
X92196539Y-70486600D01*
X92110824Y-70486600D01*
X92053682Y-70515171D01*
X92025110Y-70543742D01*
X91996539Y-70600885D01*
X91996539Y-70743742D01*
X92025110Y-70800885D01*
X92053682Y-70829457D01*
X92110824Y-70858028D01*
X92282253Y-70858028D01*
X92339396Y-70829457D01*
X92367967Y-70800885D01*
%TO.C,C8*%
X101920000Y-83174285D02*
X101948571Y-83202857D01*
X102034285Y-83231428D01*
X102091428Y-83231428D01*
X102177142Y-83202857D01*
X102234285Y-83145714D01*
X102262857Y-83088571D01*
X102291428Y-82974285D01*
X102291428Y-82888571D01*
X102262857Y-82774285D01*
X102234285Y-82717142D01*
X102177142Y-82660000D01*
X102091428Y-82631428D01*
X102034285Y-82631428D01*
X101948571Y-82660000D01*
X101920000Y-82688571D01*
X101577142Y-82888571D02*
X101634285Y-82860000D01*
X101662857Y-82831428D01*
X101691428Y-82774285D01*
X101691428Y-82745714D01*
X101662857Y-82688571D01*
X101634285Y-82660000D01*
X101577142Y-82631428D01*
X101462857Y-82631428D01*
X101405714Y-82660000D01*
X101377142Y-82688571D01*
X101348571Y-82745714D01*
X101348571Y-82774285D01*
X101377142Y-82831428D01*
X101405714Y-82860000D01*
X101462857Y-82888571D01*
X101577142Y-82888571D01*
X101634285Y-82917142D01*
X101662857Y-82945714D01*
X101691428Y-83002857D01*
X101691428Y-83117142D01*
X101662857Y-83174285D01*
X101634285Y-83202857D01*
X101577142Y-83231428D01*
X101462857Y-83231428D01*
X101405714Y-83202857D01*
X101377142Y-83174285D01*
X101348571Y-83117142D01*
X101348571Y-83002857D01*
X101377142Y-82945714D01*
X101405714Y-82917142D01*
X101462857Y-82888571D01*
%TO.C,R48*%
X130383396Y-75541428D02*
X130583396Y-75255714D01*
X130726253Y-75541428D02*
X130726253Y-74941428D01*
X130497682Y-74941428D01*
X130440539Y-74970000D01*
X130411967Y-74998571D01*
X130383396Y-75055714D01*
X130383396Y-75141428D01*
X130411967Y-75198571D01*
X130440539Y-75227142D01*
X130497682Y-75255714D01*
X130726253Y-75255714D01*
X129869110Y-75141428D02*
X129869110Y-75541428D01*
X130011967Y-74912857D02*
X130154824Y-75341428D01*
X129783396Y-75341428D01*
X129469110Y-75198571D02*
X129526253Y-75170000D01*
X129554824Y-75141428D01*
X129583396Y-75084285D01*
X129583396Y-75055714D01*
X129554824Y-74998571D01*
X129526253Y-74970000D01*
X129469110Y-74941428D01*
X129354824Y-74941428D01*
X129297682Y-74970000D01*
X129269110Y-74998571D01*
X129240539Y-75055714D01*
X129240539Y-75084285D01*
X129269110Y-75141428D01*
X129297682Y-75170000D01*
X129354824Y-75198571D01*
X129469110Y-75198571D01*
X129526253Y-75227142D01*
X129554824Y-75255714D01*
X129583396Y-75312857D01*
X129583396Y-75427142D01*
X129554824Y-75484285D01*
X129526253Y-75512857D01*
X129469110Y-75541428D01*
X129354824Y-75541428D01*
X129297682Y-75512857D01*
X129269110Y-75484285D01*
X129240539Y-75427142D01*
X129240539Y-75312857D01*
X129269110Y-75255714D01*
X129297682Y-75227142D01*
X129354824Y-75198571D01*
%TO.C,C11*%
X134028571Y-83617142D02*
X134071428Y-83664761D01*
X134200000Y-83712380D01*
X134285714Y-83712380D01*
X134414285Y-83664761D01*
X134500000Y-83569523D01*
X134542857Y-83474285D01*
X134585714Y-83283809D01*
X134585714Y-83140952D01*
X134542857Y-82950476D01*
X134500000Y-82855238D01*
X134414285Y-82760000D01*
X134285714Y-82712380D01*
X134200000Y-82712380D01*
X134071428Y-82760000D01*
X134028571Y-82807619D01*
X133171428Y-83712380D02*
X133685714Y-83712380D01*
X133428571Y-83712380D02*
X133428571Y-82712380D01*
X133514285Y-82855238D01*
X133600000Y-82950476D01*
X133685714Y-82998095D01*
X132314285Y-83712380D02*
X132828571Y-83712380D01*
X132571428Y-83712380D02*
X132571428Y-82712380D01*
X132657142Y-82855238D01*
X132742857Y-82950476D01*
X132828571Y-82998095D01*
%TO.C,R23*%
X102596110Y-63617885D02*
X102310396Y-63417885D01*
X102596110Y-63275028D02*
X101996110Y-63275028D01*
X101996110Y-63503600D01*
X102024682Y-63560742D01*
X102053253Y-63589314D01*
X102110396Y-63617885D01*
X102196110Y-63617885D01*
X102253253Y-63589314D01*
X102281824Y-63560742D01*
X102310396Y-63503600D01*
X102310396Y-63275028D01*
X102053253Y-63846457D02*
X102024682Y-63875028D01*
X101996110Y-63932171D01*
X101996110Y-64075028D01*
X102024682Y-64132171D01*
X102053253Y-64160742D01*
X102110396Y-64189314D01*
X102167539Y-64189314D01*
X102253253Y-64160742D01*
X102596110Y-63817885D01*
X102596110Y-64189314D01*
X101996110Y-64389314D02*
X101996110Y-64760742D01*
X102224682Y-64560742D01*
X102224682Y-64646457D01*
X102253253Y-64703600D01*
X102281824Y-64732171D01*
X102338967Y-64760742D01*
X102481824Y-64760742D01*
X102538967Y-64732171D01*
X102567539Y-64703600D01*
X102596110Y-64646457D01*
X102596110Y-64475028D01*
X102567539Y-64417885D01*
X102538967Y-64389314D01*
%TO.C,R29*%
X112726396Y-74414028D02*
X112926396Y-74128314D01*
X113069253Y-74414028D02*
X113069253Y-73814028D01*
X112840682Y-73814028D01*
X112783539Y-73842600D01*
X112754967Y-73871171D01*
X112726396Y-73928314D01*
X112726396Y-74014028D01*
X112754967Y-74071171D01*
X112783539Y-74099742D01*
X112840682Y-74128314D01*
X113069253Y-74128314D01*
X112497824Y-73871171D02*
X112469253Y-73842600D01*
X112412110Y-73814028D01*
X112269253Y-73814028D01*
X112212110Y-73842600D01*
X112183539Y-73871171D01*
X112154967Y-73928314D01*
X112154967Y-73985457D01*
X112183539Y-74071171D01*
X112526396Y-74414028D01*
X112154967Y-74414028D01*
X111869253Y-74414028D02*
X111754967Y-74414028D01*
X111697824Y-74385457D01*
X111669253Y-74356885D01*
X111612110Y-74271171D01*
X111583539Y-74156885D01*
X111583539Y-73928314D01*
X111612110Y-73871171D01*
X111640682Y-73842600D01*
X111697824Y-73814028D01*
X111812110Y-73814028D01*
X111869253Y-73842600D01*
X111897824Y-73871171D01*
X111926396Y-73928314D01*
X111926396Y-74071171D01*
X111897824Y-74128314D01*
X111869253Y-74156885D01*
X111812110Y-74185457D01*
X111697824Y-74185457D01*
X111640682Y-74156885D01*
X111612110Y-74128314D01*
X111583539Y-74071171D01*
%TO.C,C12*%
X146508571Y-83737142D02*
X146551428Y-83784761D01*
X146680000Y-83832380D01*
X146765714Y-83832380D01*
X146894285Y-83784761D01*
X146980000Y-83689523D01*
X147022857Y-83594285D01*
X147065714Y-83403809D01*
X147065714Y-83260952D01*
X147022857Y-83070476D01*
X146980000Y-82975238D01*
X146894285Y-82880000D01*
X146765714Y-82832380D01*
X146680000Y-82832380D01*
X146551428Y-82880000D01*
X146508571Y-82927619D01*
X145651428Y-83832380D02*
X146165714Y-83832380D01*
X145908571Y-83832380D02*
X145908571Y-82832380D01*
X145994285Y-82975238D01*
X146080000Y-83070476D01*
X146165714Y-83118095D01*
X145308571Y-82927619D02*
X145265714Y-82880000D01*
X145180000Y-82832380D01*
X144965714Y-82832380D01*
X144880000Y-82880000D01*
X144837142Y-82927619D01*
X144794285Y-83022857D01*
X144794285Y-83118095D01*
X144837142Y-83260952D01*
X145351428Y-83832380D01*
X144794285Y-83832380D01*
%TO.C,R56*%
X142888110Y-63729285D02*
X142602396Y-63529285D01*
X142888110Y-63386428D02*
X142288110Y-63386428D01*
X142288110Y-63615000D01*
X142316682Y-63672142D01*
X142345253Y-63700714D01*
X142402396Y-63729285D01*
X142488110Y-63729285D01*
X142545253Y-63700714D01*
X142573824Y-63672142D01*
X142602396Y-63615000D01*
X142602396Y-63386428D01*
X142288110Y-64272142D02*
X142288110Y-63986428D01*
X142573824Y-63957857D01*
X142545253Y-63986428D01*
X142516682Y-64043571D01*
X142516682Y-64186428D01*
X142545253Y-64243571D01*
X142573824Y-64272142D01*
X142630967Y-64300714D01*
X142773824Y-64300714D01*
X142830967Y-64272142D01*
X142859539Y-64243571D01*
X142888110Y-64186428D01*
X142888110Y-64043571D01*
X142859539Y-63986428D01*
X142830967Y-63957857D01*
X142288110Y-64815000D02*
X142288110Y-64700714D01*
X142316682Y-64643571D01*
X142345253Y-64615000D01*
X142430967Y-64557857D01*
X142545253Y-64529285D01*
X142773824Y-64529285D01*
X142830967Y-64557857D01*
X142859539Y-64586428D01*
X142888110Y-64643571D01*
X142888110Y-64757857D01*
X142859539Y-64815000D01*
X142830967Y-64843571D01*
X142773824Y-64872142D01*
X142630967Y-64872142D01*
X142573824Y-64843571D01*
X142545253Y-64815000D01*
X142516682Y-64757857D01*
X142516682Y-64643571D01*
X142545253Y-64586428D01*
X142573824Y-64557857D01*
X142630967Y-64529285D01*
%TO.C,R21*%
X99548110Y-63617885D02*
X99262396Y-63417885D01*
X99548110Y-63275028D02*
X98948110Y-63275028D01*
X98948110Y-63503600D01*
X98976682Y-63560742D01*
X99005253Y-63589314D01*
X99062396Y-63617885D01*
X99148110Y-63617885D01*
X99205253Y-63589314D01*
X99233824Y-63560742D01*
X99262396Y-63503600D01*
X99262396Y-63275028D01*
X99005253Y-63846457D02*
X98976682Y-63875028D01*
X98948110Y-63932171D01*
X98948110Y-64075028D01*
X98976682Y-64132171D01*
X99005253Y-64160742D01*
X99062396Y-64189314D01*
X99119539Y-64189314D01*
X99205253Y-64160742D01*
X99548110Y-63817885D01*
X99548110Y-64189314D01*
X99548110Y-64760742D02*
X99548110Y-64417885D01*
X99548110Y-64589314D02*
X98948110Y-64589314D01*
X99033824Y-64532171D01*
X99090967Y-64475028D01*
X99119539Y-64417885D01*
%TO.C,R2*%
X93139396Y-75430028D02*
X93339396Y-75144314D01*
X93482253Y-75430028D02*
X93482253Y-74830028D01*
X93253681Y-74830028D01*
X93196538Y-74858600D01*
X93167967Y-74887171D01*
X93139396Y-74944314D01*
X93139396Y-75030028D01*
X93167967Y-75087171D01*
X93196538Y-75115742D01*
X93253681Y-75144314D01*
X93482253Y-75144314D01*
X92910824Y-74887171D02*
X92882253Y-74858600D01*
X92825110Y-74830028D01*
X92682253Y-74830028D01*
X92625110Y-74858600D01*
X92596538Y-74887171D01*
X92567967Y-74944314D01*
X92567967Y-75001457D01*
X92596538Y-75087171D01*
X92939396Y-75430028D01*
X92567967Y-75430028D01*
%TO.C,R34*%
X130383396Y-74017428D02*
X130583396Y-73731714D01*
X130726253Y-74017428D02*
X130726253Y-73417428D01*
X130497682Y-73417428D01*
X130440539Y-73446000D01*
X130411967Y-73474571D01*
X130383396Y-73531714D01*
X130383396Y-73617428D01*
X130411967Y-73674571D01*
X130440539Y-73703142D01*
X130497682Y-73731714D01*
X130726253Y-73731714D01*
X130183396Y-73417428D02*
X129811967Y-73417428D01*
X130011967Y-73646000D01*
X129926253Y-73646000D01*
X129869110Y-73674571D01*
X129840539Y-73703142D01*
X129811967Y-73760285D01*
X129811967Y-73903142D01*
X129840539Y-73960285D01*
X129869110Y-73988857D01*
X129926253Y-74017428D01*
X130097682Y-74017428D01*
X130154824Y-73988857D01*
X130183396Y-73960285D01*
X129297682Y-73617428D02*
X129297682Y-74017428D01*
X129440539Y-73388857D02*
X129583396Y-73817428D01*
X129211967Y-73817428D01*
%TO.C,R11*%
X93139396Y-72382028D02*
X93339396Y-72096314D01*
X93482253Y-72382028D02*
X93482253Y-71782028D01*
X93253682Y-71782028D01*
X93196539Y-71810600D01*
X93167967Y-71839171D01*
X93139396Y-71896314D01*
X93139396Y-71982028D01*
X93167967Y-72039171D01*
X93196539Y-72067742D01*
X93253682Y-72096314D01*
X93482253Y-72096314D01*
X92567967Y-72382028D02*
X92910824Y-72382028D01*
X92739396Y-72382028D02*
X92739396Y-71782028D01*
X92796539Y-71867742D01*
X92853682Y-71924885D01*
X92910824Y-71953457D01*
X91996539Y-72382028D02*
X92339396Y-72382028D01*
X92167967Y-72382028D02*
X92167967Y-71782028D01*
X92225110Y-71867742D01*
X92282253Y-71924885D01*
X92339396Y-71953457D01*
%TO.C,R40*%
X141364110Y-63729285D02*
X141078396Y-63529285D01*
X141364110Y-63386428D02*
X140764110Y-63386428D01*
X140764110Y-63615000D01*
X140792682Y-63672142D01*
X140821253Y-63700714D01*
X140878396Y-63729285D01*
X140964110Y-63729285D01*
X141021253Y-63700714D01*
X141049824Y-63672142D01*
X141078396Y-63615000D01*
X141078396Y-63386428D01*
X140964110Y-64243571D02*
X141364110Y-64243571D01*
X140735539Y-64100714D02*
X141164110Y-63957857D01*
X141164110Y-64329285D01*
X140764110Y-64672142D02*
X140764110Y-64729285D01*
X140792682Y-64786428D01*
X140821253Y-64815000D01*
X140878396Y-64843571D01*
X140992682Y-64872142D01*
X141135539Y-64872142D01*
X141249824Y-64843571D01*
X141306967Y-64815000D01*
X141335539Y-64786428D01*
X141364110Y-64729285D01*
X141364110Y-64672142D01*
X141335539Y-64615000D01*
X141306967Y-64586428D01*
X141249824Y-64557857D01*
X141135539Y-64529285D01*
X140992682Y-64529285D01*
X140878396Y-64557857D01*
X140821253Y-64586428D01*
X140792682Y-64615000D01*
X140764110Y-64672142D01*
%TO.C,R16*%
X112726396Y-69842028D02*
X112926396Y-69556314D01*
X113069253Y-69842028D02*
X113069253Y-69242028D01*
X112840682Y-69242028D01*
X112783539Y-69270600D01*
X112754967Y-69299171D01*
X112726396Y-69356314D01*
X112726396Y-69442028D01*
X112754967Y-69499171D01*
X112783539Y-69527742D01*
X112840682Y-69556314D01*
X113069253Y-69556314D01*
X112154967Y-69842028D02*
X112497824Y-69842028D01*
X112326396Y-69842028D02*
X112326396Y-69242028D01*
X112383539Y-69327742D01*
X112440682Y-69384885D01*
X112497824Y-69413457D01*
X111640682Y-69242028D02*
X111754967Y-69242028D01*
X111812110Y-69270600D01*
X111840682Y-69299171D01*
X111897824Y-69384885D01*
X111926396Y-69499171D01*
X111926396Y-69727742D01*
X111897824Y-69784885D01*
X111869253Y-69813457D01*
X111812110Y-69842028D01*
X111697824Y-69842028D01*
X111640682Y-69813457D01*
X111612110Y-69784885D01*
X111583539Y-69727742D01*
X111583539Y-69584885D01*
X111612110Y-69527742D01*
X111640682Y-69499171D01*
X111697824Y-69470600D01*
X111812110Y-69470600D01*
X111869253Y-69499171D01*
X111897824Y-69527742D01*
X111926396Y-69584885D01*
%TO.C,R25*%
X105644110Y-63617885D02*
X105358396Y-63417885D01*
X105644110Y-63275028D02*
X105044110Y-63275028D01*
X105044110Y-63503600D01*
X105072682Y-63560742D01*
X105101253Y-63589314D01*
X105158396Y-63617885D01*
X105244110Y-63617885D01*
X105301253Y-63589314D01*
X105329824Y-63560742D01*
X105358396Y-63503600D01*
X105358396Y-63275028D01*
X105101253Y-63846457D02*
X105072682Y-63875028D01*
X105044110Y-63932171D01*
X105044110Y-64075028D01*
X105072682Y-64132171D01*
X105101253Y-64160742D01*
X105158396Y-64189314D01*
X105215539Y-64189314D01*
X105301253Y-64160742D01*
X105644110Y-63817885D01*
X105644110Y-64189314D01*
X105044110Y-64732171D02*
X105044110Y-64446457D01*
X105329824Y-64417885D01*
X105301253Y-64446457D01*
X105272682Y-64503600D01*
X105272682Y-64646457D01*
X105301253Y-64703600D01*
X105329824Y-64732171D01*
X105386967Y-64760742D01*
X105529824Y-64760742D01*
X105586967Y-64732171D01*
X105615539Y-64703600D01*
X105644110Y-64646457D01*
X105644110Y-64503600D01*
X105615539Y-64446457D01*
X105586967Y-64417885D01*
%TO.C,R17*%
X112726396Y-72890028D02*
X112926396Y-72604314D01*
X113069253Y-72890028D02*
X113069253Y-72290028D01*
X112840682Y-72290028D01*
X112783539Y-72318600D01*
X112754967Y-72347171D01*
X112726396Y-72404314D01*
X112726396Y-72490028D01*
X112754967Y-72547171D01*
X112783539Y-72575742D01*
X112840682Y-72604314D01*
X113069253Y-72604314D01*
X112154967Y-72890028D02*
X112497824Y-72890028D01*
X112326396Y-72890028D02*
X112326396Y-72290028D01*
X112383539Y-72375742D01*
X112440682Y-72432885D01*
X112497824Y-72461457D01*
X111954967Y-72290028D02*
X111554967Y-72290028D01*
X111812110Y-72890028D01*
%TO.C,R15*%
X104120110Y-63617885D02*
X103834396Y-63417885D01*
X104120110Y-63275028D02*
X103520110Y-63275028D01*
X103520110Y-63503600D01*
X103548682Y-63560742D01*
X103577253Y-63589314D01*
X103634396Y-63617885D01*
X103720110Y-63617885D01*
X103777253Y-63589314D01*
X103805824Y-63560742D01*
X103834396Y-63503600D01*
X103834396Y-63275028D01*
X104120110Y-64189314D02*
X104120110Y-63846457D01*
X104120110Y-64017885D02*
X103520110Y-64017885D01*
X103605824Y-63960742D01*
X103662967Y-63903600D01*
X103691539Y-63846457D01*
X103520110Y-64732171D02*
X103520110Y-64446457D01*
X103805824Y-64417885D01*
X103777253Y-64446457D01*
X103748682Y-64503600D01*
X103748682Y-64646457D01*
X103777253Y-64703600D01*
X103805824Y-64732171D01*
X103862967Y-64760742D01*
X104005824Y-64760742D01*
X104062967Y-64732171D01*
X104091539Y-64703600D01*
X104120110Y-64646457D01*
X104120110Y-64503600D01*
X104091539Y-64446457D01*
X104062967Y-64417885D01*
%TO.C,R42*%
X149970396Y-69953428D02*
X150170396Y-69667714D01*
X150313253Y-69953428D02*
X150313253Y-69353428D01*
X150084682Y-69353428D01*
X150027539Y-69382000D01*
X149998967Y-69410571D01*
X149970396Y-69467714D01*
X149970396Y-69553428D01*
X149998967Y-69610571D01*
X150027539Y-69639142D01*
X150084682Y-69667714D01*
X150313253Y-69667714D01*
X149456110Y-69553428D02*
X149456110Y-69953428D01*
X149598967Y-69324857D02*
X149741824Y-69753428D01*
X149370396Y-69753428D01*
X149170396Y-69410571D02*
X149141824Y-69382000D01*
X149084682Y-69353428D01*
X148941824Y-69353428D01*
X148884682Y-69382000D01*
X148856110Y-69410571D01*
X148827539Y-69467714D01*
X148827539Y-69524857D01*
X148856110Y-69610571D01*
X149198967Y-69953428D01*
X148827539Y-69953428D01*
%TO.C,R12*%
X93139396Y-73906028D02*
X93339396Y-73620314D01*
X93482253Y-73906028D02*
X93482253Y-73306028D01*
X93253682Y-73306028D01*
X93196539Y-73334600D01*
X93167967Y-73363171D01*
X93139396Y-73420314D01*
X93139396Y-73506028D01*
X93167967Y-73563171D01*
X93196539Y-73591742D01*
X93253682Y-73620314D01*
X93482253Y-73620314D01*
X92567967Y-73906028D02*
X92910824Y-73906028D01*
X92739396Y-73906028D02*
X92739396Y-73306028D01*
X92796539Y-73391742D01*
X92853682Y-73448885D01*
X92910824Y-73477457D01*
X92339396Y-73363171D02*
X92310824Y-73334600D01*
X92253682Y-73306028D01*
X92110824Y-73306028D01*
X92053682Y-73334600D01*
X92025110Y-73363171D01*
X91996539Y-73420314D01*
X91996539Y-73477457D01*
X92025110Y-73563171D01*
X92367967Y-73906028D01*
X91996539Y-73906028D01*
%TO.C,R27*%
X112726396Y-71366028D02*
X112926396Y-71080314D01*
X113069253Y-71366028D02*
X113069253Y-70766028D01*
X112840682Y-70766028D01*
X112783539Y-70794600D01*
X112754967Y-70823171D01*
X112726396Y-70880314D01*
X112726396Y-70966028D01*
X112754967Y-71023171D01*
X112783539Y-71051742D01*
X112840682Y-71080314D01*
X113069253Y-71080314D01*
X112497824Y-70823171D02*
X112469253Y-70794600D01*
X112412110Y-70766028D01*
X112269253Y-70766028D01*
X112212110Y-70794600D01*
X112183539Y-70823171D01*
X112154967Y-70880314D01*
X112154967Y-70937457D01*
X112183539Y-71023171D01*
X112526396Y-71366028D01*
X112154967Y-71366028D01*
X111954967Y-70766028D02*
X111554967Y-70766028D01*
X111812110Y-71366028D01*
%TO.C,R46*%
X149970396Y-76049428D02*
X150170396Y-75763714D01*
X150313253Y-76049428D02*
X150313253Y-75449428D01*
X150084682Y-75449428D01*
X150027539Y-75478000D01*
X149998967Y-75506571D01*
X149970396Y-75563714D01*
X149970396Y-75649428D01*
X149998967Y-75706571D01*
X150027539Y-75735142D01*
X150084682Y-75763714D01*
X150313253Y-75763714D01*
X149456110Y-75649428D02*
X149456110Y-76049428D01*
X149598967Y-75420857D02*
X149741824Y-75849428D01*
X149370396Y-75849428D01*
X148884682Y-75449428D02*
X148998967Y-75449428D01*
X149056110Y-75478000D01*
X149084682Y-75506571D01*
X149141824Y-75592285D01*
X149170396Y-75706571D01*
X149170396Y-75935142D01*
X149141824Y-75992285D01*
X149113253Y-76020857D01*
X149056110Y-76049428D01*
X148941824Y-76049428D01*
X148884682Y-76020857D01*
X148856110Y-75992285D01*
X148827539Y-75935142D01*
X148827539Y-75792285D01*
X148856110Y-75735142D01*
X148884682Y-75706571D01*
X148941824Y-75678000D01*
X149056110Y-75678000D01*
X149113253Y-75706571D01*
X149141824Y-75735142D01*
X149170396Y-75792285D01*
%TO.C,R18*%
X112726396Y-75938028D02*
X112926396Y-75652314D01*
X113069253Y-75938028D02*
X113069253Y-75338028D01*
X112840682Y-75338028D01*
X112783539Y-75366600D01*
X112754967Y-75395171D01*
X112726396Y-75452314D01*
X112726396Y-75538028D01*
X112754967Y-75595171D01*
X112783539Y-75623742D01*
X112840682Y-75652314D01*
X113069253Y-75652314D01*
X112154967Y-75938028D02*
X112497824Y-75938028D01*
X112326396Y-75938028D02*
X112326396Y-75338028D01*
X112383539Y-75423742D01*
X112440682Y-75480885D01*
X112497824Y-75509457D01*
X111812110Y-75595171D02*
X111869253Y-75566600D01*
X111897824Y-75538028D01*
X111926396Y-75480885D01*
X111926396Y-75452314D01*
X111897824Y-75395171D01*
X111869253Y-75366600D01*
X111812110Y-75338028D01*
X111697824Y-75338028D01*
X111640682Y-75366600D01*
X111612110Y-75395171D01*
X111583539Y-75452314D01*
X111583539Y-75480885D01*
X111612110Y-75538028D01*
X111640682Y-75566600D01*
X111697824Y-75595171D01*
X111812110Y-75595171D01*
X111869253Y-75623742D01*
X111897824Y-75652314D01*
X111926396Y-75709457D01*
X111926396Y-75823742D01*
X111897824Y-75880885D01*
X111869253Y-75909457D01*
X111812110Y-75938028D01*
X111697824Y-75938028D01*
X111640682Y-75909457D01*
X111612110Y-75880885D01*
X111583539Y-75823742D01*
X111583539Y-75709457D01*
X111612110Y-75652314D01*
X111640682Y-75623742D01*
X111697824Y-75595171D01*
%TO.C,C10*%
X139445714Y-83234285D02*
X139474285Y-83262857D01*
X139560000Y-83291428D01*
X139617142Y-83291428D01*
X139702857Y-83262857D01*
X139760000Y-83205714D01*
X139788571Y-83148571D01*
X139817142Y-83034285D01*
X139817142Y-82948571D01*
X139788571Y-82834285D01*
X139760000Y-82777142D01*
X139702857Y-82720000D01*
X139617142Y-82691428D01*
X139560000Y-82691428D01*
X139474285Y-82720000D01*
X139445714Y-82748571D01*
X138874285Y-83291428D02*
X139217142Y-83291428D01*
X139045714Y-83291428D02*
X139045714Y-82691428D01*
X139102857Y-82777142D01*
X139160000Y-82834285D01*
X139217142Y-82862857D01*
X138502857Y-82691428D02*
X138445714Y-82691428D01*
X138388571Y-82720000D01*
X138360000Y-82748571D01*
X138331428Y-82805714D01*
X138302857Y-82920000D01*
X138302857Y-83062857D01*
X138331428Y-83177142D01*
X138360000Y-83234285D01*
X138388571Y-83262857D01*
X138445714Y-83291428D01*
X138502857Y-83291428D01*
X138560000Y-83262857D01*
X138588571Y-83234285D01*
X138617142Y-83177142D01*
X138645714Y-83062857D01*
X138645714Y-82920000D01*
X138617142Y-82805714D01*
X138588571Y-82748571D01*
X138560000Y-82720000D01*
X138502857Y-82691428D01*
%TO.C,R62*%
X149970396Y-77573428D02*
X150170396Y-77287714D01*
X150313253Y-77573428D02*
X150313253Y-76973428D01*
X150084682Y-76973428D01*
X150027539Y-77002000D01*
X149998967Y-77030571D01*
X149970396Y-77087714D01*
X149970396Y-77173428D01*
X149998967Y-77230571D01*
X150027539Y-77259142D01*
X150084682Y-77287714D01*
X150313253Y-77287714D01*
X149456110Y-76973428D02*
X149570396Y-76973428D01*
X149627539Y-77002000D01*
X149656110Y-77030571D01*
X149713253Y-77116285D01*
X149741824Y-77230571D01*
X149741824Y-77459142D01*
X149713253Y-77516285D01*
X149684682Y-77544857D01*
X149627539Y-77573428D01*
X149513253Y-77573428D01*
X149456110Y-77544857D01*
X149427539Y-77516285D01*
X149398967Y-77459142D01*
X149398967Y-77316285D01*
X149427539Y-77259142D01*
X149456110Y-77230571D01*
X149513253Y-77202000D01*
X149627539Y-77202000D01*
X149684682Y-77230571D01*
X149713253Y-77259142D01*
X149741824Y-77316285D01*
X149170396Y-77030571D02*
X149141824Y-77002000D01*
X149084682Y-76973428D01*
X148941824Y-76973428D01*
X148884682Y-77002000D01*
X148856110Y-77030571D01*
X148827539Y-77087714D01*
X148827539Y-77144857D01*
X148856110Y-77230571D01*
X149198967Y-77573428D01*
X148827539Y-77573428D01*
%TO.C,R36*%
X130383396Y-70969428D02*
X130583396Y-70683714D01*
X130726253Y-70969428D02*
X130726253Y-70369428D01*
X130497682Y-70369428D01*
X130440539Y-70398000D01*
X130411967Y-70426571D01*
X130383396Y-70483714D01*
X130383396Y-70569428D01*
X130411967Y-70626571D01*
X130440539Y-70655142D01*
X130497682Y-70683714D01*
X130726253Y-70683714D01*
X130183396Y-70369428D02*
X129811967Y-70369428D01*
X130011967Y-70598000D01*
X129926253Y-70598000D01*
X129869110Y-70626571D01*
X129840539Y-70655142D01*
X129811967Y-70712285D01*
X129811967Y-70855142D01*
X129840539Y-70912285D01*
X129869110Y-70940857D01*
X129926253Y-70969428D01*
X130097682Y-70969428D01*
X130154824Y-70940857D01*
X130183396Y-70912285D01*
X129297682Y-70369428D02*
X129411967Y-70369428D01*
X129469110Y-70398000D01*
X129497682Y-70426571D01*
X129554824Y-70512285D01*
X129583396Y-70626571D01*
X129583396Y-70855142D01*
X129554824Y-70912285D01*
X129526253Y-70940857D01*
X129469110Y-70969428D01*
X129354824Y-70969428D01*
X129297682Y-70940857D01*
X129269110Y-70912285D01*
X129240539Y-70855142D01*
X129240539Y-70712285D01*
X129269110Y-70655142D01*
X129297682Y-70626571D01*
X129354824Y-70598000D01*
X129469110Y-70598000D01*
X129526253Y-70626571D01*
X129554824Y-70655142D01*
X129583396Y-70712285D01*
D12*
%TO.C,R44*%
X146697424Y-73252500D02*
X147171940Y-73252500D01*
X146697424Y-72207500D02*
X147171940Y-72207500D01*
%TO.C,C9*%
X95478930Y-82360600D02*
X96901434Y-82360600D01*
X95478930Y-79640600D02*
X96901434Y-79640600D01*
%TO.C,C7*%
X109419934Y-79640600D02*
X107997430Y-79640600D01*
X109419934Y-82360600D02*
X107997430Y-82360600D01*
%TO.C,R31*%
X109927940Y-77713100D02*
X109453424Y-77713100D01*
X109927940Y-76668100D02*
X109453424Y-76668100D01*
%TO.C,R58*%
X147171940Y-71728500D02*
X146697424Y-71728500D01*
X147171940Y-70683500D02*
X146697424Y-70683500D01*
%TO.C,R60*%
X147171940Y-73731500D02*
X146697424Y-73731500D01*
X147171940Y-74776500D02*
X146697424Y-74776500D01*
%TO.C,R38*%
X137522182Y-67002258D02*
X137522182Y-66527742D01*
X138567182Y-67002258D02*
X138567182Y-66527742D01*
%TO.C,R52*%
X135998182Y-66527742D02*
X135998182Y-67002258D01*
X137043182Y-66527742D02*
X137043182Y-67002258D01*
%TO.C,R14*%
X100278182Y-66890858D02*
X100278182Y-66416342D01*
X101323182Y-66890858D02*
X101323182Y-66416342D01*
%TO.C,R50*%
X132410424Y-72744500D02*
X132884940Y-72744500D01*
X132410424Y-71699500D02*
X132884940Y-71699500D01*
%TO.C,R54*%
X140091182Y-66527742D02*
X140091182Y-67002258D01*
X139046182Y-66527742D02*
X139046182Y-67002258D01*
%TO.C,R13*%
X95640940Y-70064100D02*
X95166424Y-70064100D01*
X95640940Y-71109100D02*
X95166424Y-71109100D01*
%TO.C,C8*%
X101957262Y-81252600D02*
X101676102Y-81252600D01*
X101957262Y-82272600D02*
X101676102Y-82272600D01*
%TO.C,R48*%
X132410424Y-75792500D02*
X132884940Y-75792500D01*
X132410424Y-74747500D02*
X132884940Y-74747500D01*
%TO.C,C11*%
X132722930Y-79752000D02*
X134145434Y-79752000D01*
X132722930Y-82472000D02*
X134145434Y-82472000D01*
%TO.C,R23*%
X101802182Y-66416342D02*
X101802182Y-66890858D01*
X102847182Y-66416342D02*
X102847182Y-66890858D01*
%TO.C,R29*%
X109927940Y-74665100D02*
X109453424Y-74665100D01*
X109927940Y-73620100D02*
X109453424Y-73620100D01*
%TO.C,C12*%
X146663934Y-79752000D02*
X145241430Y-79752000D01*
X146663934Y-82472000D02*
X145241430Y-82472000D01*
%TO.C,R56*%
X143139182Y-66527742D02*
X143139182Y-67002258D01*
X142094182Y-66527742D02*
X142094182Y-67002258D01*
%TO.C,R21*%
X98754182Y-66416342D02*
X98754182Y-66890858D01*
X99799182Y-66416342D02*
X99799182Y-66890858D01*
%TO.C,R2*%
X95166424Y-74636100D02*
X95640940Y-74636100D01*
X95166424Y-75681100D02*
X95640940Y-75681100D01*
%TO.C,R34*%
X132884940Y-74268500D02*
X132410424Y-74268500D01*
X132884940Y-73223500D02*
X132410424Y-73223500D01*
%TO.C,R11*%
X95166424Y-71588100D02*
X95640940Y-71588100D01*
X95166424Y-72633100D02*
X95640940Y-72633100D01*
%TO.C,R40*%
X141615182Y-67002258D02*
X141615182Y-66527742D01*
X140570182Y-67002258D02*
X140570182Y-66527742D01*
%TO.C,R16*%
X109453424Y-69048100D02*
X109927940Y-69048100D01*
X109453424Y-70093100D02*
X109927940Y-70093100D01*
%TO.C,R25*%
X105895182Y-66416342D02*
X105895182Y-66890858D01*
X104850182Y-66416342D02*
X104850182Y-66890858D01*
%TO.C,R17*%
X109453424Y-73141100D02*
X109927940Y-73141100D01*
X109453424Y-72096100D02*
X109927940Y-72096100D01*
%TO.C,R15*%
X103326182Y-66890858D02*
X103326182Y-66416342D01*
X104371182Y-66890858D02*
X104371182Y-66416342D01*
%TO.C,R42*%
X146697424Y-70204500D02*
X147171940Y-70204500D01*
X146697424Y-69159500D02*
X147171940Y-69159500D01*
%TO.C,R12*%
X95640940Y-73112100D02*
X95166424Y-73112100D01*
X95640940Y-74157100D02*
X95166424Y-74157100D01*
%TO.C,R27*%
X109927940Y-71617100D02*
X109453424Y-71617100D01*
X109927940Y-70572100D02*
X109453424Y-70572100D01*
%TO.C,R46*%
X146697424Y-75255500D02*
X147171940Y-75255500D01*
X146697424Y-76300500D02*
X147171940Y-76300500D01*
%TO.C,R18*%
X109453424Y-75144100D02*
X109927940Y-75144100D01*
X109453424Y-76189100D02*
X109927940Y-76189100D01*
%TO.C,C10*%
X139201262Y-81364000D02*
X138920102Y-81364000D01*
X139201262Y-82384000D02*
X138920102Y-82384000D01*
%TO.C,R62*%
X147171940Y-76779500D02*
X146697424Y-76779500D01*
X147171940Y-77824500D02*
X146697424Y-77824500D01*
%TO.C,R36*%
X132884940Y-70175500D02*
X132410424Y-70175500D01*
X132884940Y-71220500D02*
X132410424Y-71220500D01*
%TD*%
M02*
