M48
; DRILL file {KiCad (6.0.1)} date Tue Mar 14 12:56:05 2023
; FORMAT={-:-/ absolute / inch / decimal}
; #@! TF.CreationDate,2023-03-14T12:56:05-06:00
; #@! TF.GenerationSoftware,Kicad,Pcbnew,(6.0.1)
; #@! TF.FileFunction,Plated,1,4,PTH
FMAT,2
INCH
; #@! TA.AperFunction,Plated,PTH,ComponentDrill
T1C0.0079
; #@! TA.AperFunction,Plated,PTH,ViaDrill
T2C0.0098
; #@! TA.AperFunction,Plated,PTH,ViaDrill
T3C0.0118
; #@! TA.AperFunction,Plated,PTH,ViaDrill
T4C0.0157
; #@! TA.AperFunction,Plated,PTH,ComponentDrill
T5C0.0181
; #@! TA.AperFunction,Plated,PTH,ComponentDrill
T6C0.0394
%
G90
G05
T1
X3.9076Y-2.7781
X3.9076Y-2.8654
X3.9076Y-2.9526
X3.9076Y-3.0399
X3.9949Y-2.7781
X3.9949Y-2.8654
X3.9949Y-2.9526
X3.9949Y-3.0399
X4.0822Y-2.7781
X4.0822Y-2.8654
X4.0822Y-2.9526
X4.0822Y-3.0399
X4.1694Y-2.7781
X4.1694Y-2.8654
X4.1694Y-2.9526
X4.1694Y-3.0399
X5.3738Y-2.7825
X5.3738Y-2.8698
X5.3738Y-2.957
X5.3738Y-3.0443
X5.4611Y-2.7825
X5.4611Y-2.8698
X5.4611Y-2.957
X5.4611Y-3.0443
X5.5484Y-2.7825
X5.5484Y-2.8698
X5.5484Y-2.957
X5.5484Y-3.0443
X5.6356Y-2.7825
X5.6356Y-2.8698
X5.6356Y-2.957
X5.6356Y-3.0443
T2
X3.7236Y-2.779
X3.7236Y-2.899
X3.7238Y-3.0191
X3.7885Y-2.779
X3.7885Y-2.899
X3.8299Y-2.8598
X3.8299Y-2.9779
X3.8909Y-2.699
X3.9685Y-2.5917
X3.9685Y-2.6566
X4.009Y-2.7014
X4.0885Y-2.5917
X4.0885Y-2.6566
X4.1271Y-2.7014
X4.2484Y-2.781
X4.2484Y-2.8992
X4.2484Y-3.0173
X4.2861Y-2.739
X4.2861Y-2.859
X4.2861Y-2.979
X4.351Y-2.739
X4.351Y-2.859
X4.351Y-2.979
X5.1899Y-2.7834
X5.1899Y-2.9034
X5.1901Y-3.0235
X5.2548Y-2.7834
X5.2548Y-2.9034
X5.2962Y-2.8642
X5.2962Y-2.9823
X5.3572Y-2.7034
X5.4348Y-2.5961
X5.4348Y-2.661
X5.4753Y-2.7057
X5.5548Y-2.5961
X5.5548Y-2.661
X5.5934Y-2.7057
X5.7147Y-2.7854
X5.7147Y-2.9035
X5.7147Y-3.0217
X5.7523Y-2.7434
X5.7523Y-2.8634
X5.7523Y-2.9834
X5.8173Y-2.7434
X5.8173Y-2.8634
X5.8173Y-2.9834
T3
X3.4056Y-2.4642
X3.4056Y-2.6442
X3.4056Y-2.8242
X3.9511Y-3.1541
X3.9826Y-3.156
X4.0141Y-3.1285
X4.0397Y-3.1501
X4.0791Y-3.1777
X4.1135Y-3.1785
X4.148Y-3.1777
X5.4174Y-3.1585
X5.4489Y-3.1604
X5.4804Y-3.1329
X5.506Y-3.1545
X5.5454Y-3.1821
X5.5798Y-3.1829
X5.6143Y-3.1821
X6.162Y-2.4542
X6.162Y-2.6342
X6.162Y-2.8242
T4
X3.8485Y-3.189
X4.2169Y-3.1884
X4.7761Y-2.283
X5.3148Y-3.1934
X5.6832Y-3.1928
T5
X4.3876Y-2.0004
X4.7325Y-2.0004
X4.9841Y-2.0004
X5.3289Y-2.0004
T6
X3.8426Y-3.3566
X3.9426Y-3.3566
X4.0426Y-3.3566
X4.1426Y-3.3566
X4.2426Y-3.3566
X4.3426Y-3.3566
X4.5485Y-3.019
X4.5485Y-3.119
X4.5485Y-3.219
X4.6943Y-3.0175
X4.6943Y-3.1175
X4.6943Y-3.2175
X4.761Y-2.5461
X4.7923Y-3.2175
X4.7943Y-3.0175
X4.7943Y-3.1175
X4.861Y-2.5461
X4.9423Y-3.0175
X4.9423Y-3.1175
X4.9423Y-3.2175
X4.961Y-2.5461
X5.0404Y-3.2175
X5.0423Y-3.0175
X5.0423Y-3.1175
X5.3088Y-3.361
X5.4088Y-3.361
X5.5088Y-3.361
X5.6088Y-3.361
X5.7088Y-3.361
X5.8088Y-3.361
X6.0147Y-3.0234
X6.0147Y-3.1234
X6.0147Y-3.2234
T0
M30
